<svg xmlns="http://www.w3.org/2000/svg" xmlns:xlink="http://www.w3.org/1999/xlink" contentStyleType="text/css" data-diagram-type="SEQUENCE" height="646px" preserveAspectRatio="none" style="width:720px;height:646px;background:#FFFFFF;" version="1.1" viewBox="0 0 720 646" width="720px" zoomAndPan="magnify"><title>US01 - Unload Wagons</title><defs/><g><text fill="#000000" font-family="sans-serif" font-size="14" font-weight="bold" lengthAdjust="spacing" textLength="179.416" x="271.6934" y="27.9951">US01 - Unload Wagons</text><rect fill="none" height="296.6094" style="stroke:#000000;stroke-width:1.5;" width="703.8027" x="10" y="193.8594"/><rect fill="none" height="90.2031" style="stroke:#000000;stroke-width:1.5;" width="683.8027" x="20" y="364.1328"/><g><title>Warehouse Manager</title><rect fill="#000000" fill-opacity="0.00000" height="447.1406" width="8" x="101.4131" y="118.5938"/><line style="stroke:#181818;stroke-width:0.5;stroke-dasharray:5,5;" x1="105" x2="105" y1="118.5938" y2="565.7344"/></g><g><title>Warehouse System</title><rect fill="#000000" fill-opacity="0.00000" height="447.1406" width="8" x="614.9697" y="118.5938"/><line style="stroke:#181818;stroke-width:0.5;stroke-dasharray:5,5;" x1="618.1367" x2="618.1367" y1="118.5938" y2="565.7344"/></g><g class="participant participant-head" data-participant="WP"><text fill="#000000" font-family="sans-serif" font-size="14" lengthAdjust="spacing" textLength="144.8262" x="30" y="115.292">Warehouse Manager</text><ellipse cx="105.4131" cy="50.7969" fill="#E2E2F0" rx="8" ry="8" style="stroke:#181818;stroke-width:0.5;"/><path d="M105.4131,58.7969 L105.4131,85.7969 M92.4131,66.7969 L118.4131,66.7969 M105.4131,85.7969 L92.4131,100.7969 M105.4131,85.7969 L118.4131,100.7969" fill="none" style="stroke:#181818;stroke-width:0.5;"/></g><g class="participant participant-tail" data-participant="WP"><text fill="#000000" font-family="sans-serif" font-size="14" lengthAdjust="spacing" textLength="144.8262" x="30" y="577.7295">Warehouse Manager</text><ellipse cx="105.4131" cy="589.5313" fill="#E2E2F0" rx="8" ry="8" style="stroke:#181818;stroke-width:0.5;"/><path d="M105.4131,597.5313 L105.4131,624.5313 M92.4131,605.5313 L118.4131,605.5313 M105.4131,624.5313 L92.4131,639.5313 M105.4131,624.5313 L118.4131,639.5313" fill="none" style="stroke:#181818;stroke-width:0.5;"/></g><g class="participant participant-head" data-participant="System"><rect fill="#E2E2F0" height="30.2969" rx="2.5" ry="2.5" style="stroke:#181818;stroke-width:0.5;" width="149.666" x="544.1367" y="87.2969"/><text fill="#000000" font-family="sans-serif" font-size="14" lengthAdjust="spacing" textLength="135.666" x="551.1367" y="107.292">Warehouse System</text></g><g class="participant participant-tail" data-participant="System"><rect fill="#E2E2F0" height="30.2969" rx="2.5" ry="2.5" style="stroke:#181818;stroke-width:0.5;" width="149.666" x="544.1367" y="564.7344"/><text fill="#000000" font-family="sans-serif" font-size="14" lengthAdjust="spacing" textLength="135.666" x="551.1367" y="584.7295">Warehouse System</text></g><g class="message" data-participant-1="WP" data-participant-2="System"><polygon fill="#181818" points="606.9697,145.7266,616.9697,149.7266,606.9697,153.7266,610.9697,149.7266" style="stroke:#181818;stroke-width:1;"/><line style="stroke:#181818;stroke-width:1;" x1="105.4131" x2="612.9697" y1="149.7266" y2="149.7266"/><text fill="#000000" font-family="sans-serif" font-size="13" lengthAdjust="spacing" textLength="205.8228" x="112.4131" y="144.6606">selectOption("Unload Wagons")</text></g><g class="message" data-participant-1="System" data-participant-2="WP"><polygon fill="#181818" points="116.4131,174.8594,106.4131,178.8594,116.4131,182.8594,112.4131,178.8594" style="stroke:#181818;stroke-width:1;"/><line style="stroke:#181818;stroke-width:1;" x1="110.4131" x2="617.9697" y1="178.8594" y2="178.8594"/><text fill="#000000" font-family="sans-serif" font-size="13" lengthAdjust="spacing" textLength="359.5439" x="122.4131" y="173.7935">displayMessage("Starting wagon unloading process...")</text></g><path d="M10,193.8594 L74.4429,193.8594 L74.4429,200.9922 L64.4429,210.9922 L10,210.9922 L10,193.8594" fill="#EEEEEE" style="stroke:#000000;stroke-width:1.5;"/><rect fill="none" height="296.6094" style="stroke:#000000;stroke-width:1.5;" width="703.8027" x="10" y="193.8594"/><text fill="#000000" font-family="sans-serif" font-size="13" font-weight="bold" lengthAdjust="spacing" textLength="19.4429" x="25" y="206.9263">alt</text><text fill="#000000" font-family="sans-serif" font-size="11" font-weight="bold" lengthAdjust="spacing" textLength="206.8301" x="89.4429" y="206.0698">[No wagons or no bays available]</text><g class="message" data-participant-1="System" data-participant-2="WP"><polygon fill="#181818" points="116.4131,228.125,106.4131,232.125,116.4131,236.125,112.4131,232.125" style="stroke:#181818;stroke-width:1;"/><line style="stroke:#181818;stroke-width:1;" x1="110.4131" x2="617.9697" y1="232.125" y2="232.125"/><text fill="#000000" font-family="sans-serif" font-size="13" lengthAdjust="spacing" textLength="291.2813" x="122.4131" y="227.0591">displayError("No wagons or bays available.")</text></g><line style="stroke:#000000;stroke-width:1;stroke-dasharray:2,2;" x1="10" x2="713.8027" y1="241.125" y2="241.125"/><text fill="#000000" font-family="sans-serif" font-size="11" font-weight="bold" lengthAdjust="spacing" textLength="154.623" x="15" y="251.3354">[Validation errors found]</text><g class="message" data-participant-1="System" data-participant-2="WP"><polygon fill="#181818" points="116.4131,272.0625,106.4131,276.0625,116.4131,280.0625,112.4131,276.0625" style="stroke:#181818;stroke-width:1;"/><line style="stroke:#181818;stroke-width:1;" x1="110.4131" x2="617.9697" y1="276.0625" y2="276.0625"/><text fill="#000000" font-family="sans-serif" font-size="13" lengthAdjust="spacing" textLength="206.9653" x="122.4131" y="270.9966">displayErrorList(errorMessages)</text></g><line style="stroke:#000000;stroke-width:1;stroke-dasharray:2,2;" x1="10" x2="713.8027" y1="285.0625" y2="285.0625"/><text fill="#000000" font-family="sans-serif" font-size="11" font-weight="bold" lengthAdjust="spacing" textLength="111.1709" x="15" y="295.2729">[All wagons valid]</text><g class="message" data-participant-1="System" data-participant-2="WP"><polygon fill="#181818" points="116.4131,316,106.4131,320,116.4131,324,112.4131,320" style="stroke:#181818;stroke-width:1;"/><line style="stroke:#181818;stroke-width:1;" x1="110.4131" x2="617.9697" y1="320" y2="320"/><text fill="#000000" font-family="sans-serif" font-size="13" lengthAdjust="spacing" textLength="422.3477" x="122.4131" y="314.9341">displayMessage("Processing unloading using FEFO/FIFO rules...")</text></g><g class="message" data-participant-1="System" data-participant-2="WP"><polygon fill="#181818" points="116.4131,345.1328,106.4131,349.1328,116.4131,353.1328,112.4131,349.1328" style="stroke:#181818;stroke-width:1;"/><line style="stroke:#181818;stroke-width:1;" x1="110.4131" x2="617.9697" y1="349.1328" y2="349.1328"/><text fill="#000000" font-family="sans-serif" font-size="13" lengthAdjust="spacing" textLength="371.4839" x="122.4131" y="344.0669">displayMessage("Allocating boxes into available bays...")</text></g><path d="M20,364.1328 L84.4429,364.1328 L84.4429,371.2656 L74.4429,381.2656 L20,381.2656 L20,364.1328" fill="#EEEEEE" style="stroke:#000000;stroke-width:1.5;"/><rect fill="none" height="90.2031" style="stroke:#000000;stroke-width:1.5;" width="683.8027" x="20" y="364.1328"/><text fill="#000000" font-family="sans-serif" font-size="13" font-weight="bold" lengthAdjust="spacing" textLength="19.4429" x="35" y="377.1997">alt</text><text fill="#000000" font-family="sans-serif" font-size="11" font-weight="bold" lengthAdjust="spacing" textLength="190.3569" x="99.4429" y="376.3433">[All boxes successfully placed]</text><g class="message" data-participant-1="System" data-participant-2="WP"><polygon fill="#181818" points="116.4131,398.3984,106.4131,402.3984,116.4131,406.3984,112.4131,402.3984" style="stroke:#181818;stroke-width:1;"/><line style="stroke:#181818;stroke-width:1;" x1="110.4131" x2="617.9697" y1="402.3984" y2="402.3984"/><text fill="#000000" font-family="sans-serif" font-size="13" lengthAdjust="spacing" textLength="406.0024" x="122.4131" y="397.3325">displaySuccess("All wagons successfully unloaded into bays.")</text></g><line style="stroke:#000000;stroke-width:1;stroke-dasharray:2,2;" x1="20" x2="703.8027" y1="411.3984" y2="411.3984"/><text fill="#000000" font-family="sans-serif" font-size="11" font-weight="bold" lengthAdjust="spacing" textLength="154.0483" x="25" y="421.6089">[Some boxes not placed]</text><g class="message" data-participant-1="System" data-participant-2="WP"><polygon fill="#181818" points="116.4131,442.3359,106.4131,446.3359,116.4131,450.3359,112.4131,446.3359" style="stroke:#181818;stroke-width:1;"/><line style="stroke:#181818;stroke-width:1;" x1="110.4131" x2="617.9697" y1="446.3359" y2="446.3359"/><text fill="#000000" font-family="sans-serif" font-size="13" lengthAdjust="spacing" textLength="489.5566" x="122.4131" y="441.27">displayWarning("Some boxes could not be stored (no capacity available).")</text></g><g class="message" data-participant-1="System" data-participant-2="WP"><polygon fill="#181818" points="116.4131,478.4688,106.4131,482.4688,116.4131,486.4688,112.4131,482.4688" style="stroke:#181818;stroke-width:1;"/><line style="stroke:#181818;stroke-width:1;" x1="110.4131" x2="617.9697" y1="482.4688" y2="482.4688"/><text fill="#000000" font-family="sans-serif" font-size="13" lengthAdjust="spacing" textLength="385.5249" x="122.4131" y="477.4028">displaySummary(totalWagons, totalBoxes, unplacedBoxes)</text></g><g class="message" data-participant-1="WP" data-participant-2="System"><polygon fill="#181818" points="606.9697,514.6016,616.9697,518.6016,606.9697,522.6016,610.9697,518.6016" style="stroke:#181818;stroke-width:1;"/><line style="stroke:#181818;stroke-width:1;" x1="105.4131" x2="612.9697" y1="518.6016" y2="518.6016"/><text fill="#000000" font-family="sans-serif" font-size="13" lengthAdjust="spacing" textLength="133.0278" x="112.4131" y="513.5356">returnToMainMenu()</text></g><g class="message" data-participant-1="System" data-participant-2="WP"><polygon fill="#181818" points="116.4131,543.7344,106.4131,547.7344,116.4131,551.7344,112.4131,547.7344" style="stroke:#181818;stroke-width:1;"/><line style="stroke:#181818;stroke-width:1;" x1="110.4131" x2="617.9697" y1="547.7344" y2="547.7344"/><text fill="#000000" font-family="sans-serif" font-size="13" lengthAdjust="spacing" textLength="296.7593" x="122.4131" y="542.6685">displayMessage("Returning to main menu...")</text></g><!--SRC=[ZLDDRzim3BthLn0-kK2RRjSU1dH00mnebg1kbpCZiva0MJJqqTN_lfJaDitGBvzCWEyzlaSgccW9xhflt-4Cxfnbx66BUtO1b48TsKEpHKz_EGM25JhSasy00smtQaGVZJOZklYwgvj2fA4qrL-bjXiu-p5NS061BEcu7gDXrpP7iis9cji48B0Bw4qOBKuh2a74swQBMTRjuLy6G2heN8-UjJGj5WiXKMWZ_ERQ541yE8OTJW7m0Ot5dIK5yhqjTkKz-xOvmX-3imPPSVi7hUanEm7Ag03td5p_6Vcr2R4jWDbOcFakhNqMVSZK7n2zHBAfpdC8XpXIgPTNo_NvyjTo3JvPciFv0gMCmHfBpZj-f036HJxOBsdCIMUsd7QUlFQ6fFCyzydQ2OHMKxNnlcvN4KNtsVuHI_L5VPsZgCz6IceT3pIBEuvVqvIBTU9FBke0rfniNoXs147ENnHRkHoD8seJfqC29o_wicpraRDXG3-raIFQUkEdK8gVMV5KdDLfIob7aEd-Uo-UOlBkbbTet8fSQZzz93S5aRSdQGq2Wq5mPM5F]--></g></svg>