<svg xmlns="http://www.w3.org/2000/svg" xmlns:xlink="http://www.w3.org/1999/xlink" contentStyleType="text/css" data-diagram-type="SEQUENCE" height="2051px" preserveAspectRatio="none" style="width:2475px;height:2051px;background:#FFFFFF;" version="1.1" viewBox="0 0 2475 2051" width="2475px" zoomAndPan="magnify"><title>US01 Unload Wagons</title><defs/><g><text fill="#000000" font-family="sans-serif" font-size="14" font-weight="bold" lengthAdjust="spacing" textLength="168.7314" x="1151.8181" y="27.9951">US01 Unload Wagons</text><rect fill="none" height="148.4688" style="stroke:#000000;stroke-width:1.5;" width="1493.9951" x="10" y="397.7891"/><rect fill="none" height="336.2813" style="stroke:#000000;stroke-width:1.5;" width="816.27" x="1293.1719" y="560.2578"/><rect fill="none" height="276.0156" style="stroke:#000000;stroke-width:1.5;" width="469.0513" x="1303.1719" y="613.5234"/><rect fill="none" height="74.0703" style="stroke:#000000;stroke-width:1.5;" width="438.3325" x="1313.1719" y="808.4688"/><rect fill="none" height="148.4688" style="stroke:#000000;stroke-width:1.5;" width="1493.9951" x="10" y="910.5391"/><rect fill="none" height="46.2656" style="stroke:#000000;stroke-width:1.5;" width="897.1938" x="1313.1719" y="1073.0078"/><rect fill="none" height="306.1328" style="stroke:#000000;stroke-width:1.5;" width="1682.7051" x="487.2056" y="1405.8672"/><rect fill="none" height="185.6016" style="stroke:#000000;stroke-width:1.5;" width="1662.7051" x="497.2056" y="1459.1328"/><rect fill="none" height="61.0703" style="stroke:#000000;stroke-width:1.5;" width="996.7896" x="507.2056" y="1576.6641"/><rect fill="none" height="46.2656" style="stroke:#000000;stroke-width:1.5;" width="996.7896" x="507.2056" y="1658.7344"/><g><title>Warehouse Manager</title><rect fill="#000000" fill-opacity="0.00000" height="1851.7344" width="8" x="91.4131" y="118.5938"/><line style="stroke:#181818;stroke-width:0.5;stroke-dasharray:5,5;" x1="95" x2="95" y1="118.5938" y2="1970.3281"/></g><g><title>UnloadWagonsUI</title><rect fill="#000000" fill-opacity="0.00000" height="1851.7344" width="8" x="579.9346" y="118.5938"/><line style="stroke:#181818;stroke-width:0.5;stroke-dasharray:5,5;" x1="583.2056" x2="583.2056" y1="118.5938" y2="1970.3281"/></g><g><title>UnloadWagonsController</title><rect fill="#000000" fill-opacity="0.00000" height="1851.7344" width="8" x="750.791" y="118.5938"/><line style="stroke:#181818;stroke-width:0.5;stroke-dasharray:5,5;" x1="754.6636" x2="754.6636" y1="118.5938" y2="1970.3281"/></g><g><title>UnloadWagonsService</title><rect fill="#000000" fill-opacity="0.00000" height="1851.7344" width="8" x="1404.5835" y="118.5938"/><line style="stroke:#181818;stroke-width:0.5;stroke-dasharray:5,5;" x1="1408.1719" x2="1408.1719" y1="118.5938" y2="1970.3281"/></g><g><title>Warehouse</title><rect fill="#000000" fill-opacity="0.00000" height="1851.7344" width="8" x="1763.2231" y="118.5938"/><line style="stroke:#181818;stroke-width:0.5;stroke-dasharray:5,5;" x1="1766.7183" x2="1766.7183" y1="118.5938" y2="1970.3281"/></g><g><title>Wagons</title><rect fill="#000000" fill-opacity="0.00000" height="1851.7344" width="8" x="1856.7485" y="118.5938"/><line style="stroke:#181818;stroke-width:0.5;stroke-dasharray:5,5;" x1="1860.728" x2="1860.728" y1="118.5938" y2="1970.3281"/></g><g><title>Items</title><rect fill="#000000" fill-opacity="0.00000" height="1851.7344" width="8" x="1932.3506" y="118.5938"/><line style="stroke:#181818;stroke-width:0.5;stroke-dasharray:5,5;" x1="1935.769" x2="1935.769" y1="118.5938" y2="1970.3281"/></g><g><title>Bays</title><rect fill="#000000" fill-opacity="0.00000" height="1851.7344" width="8" x="1996.8135" y="118.5938"/><line style="stroke:#181818;stroke-width:0.5;stroke-dasharray:5,5;" x1="1999.9321" x2="1999.9321" y1="118.5938" y2="1970.3281"/></g><g><title>Wagon</title><rect fill="#000000" fill-opacity="0.00000" height="1851.7344" width="8" x="2064.0684" y="118.5938"/><line style="stroke:#181818;stroke-width:0.5;stroke-dasharray:5,5;" x1="2067.6948" x2="2067.6948" y1="118.5938" y2="1970.3281"/></g><g><title>Bay</title><rect fill="#000000" fill-opacity="0.00000" height="1851.7344" width="8" x="2125.6763" y="118.5938"/><line style="stroke:#181818;stroke-width:0.5;stroke-dasharray:5,5;" x1="2129.4419" x2="2129.4419" y1="118.5938" y2="1970.3281"/></g><g><title>Box</title><rect fill="#000000" fill-opacity="0.00000" height="1851.7344" width="8" x="2176.1382" y="118.5938"/><line style="stroke:#181818;stroke-width:0.5;stroke-dasharray:5,5;" x1="2179.9106" x2="2179.9106" y1="118.5938" y2="1970.3281"/></g><g class="participant participant-head" data-participant="WM"><text fill="#000000" font-family="sans-serif" font-size="14" lengthAdjust="spacing" textLength="144.8262" x="20" y="115.292">Warehouse Manager</text><ellipse cx="95.4131" cy="50.7969" fill="#E2E2F0" rx="8" ry="8" style="stroke:#181818;stroke-width:0.5;"/><path d="M95.4131,58.7969 L95.4131,85.7969 M82.4131,66.7969 L108.4131,66.7969 M95.4131,85.7969 L82.4131,100.7969 M95.4131,85.7969 L108.4131,100.7969" fill="none" style="stroke:#181818;stroke-width:0.5;"/></g><g class="participant participant-tail" data-participant="WM"><text fill="#000000" font-family="sans-serif" font-size="14" lengthAdjust="spacing" textLength="144.8262" x="20" y="1982.3232">Warehouse Manager</text><ellipse cx="95.4131" cy="1994.125" fill="#E2E2F0" rx="8" ry="8" style="stroke:#181818;stroke-width:0.5;"/><path d="M95.4131,2002.125 L95.4131,2029.125 M82.4131,2010.125 L108.4131,2010.125 M95.4131,2029.125 L82.4131,2044.125 M95.4131,2029.125 L108.4131,2044.125" fill="none" style="stroke:#181818;stroke-width:0.5;"/></g><g class="participant participant-head" data-participant="UI"><rect fill="#E2E2F0" height="30.2969" rx="2.5" ry="2.5" style="stroke:#181818;stroke-width:0.5;" width="133.458" x="517.2056" y="87.2969"/><text fill="#000000" font-family="sans-serif" font-size="14" lengthAdjust="spacing" textLength="119.458" x="524.2056" y="107.292">UnloadWagonsUI</text></g><g class="participant participant-tail" data-participant="UI"><rect fill="#E2E2F0" height="30.2969" rx="2.5" ry="2.5" style="stroke:#181818;stroke-width:0.5;" width="133.458" x="517.2056" y="1969.3281"/><text fill="#000000" font-family="sans-serif" font-size="14" lengthAdjust="spacing" textLength="119.458" x="524.2056" y="1989.3232">UnloadWagonsUI</text></g><g class="participant participant-head" data-participant="CTRL"><rect fill="#E2E2F0" height="30.2969" rx="2.5" ry="2.5" style="stroke:#181818;stroke-width:0.5;" width="188.2549" x="660.6636" y="87.2969"/><text fill="#000000" font-family="sans-serif" font-size="14" lengthAdjust="spacing" textLength="174.2549" x="667.6636" y="107.292">UnloadWagonsController</text></g><g class="participant participant-tail" data-participant="CTRL"><rect fill="#E2E2F0" height="30.2969" rx="2.5" ry="2.5" style="stroke:#181818;stroke-width:0.5;" width="188.2549" x="660.6636" y="1969.3281"/><text fill="#000000" font-family="sans-serif" font-size="14" lengthAdjust="spacing" textLength="174.2549" x="667.6636" y="1989.3232">UnloadWagonsController</text></g><g class="participant participant-head" data-participant="SRV"><rect fill="#E2E2F0" height="30.2969" rx="2.5" ry="2.5" style="stroke:#181818;stroke-width:0.5;" width="170.8232" x="1323.1719" y="87.2969"/><text fill="#000000" font-family="sans-serif" font-size="14" lengthAdjust="spacing" textLength="156.8232" x="1330.1719" y="107.292">UnloadWagonsService</text></g><g class="participant participant-tail" data-participant="SRV"><rect fill="#E2E2F0" height="30.2969" rx="2.5" ry="2.5" style="stroke:#181818;stroke-width:0.5;" width="170.8232" x="1323.1719" y="1969.3281"/><text fill="#000000" font-family="sans-serif" font-size="14" lengthAdjust="spacing" textLength="156.8232" x="1330.1719" y="1989.3232">UnloadWagonsService</text></g><g class="participant participant-head" data-participant="WH"><rect fill="#E2E2F0" height="30.2969" rx="2.5" ry="2.5" style="stroke:#181818;stroke-width:0.5;" width="93.0098" x="1720.7183" y="87.2969"/><text fill="#000000" font-family="sans-serif" font-size="14" lengthAdjust="spacing" textLength="79.0098" x="1727.7183" y="107.292">Warehouse</text></g><g class="participant participant-tail" data-participant="WH"><rect fill="#E2E2F0" height="30.2969" rx="2.5" ry="2.5" style="stroke:#181818;stroke-width:0.5;" width="93.0098" x="1720.7183" y="1969.3281"/><text fill="#000000" font-family="sans-serif" font-size="14" lengthAdjust="spacing" textLength="79.0098" x="1727.7183" y="1989.3232">Warehouse</text></g><g class="participant participant-head" data-participant="WAGONS"><rect fill="#E2E2F0" height="30.2969" style="stroke:#181818;stroke-width:0.5;" width="70.041" x="1827.728" y="83.2969"/><rect fill="#E2E2F0" height="30.2969" style="stroke:#181818;stroke-width:0.5;" width="70.041" x="1823.728" y="87.2969"/><text fill="#000000" font-family="sans-serif" font-size="14" lengthAdjust="spacing" textLength="56.041" x="1830.728" y="107.292">Wagons</text></g><g class="participant participant-tail" data-participant="WAGONS"><rect fill="#E2E2F0" height="30.2969" style="stroke:#181818;stroke-width:0.5;" width="70.041" x="1827.728" y="1969.3281"/><rect fill="#E2E2F0" height="30.2969" style="stroke:#181818;stroke-width:0.5;" width="70.041" x="1823.728" y="1973.3281"/><text fill="#000000" font-family="sans-serif" font-size="14" lengthAdjust="spacing" textLength="56.041" x="1830.728" y="1993.3232">Wagons</text></g><g class="participant participant-head" data-participant="ITEMS"><rect fill="#E2E2F0" height="30.2969" style="stroke:#181818;stroke-width:0.5;" width="53.1631" x="1911.769" y="83.2969"/><rect fill="#E2E2F0" height="30.2969" style="stroke:#181818;stroke-width:0.5;" width="53.1631" x="1907.769" y="87.2969"/><text fill="#000000" font-family="sans-serif" font-size="14" lengthAdjust="spacing" textLength="39.1631" x="1914.769" y="107.292">Items</text></g><g class="participant participant-tail" data-participant="ITEMS"><rect fill="#E2E2F0" height="30.2969" style="stroke:#181818;stroke-width:0.5;" width="53.1631" x="1911.769" y="1969.3281"/><rect fill="#E2E2F0" height="30.2969" style="stroke:#181818;stroke-width:0.5;" width="53.1631" x="1907.769" y="1973.3281"/><text fill="#000000" font-family="sans-serif" font-size="14" lengthAdjust="spacing" textLength="39.1631" x="1914.769" y="1993.3232">Items</text></g><g class="participant participant-head" data-participant="BAYS"><rect fill="#E2E2F0" height="30.2969" style="stroke:#181818;stroke-width:0.5;" width="47.7627" x="1978.9321" y="83.2969"/><rect fill="#E2E2F0" height="30.2969" style="stroke:#181818;stroke-width:0.5;" width="47.7627" x="1974.9321" y="87.2969"/><text fill="#000000" font-family="sans-serif" font-size="14" lengthAdjust="spacing" textLength="33.7627" x="1981.9321" y="107.292">Bays</text></g><g class="participant participant-tail" data-participant="BAYS"><rect fill="#E2E2F0" height="30.2969" style="stroke:#181818;stroke-width:0.5;" width="47.7627" x="1978.9321" y="1969.3281"/><rect fill="#E2E2F0" height="30.2969" style="stroke:#181818;stroke-width:0.5;" width="47.7627" x="1974.9321" y="1973.3281"/><text fill="#000000" font-family="sans-serif" font-size="14" lengthAdjust="spacing" textLength="33.7627" x="1981.9321" y="1993.3232">Bays</text></g><g class="participant participant-head" data-participant="WGN"><rect fill="#E2E2F0" height="30.2969" rx="2.5" ry="2.5" style="stroke:#181818;stroke-width:0.5;" width="62.7471" x="2036.6948" y="87.2969"/><text fill="#000000" font-family="sans-serif" font-size="14" lengthAdjust="spacing" textLength="48.7471" x="2043.6948" y="107.292">Wagon</text></g><g class="participant participant-tail" data-participant="WGN"><rect fill="#E2E2F0" height="30.2969" rx="2.5" ry="2.5" style="stroke:#181818;stroke-width:0.5;" width="62.7471" x="2036.6948" y="1969.3281"/><text fill="#000000" font-family="sans-serif" font-size="14" lengthAdjust="spacing" textLength="48.7471" x="2043.6948" y="1989.3232">Wagon</text></g><g class="participant participant-head" data-participant="BAY"><rect fill="#E2E2F0" height="30.2969" rx="2.5" ry="2.5" style="stroke:#181818;stroke-width:0.5;" width="40.4688" x="2109.4419" y="87.2969"/><text fill="#000000" font-family="sans-serif" font-size="14" lengthAdjust="spacing" textLength="26.4688" x="2116.4419" y="107.292">Bay</text></g><g class="participant participant-tail" data-participant="BAY"><rect fill="#E2E2F0" height="30.2969" rx="2.5" ry="2.5" style="stroke:#181818;stroke-width:0.5;" width="40.4688" x="2109.4419" y="1969.3281"/><text fill="#000000" font-family="sans-serif" font-size="14" lengthAdjust="spacing" textLength="26.4688" x="2116.4419" y="1989.3232">Bay</text></g><g class="participant participant-head" data-participant="BOX"><rect fill="#E2E2F0" height="30.2969" rx="2.5" ry="2.5" style="stroke:#181818;stroke-width:0.5;" width="40.4551" x="2159.9106" y="87.2969"/><text fill="#000000" font-family="sans-serif" font-size="14" lengthAdjust="spacing" textLength="26.4551" x="2166.9106" y="107.292">Box</text></g><g class="participant participant-tail" data-participant="BOX"><rect fill="#E2E2F0" height="30.2969" rx="2.5" ry="2.5" style="stroke:#181818;stroke-width:0.5;" width="40.4551" x="2159.9106" y="1969.3281"/><text fill="#000000" font-family="sans-serif" font-size="14" lengthAdjust="spacing" textLength="26.4551" x="2166.9106" y="1989.3232">Box</text></g><g class="message" data-participant-1="WM" data-participant-2="UI"><polygon fill="#181818" points="571.9346,145.7266,581.9346,149.7266,571.9346,153.7266,575.9346,149.7266" style="stroke:#181818;stroke-width:1;"/><line style="stroke:#181818;stroke-width:1;" x1="95.4131" x2="577.9346" y1="149.7266" y2="149.7266"/><text fill="#000000" font-family="sans-serif" font-size="13" lengthAdjust="spacing" textLength="205.8228" x="102.4131" y="144.6606">selectOption("Unload Wagons")</text></g><g class="message" data-participant-1="UI" data-participant-2="CTRL"><polygon fill="#181818" points="742.791,174.8594,752.791,178.8594,742.791,182.8594,746.791,178.8594" style="stroke:#181818;stroke-width:1;"/><line style="stroke:#181818;stroke-width:1;" x1="583.9346" x2="748.791" y1="178.8594" y2="178.8594"/><text fill="#000000" font-family="sans-serif" font-size="13" lengthAdjust="spacing" textLength="106.4438" x="590.9346" y="173.7935">unloadWagons()</text></g><g class="message" data-participant-1="CTRL" data-participant-2="SRV"><polygon fill="#181818" points="1396.5835,203.9922,1406.5835,207.9922,1396.5835,211.9922,1400.5835,207.9922" style="stroke:#181818;stroke-width:1;"/><line style="stroke:#181818;stroke-width:1;" x1="754.791" x2="1402.5835" y1="207.9922" y2="207.9922"/><text fill="#000000" font-family="sans-serif" font-size="13" lengthAdjust="spacing" textLength="125.5503" x="761.791" y="202.9263">unload(warehouse)</text></g><g class="message" data-participant-1="SRV" data-participant-2="WH"><polygon fill="#181818" points="1755.2231,233.125,1765.2231,237.125,1755.2231,241.125,1759.2231,237.125" style="stroke:#181818;stroke-width:1;"/><line style="stroke:#181818;stroke-width:1;" x1="1408.5835" x2="1761.2231" y1="237.125" y2="237.125"/><text fill="#000000" font-family="sans-serif" font-size="13" lengthAdjust="spacing" textLength="83.5288" x="1415.5835" y="232.0591">getWagons()</text></g><g class="message" data-participant-1="WH" data-participant-2="SRV"><polygon fill="#181818" points="1419.5835,262.2578,1409.5835,266.2578,1419.5835,270.2578,1415.5835,266.2578" style="stroke:#181818;stroke-width:1;"/><line style="stroke:#181818;stroke-width:1;stroke-dasharray:2,2;" x1="1413.5835" x2="1766.2231" y1="266.2578" y2="266.2578"/><text fill="#000000" font-family="sans-serif" font-size="13" lengthAdjust="spacing" textLength="89.7749" x="1425.5835" y="261.1919">List&lt;Wagon&gt;</text></g><g class="message" data-participant-1="SRV" data-participant-2="WH"><polygon fill="#181818" points="1755.2231,291.3906,1765.2231,295.3906,1755.2231,299.3906,1759.2231,295.3906" style="stroke:#181818;stroke-width:1;"/><line style="stroke:#181818;stroke-width:1;" x1="1408.5835" x2="1761.2231" y1="295.3906" y2="295.3906"/><text fill="#000000" font-family="sans-serif" font-size="13" lengthAdjust="spacing" textLength="67.8564" x="1415.5835" y="290.3247">getItems()</text></g><g class="message" data-participant-1="WH" data-participant-2="SRV"><polygon fill="#181818" points="1419.5835,320.5234,1409.5835,324.5234,1419.5835,328.5234,1415.5835,324.5234" style="stroke:#181818;stroke-width:1;"/><line style="stroke:#181818;stroke-width:1;stroke-dasharray:2,2;" x1="1413.5835" x2="1766.2231" y1="324.5234" y2="324.5234"/><text fill="#000000" font-family="sans-serif" font-size="13" lengthAdjust="spacing" textLength="74.1025" x="1425.5835" y="319.4575">List&lt;Item&gt;</text></g><g class="message" data-participant-1="SRV" data-participant-2="WH"><polygon fill="#181818" points="1755.2231,349.6563,1765.2231,353.6563,1755.2231,357.6563,1759.2231,353.6563" style="stroke:#181818;stroke-width:1;"/><line style="stroke:#181818;stroke-width:1;" x1="1408.5835" x2="1761.2231" y1="353.6563" y2="353.6563"/><text fill="#000000" font-family="sans-serif" font-size="13" lengthAdjust="spacing" textLength="78.9585" x="1415.5835" y="348.5903">getAllBays()</text></g><g class="message" data-participant-1="WH" data-participant-2="SRV"><polygon fill="#181818" points="1419.5835,378.7891,1409.5835,382.7891,1419.5835,386.7891,1415.5835,382.7891" style="stroke:#181818;stroke-width:1;"/><line style="stroke:#181818;stroke-width:1;stroke-dasharray:2,2;" x1="1413.5835" x2="1766.2231" y1="382.7891" y2="382.7891"/><text fill="#000000" font-family="sans-serif" font-size="13" lengthAdjust="spacing" textLength="69.0879" x="1425.5835" y="377.7231">List&lt;Bay&gt;</text></g><path d="M10,397.7891 L74.4429,397.7891 L74.4429,404.9219 L64.4429,414.9219 L10,414.9219 L10,397.7891" fill="#EEEEEE" style="stroke:#000000;stroke-width:1.5;"/><rect fill="none" height="148.4688" style="stroke:#000000;stroke-width:1.5;" width="1493.9951" x="10" y="397.7891"/><text fill="#000000" font-family="sans-serif" font-size="13" font-weight="bold" lengthAdjust="spacing" textLength="19.4429" x="25" y="410.856">alt</text><text fill="#000000" font-family="sans-serif" font-size="11" font-weight="bold" lengthAdjust="spacing" textLength="206.8301" x="89.4429" y="409.9995">[No wagons or no bays available]</text><g class="message" data-participant-1="SRV" data-participant-2="CTRL"><polygon fill="#181818" points="765.791,432.0547,755.791,436.0547,765.791,440.0547,761.791,436.0547" style="stroke:#181818;stroke-width:1;"/><line style="stroke:#181818;stroke-width:1;stroke-dasharray:2,2;" x1="759.791" x2="1407.5835" y1="436.0547" y2="436.0547"/><text fill="#000000" font-family="sans-serif" font-size="13" lengthAdjust="spacing" textLength="258.667" x="771.791" y="430.9888">logs = ["No wagons or bays available."]</text></g><g class="message" data-participant-1="CTRL" data-participant-2="UI"><polygon fill="#181818" points="594.9346,461.1875,584.9346,465.1875,594.9346,469.1875,590.9346,465.1875" style="stroke:#181818;stroke-width:1;"/><line style="stroke:#181818;stroke-width:1;stroke-dasharray:2,2;" x1="588.9346" x2="753.791" y1="465.1875" y2="465.1875"/><text fill="#000000" font-family="sans-serif" font-size="13" lengthAdjust="spacing" textLength="113.1152" x="600.9346" y="460.1216">displayLogs(logs)</text></g><g class="message" data-participant-1="UI" data-participant-2="WM"><polygon fill="#181818" points="106.4131,490.3203,96.4131,494.3203,106.4131,498.3203,102.4131,494.3203" style="stroke:#181818;stroke-width:1;"/><line style="stroke:#181818;stroke-width:1;stroke-dasharray:2,2;" x1="100.4131" x2="582.9346" y1="494.3203" y2="494.3203"/><text fill="#000000" font-family="sans-serif" font-size="13" lengthAdjust="spacing" textLength="333.5503" x="112.4131" y="489.2544">"No wagons or bays available. Returning to menu."</text></g><line style="stroke:#000000;stroke-width:1;stroke-dasharray:2,2;" x1="10" x2="1503.9951" y1="503.3203" y2="503.3203"/><text fill="#000000" font-family="sans-serif" font-size="11" font-weight="bold" lengthAdjust="spacing" textLength="179.1367" x="15" y="513.5308">[Wagons and bays available]</text><g class="message" data-participant-1="SRV" data-participant-2="UI"><polygon fill="#181818" points="594.9346,534.2578,584.9346,538.2578,594.9346,542.2578,590.9346,538.2578" style="stroke:#181818;stroke-width:1;"/><line style="stroke:#181818;stroke-width:1;" x1="588.9346" x2="1407.5835" y1="538.2578" y2="538.2578"/><text fill="#000000" font-family="sans-serif" font-size="13" lengthAdjust="spacing" textLength="276.2246" x="600.9346" y="533.1919">log("Starting wagon unloading process...")</text></g><path d="M1293.1719,560.2578 L1369.7959,560.2578 L1369.7959,567.3906 L1359.7959,577.3906 L1293.1719,577.3906 L1293.1719,560.2578" fill="#EEEEEE" style="stroke:#000000;stroke-width:1.5;"/><rect fill="none" height="336.2813" style="stroke:#000000;stroke-width:1.5;" width="816.27" x="1293.1719" y="560.2578"/><text fill="#000000" font-family="sans-serif" font-size="13" font-weight="bold" lengthAdjust="spacing" textLength="31.624" x="1308.1719" y="573.3247">loop</text><text fill="#000000" font-family="sans-serif" font-size="11" font-weight="bold" lengthAdjust="spacing" textLength="121.5264" x="1384.7959" y="572.4683">[for each Wagon w]</text><g class="message" data-participant-1="SRV" data-participant-2="WGN"><polygon fill="#181818" points="2056.0684,594.5234,2066.0684,598.5234,2056.0684,602.5234,2060.0684,598.5234" style="stroke:#181818;stroke-width:1;"/><line style="stroke:#181818;stroke-width:1;" x1="1408.5835" x2="2062.0684" y1="598.5234" y2="598.5234"/><text fill="#000000" font-family="sans-serif" font-size="13" lengthAdjust="spacing" textLength="376.5557" x="1415.5835" y="593.4575">getSku(), getQuantity(), getExpiryDate(), getReceivedAt()</text></g><path d="M1303.1719,613.5234 L1367.6147,613.5234 L1367.6147,620.6563 L1357.6147,630.6563 L1303.1719,630.6563 L1303.1719,613.5234" fill="#EEEEEE" style="stroke:#000000;stroke-width:1.5;"/><rect fill="none" height="276.0156" style="stroke:#000000;stroke-width:1.5;" width="469.0513" x="1303.1719" y="613.5234"/><text fill="#000000" font-family="sans-serif" font-size="13" font-weight="bold" lengthAdjust="spacing" textLength="19.4429" x="1318.1719" y="626.5903">alt</text><text fill="#000000" font-family="sans-serif" font-size="11" font-weight="bold" lengthAdjust="spacing" textLength="153.377" x="1382.6147" y="625.7339">[SKU not found in items]</text><g class="message" data-participant-1="SRV" data-participant-2="SRV"><line style="stroke:#181818;stroke-width:1;" x1="1408.5835" x2="1450.5835" y1="651.7891" y2="651.7891"/><line style="stroke:#181818;stroke-width:1;" x1="1450.5835" x2="1450.5835" y1="651.7891" y2="664.7891"/><line style="stroke:#181818;stroke-width:1;" x1="1409.5835" x2="1450.5835" y1="664.7891" y2="664.7891"/><polygon fill="#181818" points="1419.5835,660.7891,1409.5835,664.7891,1419.5835,668.7891,1415.5835,664.7891" style="stroke:#181818;stroke-width:1;"/><text fill="#000000" font-family="sans-serif" font-size="13" lengthAdjust="spacing" textLength="245.21" x="1415.5835" y="646.7231">errors.add("Unknown SKU: " + w.sku)</text></g><line style="stroke:#000000;stroke-width:1;stroke-dasharray:2,2;" x1="1303.1719" x2="1772.2231" y1="673.7891" y2="673.7891"/><text fill="#000000" font-family="sans-serif" font-size="11" font-weight="bold" lengthAdjust="spacing" textLength="97.6948" x="1308.1719" y="683.9995">[Quantity &lt;= 0]</text><g class="message" data-participant-1="SRV" data-participant-2="SRV"><line style="stroke:#181818;stroke-width:1;" x1="1408.5835" x2="1450.5835" y1="708.7266" y2="708.7266"/><line style="stroke:#181818;stroke-width:1;" x1="1450.5835" x2="1450.5835" y1="708.7266" y2="721.7266"/><line style="stroke:#181818;stroke-width:1;" x1="1409.5835" x2="1450.5835" y1="721.7266" y2="721.7266"/><polygon fill="#181818" points="1419.5835,717.7266,1409.5835,721.7266,1419.5835,725.7266,1415.5835,721.7266" style="stroke:#181818;stroke-width:1;"/><text fill="#000000" font-family="sans-serif" font-size="13" lengthAdjust="spacing" textLength="304.0781" x="1415.5835" y="703.6606">errors.add("Invalid quantity in wagon " + w.id)</text></g><line style="stroke:#000000;stroke-width:1;stroke-dasharray:2,2;" x1="1303.1719" x2="1772.2231" y1="730.7266" y2="730.7266"/><text fill="#000000" font-family="sans-serif" font-size="11" font-weight="bold" lengthAdjust="spacing" textLength="128.0845" x="1308.1719" y="740.937">[Missing receivedAt]</text><g class="message" data-participant-1="SRV" data-participant-2="SRV"><line style="stroke:#181818;stroke-width:1;" x1="1408.5835" x2="1450.5835" y1="765.6641" y2="765.6641"/><line style="stroke:#181818;stroke-width:1;" x1="1450.5835" x2="1450.5835" y1="765.6641" y2="778.6641"/><line style="stroke:#181818;stroke-width:1;" x1="1409.5835" x2="1450.5835" y1="778.6641" y2="778.6641"/><polygon fill="#181818" points="1419.5835,774.6641,1409.5835,778.6641,1419.5835,782.6641,1415.5835,778.6641" style="stroke:#181818;stroke-width:1;"/><text fill="#000000" font-family="sans-serif" font-size="13" lengthAdjust="spacing" textLength="344.6396" x="1415.5835" y="760.5981">errors.add("Missing received date in wagon " + w.id)</text></g><line style="stroke:#000000;stroke-width:1;stroke-dasharray:2,2;" x1="1303.1719" x2="1772.2231" y1="787.6641" y2="787.6641"/><text fill="#000000" font-family="sans-serif" font-size="11" font-weight="bold" lengthAdjust="spacing" textLength="143.2686" x="1308.1719" y="797.8745">[Expiry date not blank]</text><path d="M1313.1719,808.4688 L1377.6147,808.4688 L1377.6147,815.6016 L1367.6147,825.6016 L1313.1719,825.6016 L1313.1719,808.4688" fill="#EEEEEE" style="stroke:#000000;stroke-width:1.5;"/><rect fill="none" height="74.0703" style="stroke:#000000;stroke-width:1.5;" width="438.3325" x="1313.1719" y="808.4688"/><text fill="#000000" font-family="sans-serif" font-size="13" font-weight="bold" lengthAdjust="spacing" textLength="19.4429" x="1328.1719" y="821.5356">alt</text><text fill="#000000" font-family="sans-serif" font-size="11" font-weight="bold" lengthAdjust="spacing" textLength="172.1973" x="1392.6147" y="820.6792">[Invalid expiry date format]</text><g class="message" data-participant-1="SRV" data-participant-2="SRV"><line style="stroke:#181818;stroke-width:1;" x1="1408.5835" x2="1450.5835" y1="846.7344" y2="846.7344"/><line style="stroke:#181818;stroke-width:1;" x1="1450.5835" x2="1450.5835" y1="846.7344" y2="859.7344"/><line style="stroke:#181818;stroke-width:1;" x1="1409.5835" x2="1450.5835" y1="859.7344" y2="859.7344"/><polygon fill="#181818" points="1419.5835,855.7344,1409.5835,859.7344,1419.5835,863.7344,1415.5835,859.7344" style="stroke:#181818;stroke-width:1;"/><text fill="#000000" font-family="sans-serif" font-size="13" lengthAdjust="spacing" textLength="323.9209" x="1415.5835" y="841.6685">errors.add("Invalid expiry date in wagon " + w.id)</text></g><line style="stroke:#000000;stroke-width:1;stroke-dasharray:2,2;" x1="1313.1719" x2="1751.5044" y1="868.7344" y2="868.7344"/><text fill="#000000" font-family="sans-serif" font-size="11" font-weight="bold" lengthAdjust="spacing" textLength="115.876" x="1318.1719" y="878.9448">[Valid expiry date]</text><path d="M10,910.5391 L74.4429,910.5391 L74.4429,917.6719 L64.4429,927.6719 L10,927.6719 L10,910.5391" fill="#EEEEEE" style="stroke:#000000;stroke-width:1.5;"/><rect fill="none" height="148.4688" style="stroke:#000000;stroke-width:1.5;" width="1493.9951" x="10" y="910.5391"/><text fill="#000000" font-family="sans-serif" font-size="13" font-weight="bold" lengthAdjust="spacing" textLength="19.4429" x="25" y="923.606">alt</text><text fill="#000000" font-family="sans-serif" font-size="11" font-weight="bold" lengthAdjust="spacing" textLength="154.623" x="89.4429" y="922.7495">[Validation errors found]</text><g class="message" data-participant-1="SRV" data-participant-2="CTRL"><polygon fill="#181818" points="765.791,944.8047,755.791,948.8047,765.791,952.8047,761.791,948.8047" style="stroke:#181818;stroke-width:1;"/><line style="stroke:#181818;stroke-width:1;stroke-dasharray:2,2;" x1="759.791" x2="1407.5835" y1="948.8047" y2="948.8047"/><text fill="#000000" font-family="sans-serif" font-size="13" lengthAdjust="spacing" textLength="238.2402" x="771.791" y="943.7388">logs = ["Validation errors:"] + errors</text></g><g class="message" data-participant-1="CTRL" data-participant-2="UI"><polygon fill="#181818" points="594.9346,973.9375,584.9346,977.9375,594.9346,981.9375,590.9346,977.9375" style="stroke:#181818;stroke-width:1;"/><line style="stroke:#181818;stroke-width:1;stroke-dasharray:2,2;" x1="588.9346" x2="753.791" y1="977.9375" y2="977.9375"/><text fill="#000000" font-family="sans-serif" font-size="13" lengthAdjust="spacing" textLength="113.1152" x="600.9346" y="972.8716">displayLogs(logs)</text></g><g class="message" data-participant-1="UI" data-participant-2="WM"><polygon fill="#181818" points="106.4131,1003.0703,96.4131,1007.0703,106.4131,1011.0703,102.4131,1007.0703" style="stroke:#181818;stroke-width:1;"/><line style="stroke:#181818;stroke-width:1;stroke-dasharray:2,2;" x1="100.4131" x2="582.9346" y1="1007.0703" y2="1007.0703"/><text fill="#000000" font-family="sans-serif" font-size="13" lengthAdjust="spacing" textLength="342.5703" x="112.4131" y="1002.0044">"Show validation error list and return to main menu"</text></g><line style="stroke:#000000;stroke-width:1;stroke-dasharray:2,2;" x1="10" x2="1503.9951" y1="1016.0703" y2="1016.0703"/><text fill="#000000" font-family="sans-serif" font-size="11" font-weight="bold" lengthAdjust="spacing" textLength="111.1709" x="15" y="1026.2808">[All wagons valid]</text><g class="message" data-participant-1="SRV" data-participant-2="UI"><polygon fill="#181818" points="594.9346,1047.0078,584.9346,1051.0078,594.9346,1055.0078,590.9346,1051.0078" style="stroke:#181818;stroke-width:1;"/><line style="stroke:#181818;stroke-width:1;" x1="588.9346" x2="1407.5835" y1="1051.0078" y2="1051.0078"/><text fill="#000000" font-family="sans-serif" font-size="13" lengthAdjust="spacing" textLength="263.415" x="600.9346" y="1045.9419">log("All wagons validated successfully.")</text></g><path d="M1313.1719,1073.0078 L1389.7959,1073.0078 L1389.7959,1080.1406 L1379.7959,1090.1406 L1313.1719,1090.1406 L1313.1719,1073.0078" fill="#EEEEEE" style="stroke:#000000;stroke-width:1.5;"/><rect fill="none" height="46.2656" style="stroke:#000000;stroke-width:1.5;" width="897.1938" x="1313.1719" y="1073.0078"/><text fill="#000000" font-family="sans-serif" font-size="13" font-weight="bold" lengthAdjust="spacing" textLength="31.624" x="1328.1719" y="1086.0747">loop</text><text fill="#000000" font-family="sans-serif" font-size="11" font-weight="bold" lengthAdjust="spacing" textLength="121.5264" x="1404.7959" y="1085.2183">[for each Wagon w]</text><g class="message" data-participant-1="SRV" data-participant-2="BOX"><polygon fill="#181818" points="2168.1382,1107.2734,2178.1382,1111.2734,2168.1382,1115.2734,2172.1382,1111.2734" style="stroke:#181818;stroke-width:1;"/><line style="stroke:#181818;stroke-width:1;" x1="1408.5835" x2="2174.1382" y1="1111.2734" y2="1111.2734"/><text fill="#000000" font-family="sans-serif" font-size="13" lengthAdjust="spacing" textLength="408.5415" x="1415.5835" y="1106.2075">create Box(w.boxId, w.sku, w.qty, w.expiryDate, w.receivedAt)</text></g><path d="M2185,1131.2734 L2185,1246.2734 L2468,1246.2734 L2468,1141.2734 L2458,1131.2734 L2185,1131.2734" fill="#FEFFDD" style="stroke:#181818;stroke-width:0.5;"/><path d="M2458,1131.2734 L2458,1141.2734 L2468,1141.2734 L2458,1131.2734" fill="#FEFFDD" style="stroke:#181818;stroke-width:0.5;"/><text fill="#000000" font-family="sans-serif" font-size="13" lengthAdjust="spacing" textLength="239.5479" x="2191" y="1148.3403">Each Wagon is converted into a Box:</text><text fill="#000000" font-family="sans-serif" font-size="13" lengthAdjust="spacing" textLength="258.2354" x="2195.1323" y="1163.4731">- Keeps same SKU, quantity, and expiry</text><text fill="#000000" font-family="sans-serif" font-size="13" lengthAdjust="spacing" textLength="169.2095" x="2195.1323" y="1178.606">- Uses receivedAt for FIFO</text><text fill="#000000" font-family="sans-serif" font-size="13" lengthAdjust="spacing" textLength="231.5244" x="2191" y="1193.7388">Boxes are comparable (FEFO/FIFO):</text><text fill="#000000" font-family="sans-serif" font-size="13" lengthAdjust="spacing" textLength="153.6895" x="2195.1323" y="1208.8716">- Expiry date ascending</text><text fill="#000000" font-family="sans-serif" font-size="13" lengthAdjust="spacing" textLength="153.1563" x="2195.1323" y="1224.0044">- ReceivedAt ascending</text><text fill="#000000" font-family="sans-serif" font-size="13" lengthAdjust="spacing" textLength="116.0859" x="2195.1323" y="1239.1372">- BoxId ascending</text><g class="message" data-participant-1="SRV" data-participant-2="BOX"><polygon fill="#181818" points="2168.1382,1269.3359,2178.1382,1273.3359,2168.1382,1277.3359,2172.1382,1273.3359" style="stroke:#181818;stroke-width:1;"/><line style="stroke:#181818;stroke-width:1;" x1="1408.5835" x2="2174.1382" y1="1273.3359" y2="1273.3359"/><text fill="#000000" font-family="sans-serif" font-size="13" lengthAdjust="spacing" textLength="89.8384" x="1415.5835" y="1268.27">sort(allBoxes)</text></g><g class="message" data-participant-1="SRV" data-participant-2="UI"><polygon fill="#181818" points="594.9346,1298.4688,584.9346,1302.4688,594.9346,1306.4688,590.9346,1302.4688" style="stroke:#181818;stroke-width:1;"/><line style="stroke:#181818;stroke-width:1;" x1="588.9346" x2="1407.5835" y1="1302.4688" y2="1302.4688"/><text fill="#000000" font-family="sans-serif" font-size="13" lengthAdjust="spacing" textLength="304.5479" x="600.9346" y="1297.4028">log("Total boxes to unload: " + allBoxes.size())</text></g><g class="message" data-participant-1="SRV" data-participant-2="UI"><polygon fill="#181818" points="594.9346,1351.7344,584.9346,1355.7344,594.9346,1359.7344,590.9346,1355.7344" style="stroke:#181818;stroke-width:1;"/><line style="stroke:#181818;stroke-width:1;" x1="588.9346" x2="1407.5835" y1="1355.7344" y2="1355.7344"/><text fill="#000000" font-family="sans-serif" font-size="13" lengthAdjust="spacing" textLength="342.1323" x="600.9346" y="1350.6685">log("Processing box " + b.boxId + " (" + b.sku + ")")</text></g><path d="M1413,1368.7344 L1413,1393.7344 L1527,1393.7344 L1527,1378.7344 L1517,1368.7344 L1413,1368.7344" fill="#FEFFDD" style="stroke:#181818;stroke-width:0.5;"/><path d="M1517,1368.7344 L1517,1378.7344 L1527,1378.7344 L1517,1368.7344" fill="#FEFFDD" style="stroke:#181818;stroke-width:0.5;"/><text fill="#000000" font-family="sans-serif" font-size="13" lengthAdjust="spacing" textLength="93.3105" x="1419" y="1385.8013">placed = false</text><path d="M487.2056,1405.8672 L563.8296,1405.8672 L563.8296,1413 L553.8296,1423 L487.2056,1423 L487.2056,1405.8672" fill="#EEEEEE" style="stroke:#000000;stroke-width:1.5;"/><rect fill="none" height="306.1328" style="stroke:#000000;stroke-width:1.5;" width="1682.7051" x="487.2056" y="1405.8672"/><text fill="#000000" font-family="sans-serif" font-size="13" font-weight="bold" lengthAdjust="spacing" textLength="31.624" x="502.2056" y="1418.9341">loop</text><text fill="#000000" font-family="sans-serif" font-size="11" font-weight="bold" lengthAdjust="spacing" textLength="87.6938" x="578.8296" y="1418.0776">[for each Bay]</text><g class="message" data-participant-1="SRV" data-participant-2="BAY"><polygon fill="#181818" points="2117.6763,1440.1328,2127.6763,1444.1328,2117.6763,1448.1328,2121.6763,1444.1328" style="stroke:#181818;stroke-width:1;"/><line style="stroke:#181818;stroke-width:1;" x1="1408.5835" x2="2123.6763" y1="1444.1328" y2="1444.1328"/><text fill="#000000" font-family="sans-serif" font-size="13" lengthAdjust="spacing" textLength="89.9336" x="1415.5835" y="1439.0669">hasCapacity()</text></g><path d="M497.2056,1459.1328 L561.6484,1459.1328 L561.6484,1466.2656 L551.6484,1476.2656 L497.2056,1476.2656 L497.2056,1459.1328" fill="#EEEEEE" style="stroke:#000000;stroke-width:1.5;"/><rect fill="none" height="185.6016" style="stroke:#000000;stroke-width:1.5;" width="1662.7051" x="497.2056" y="1459.1328"/><text fill="#000000" font-family="sans-serif" font-size="13" font-weight="bold" lengthAdjust="spacing" textLength="19.4429" x="512.2056" y="1472.1997">alt</text><text fill="#000000" font-family="sans-serif" font-size="11" font-weight="bold" lengthAdjust="spacing" textLength="174.3672" x="576.6484" y="1471.3433">[Bay has available capacity]</text><g class="message" data-participant-1="SRV" data-participant-2="BAY"><polygon fill="#181818" points="2117.6763,1493.3984,2127.6763,1497.3984,2117.6763,1501.3984,2121.6763,1497.3984" style="stroke:#181818;stroke-width:1;"/><line style="stroke:#181818;stroke-width:1;" x1="1408.5835" x2="2123.6763" y1="1497.3984" y2="1497.3984"/><text fill="#000000" font-family="sans-serif" font-size="13" lengthAdjust="spacing" textLength="67.4312" x="1415.5835" y="1492.3325">addBox(b)</text></g><g class="message" data-participant-1="SRV" data-participant-2="UI"><polygon fill="#181818" points="594.9346,1522.5313,584.9346,1526.5313,594.9346,1530.5313,590.9346,1526.5313" style="stroke:#181818;stroke-width:1;"/><line style="stroke:#181818;stroke-width:1;" x1="588.9346" x2="1407.5835" y1="1526.5313" y2="1526.5313"/><text fill="#000000" font-family="sans-serif" font-size="13" lengthAdjust="spacing" textLength="800.6489" x="600.9346" y="1521.4653">log("Stored box " + b.boxId + " (SKU: " + b.sku + ") in Bay " + bay.warehouseId + "/" + bay.aisle + "/" + bay.bayNumber)</text></g><path d="M1413,1539.5313 L1413,1564.5313 L1523,1564.5313 L1523,1549.5313 L1513,1539.5313 L1413,1539.5313" fill="#FEFFDD" style="stroke:#181818;stroke-width:0.5;"/><path d="M1513,1539.5313 L1513,1549.5313 L1523,1549.5313 L1513,1539.5313" fill="#FEFFDD" style="stroke:#181818;stroke-width:0.5;"/><text fill="#000000" font-family="sans-serif" font-size="13" lengthAdjust="spacing" textLength="89.064" x="1419" y="1556.5981">placed = true</text><path d="M507.2056,1576.6641 L594.1572,1576.6641 L594.1572,1583.7969 L584.1572,1593.7969 L507.2056,1593.7969 L507.2056,1576.6641" fill="#EEEEEE" style="stroke:#000000;stroke-width:1.5;"/><rect fill="none" height="61.0703" style="stroke:#000000;stroke-width:1.5;" width="996.7896" x="507.2056" y="1576.6641"/><text fill="#000000" font-family="sans-serif" font-size="13" font-weight="bold" lengthAdjust="spacing" textLength="41.9517" x="522.2056" y="1589.731">break</text><line style="stroke:#000000;stroke-width:1;stroke-dasharray:2,2;" x1="507.2056" x2="1503.9951" y1="1594.7969" y2="1594.7969"/><text fill="#000000" font-family="sans-serif" font-size="11" font-weight="bold" lengthAdjust="spacing" textLength="57.0195" x="512.2056" y="1605.0073">[Bay full]</text><g class="message" data-participant-1="SRV" data-participant-2="UI"><polygon fill="#181818" points="594.9346,1625.7344,584.9346,1629.7344,594.9346,1633.7344,590.9346,1629.7344" style="stroke:#181818;stroke-width:1;"/><line style="stroke:#181818;stroke-width:1;" x1="588.9346" x2="1407.5835" y1="1629.7344" y2="1629.7344"/><text fill="#000000" font-family="sans-serif" font-size="13" lengthAdjust="spacing" textLength="213.6177" x="600.9346" y="1624.6685">log("Bay full. Trying next bay...")</text></g><path d="M507.2056,1658.7344 L571.6484,1658.7344 L571.6484,1665.8672 L561.6484,1675.8672 L507.2056,1675.8672 L507.2056,1658.7344" fill="#EEEEEE" style="stroke:#000000;stroke-width:1.5;"/><rect fill="none" height="46.2656" style="stroke:#000000;stroke-width:1.5;" width="996.7896" x="507.2056" y="1658.7344"/><text fill="#000000" font-family="sans-serif" font-size="13" font-weight="bold" lengthAdjust="spacing" textLength="19.4429" x="522.2056" y="1671.8013">alt</text><text fill="#000000" font-family="sans-serif" font-size="11" font-weight="bold" lengthAdjust="spacing" textLength="135.8618" x="586.6484" y="1670.9448">[No bay had capacity]</text><g class="message" data-participant-1="SRV" data-participant-2="UI"><polygon fill="#181818" points="594.9346,1693,584.9346,1697,594.9346,1701,590.9346,1697" style="stroke:#181818;stroke-width:1;"/><line style="stroke:#181818;stroke-width:1;" x1="588.9346" x2="1407.5835" y1="1697" y2="1697"/><text fill="#000000" font-family="sans-serif" font-size="13" lengthAdjust="spacing" textLength="451.769" x="600.9346" y="1691.9341">log("No space available for box " + b.boxId + " (SKU: " + b.sku + ")")</text></g><g class="message" data-participant-1="SRV" data-participant-2="WH"><polygon fill="#181818" points="1755.2231,1736.1328,1765.2231,1740.1328,1755.2231,1744.1328,1759.2231,1740.1328" style="stroke:#181818;stroke-width:1;"/><line style="stroke:#181818;stroke-width:1;" x1="1408.5835" x2="1761.2231" y1="1740.1328" y2="1740.1328"/><text fill="#000000" font-family="sans-serif" font-size="13" lengthAdjust="spacing" textLength="95.3672" x="1415.5835" y="1735.0669">setBays(BAYS)</text></g><g class="message" data-participant-1="SRV" data-participant-2="WH"><polygon fill="#181818" points="1755.2231,1765.2656,1765.2231,1769.2656,1755.2231,1773.2656,1759.2231,1769.2656" style="stroke:#181818;stroke-width:1;"/><line style="stroke:#181818;stroke-width:1;" x1="1408.5835" x2="1761.2231" y1="1769.2656" y2="1769.2656"/><text fill="#000000" font-family="sans-serif" font-size="13" lengthAdjust="spacing" textLength="108.0308" x="1415.5835" y="1764.1997">indexInventory()</text></g><path d="M1772,1782.2656 L1772,1867.2656 L2014,1867.2656 L2014,1792.2656 L2004,1782.2656 L1772,1782.2656" fill="#FEFFDD" style="stroke:#181818;stroke-width:0.5;"/><path d="M2004,1782.2656 L2004,1792.2656 L2014,1792.2656 L2004,1782.2656" fill="#FEFFDD" style="stroke:#181818;stroke-width:0.5;"/><text fill="#000000" font-family="sans-serif" font-size="13" lengthAdjust="spacing" textLength="112.4106" x="1778" y="1799.3325">indexInventory():</text><text fill="#000000" font-family="sans-serif" font-size="13" lengthAdjust="spacing" textLength="156.2285" x="1782.1323" y="1814.4653">- Clears inventoryBySku</text><text fill="#000000" font-family="sans-serif" font-size="13" lengthAdjust="spacing" textLength="206.9463" x="1782.1323" y="1829.5981">- Removes boxes with qty &lt;= 0</text><text fill="#000000" font-family="sans-serif" font-size="13" lengthAdjust="spacing" textLength="217.2612" x="1782.1323" y="1844.731">- Adds valid boxes from each bay</text><text fill="#000000" font-family="sans-serif" font-size="13" lengthAdjust="spacing" textLength="151.3091" x="1782.1323" y="1859.8638">- Sorts them FEFO/FIFO</text><g class="message" data-participant-1="SRV" data-participant-2="CTRL"><polygon fill="#181818" points="765.791,1890.0625,755.791,1894.0625,765.791,1898.0625,761.791,1894.0625" style="stroke:#181818;stroke-width:1;"/><line style="stroke:#181818;stroke-width:1;stroke-dasharray:2,2;" x1="759.791" x2="1407.5835" y1="1894.0625" y2="1894.0625"/><text fill="#000000" font-family="sans-serif" font-size="13" lengthAdjust="spacing" textLength="70.9858" x="771.791" y="1888.9966">return logs</text></g><g class="message" data-participant-1="CTRL" data-participant-2="UI"><polygon fill="#181818" points="594.9346,1919.1953,584.9346,1923.1953,594.9346,1927.1953,590.9346,1923.1953" style="stroke:#181818;stroke-width:1;"/><line style="stroke:#181818;stroke-width:1;stroke-dasharray:2,2;" x1="588.9346" x2="753.791" y1="1923.1953" y2="1923.1953"/><text fill="#000000" font-family="sans-serif" font-size="13" lengthAdjust="spacing" textLength="113.1152" x="600.9346" y="1918.1294">displayLogs(logs)</text></g><g class="message" data-participant-1="UI" data-participant-2="WM"><polygon fill="#181818" points="106.4131,1948.3281,96.4131,1952.3281,106.4131,1956.3281,102.4131,1952.3281" style="stroke:#181818;stroke-width:1;"/><line style="stroke:#181818;stroke-width:1;" x1="100.4131" x2="582.9346" y1="1952.3281" y2="1952.3281"/><text fill="#000000" font-family="sans-serif" font-size="13" lengthAdjust="spacing" textLength="464.5215" x="112.4131" y="1947.2622">"Unload complete.\nBoxes stored in warehouse: X\nTotal bays used: Y"</text></g><!--SRC=[dLRRRjiu47tNLmpq96CJjViQD06ID6cDnF4sZfiMRHyeYR69qAH3Khxir-yCAScIubom1Wn9d2lFp1pI2ISvJ2SV_uQfafeLSCzcMjaeOhdJ1k9xPlXSbvR3Y2asuoO6Pk5-52sPSI8NIwOSnC4sc4w7NcKwV5dbN2jdj9ILj_Exs-kNbIVSh4JElURazdjNiKalfFKroibjxWGQafGS1D7fb_7Df2iUEhu8qk7TnQWdF6FR83ix_Jdf1qMtmUkNcwu8hMgZda1lWc3y8uhkHt1uWWZ14LXE8STBYfh4dHh4WmXLK97mGTMo1KeoYFmgIX6JHfYiQpm64QsZ-FuhIcVSDNQuSDYONGlhFddHIT_0exDNdoJFr4-b9CZs6g3W13jAEhZHiFQ903QNqf2X2R0L4v9baaU0F-ztjskfPnQEuLVSCUtQfV4VRneWgQ4jX5rAjhr61mbv6NWTWfJI7g76gpxXbhlIAA5cu3Gik2hJEE8I9o502KmLB-PVfO1XatZYg17GZGzLLOg-bqRdtDeqJR7KN1LH9BLUmWFcmba-3t5WtVQA3HVWdZoMoU20thwLs632RQlFYyrIcErdvdYrSCjpBbQyE7L9G83gCBcQ8lmEOvMu2w50KBMzk1Kjb90ReurDML5GWpuglLPaZ_31Nx1ExMCP_7fiwcpWqp5yVDlVKAsO50KyrMQOIe0fE1T5o_T8M4kucMP7RmVesq21oBmQ9G0Oz0YYJ3Brs0GYyEgaUKiJYxPWktpUjUcs_GiPDLbzxrjqGc6U78oOpTrH9__n5IH8GnRtZJryhNCcgJDQlh7hwgVlGDgVZyM8aQgqGvkyEftFR8xYFxYJyFx_XdCorsjOzVo2H4BnesVyUFhPP8WU3MWrdqX5zLXxy_rZsTT2N0gmPKuZ-L1AkNt_L2AfezVSSC8ScJvPfvdU38k3C1xqU79RUl1cEkbhryXLf5qTGJ_ui-9Y5r9OoBLQSKE92eKRPnJiA893kE9yQS6o1QVHF6ZcwS135QAItjHosveVlwlBuUKuGaSemTC3OoomPOZE8Bcyk1n_8Fd0Hsct5hCvfeoZHO8TntJNpmY5rX8-VAz6KGSvgurB61uWb4HpSkrATQSTav3v577RWK43_zHMgHN_8kCD-jL28MGqNRNY_cRu9r0nCGM6yPwpK4DyYo492rXB-Xp4eLkxrQAx2QrYM-TOe6DuODYCzNI5RTD7Bp-sxPCOtXqmhJcpvsp9Si_i7Vf14vBkZXt8AyLzz1Ey8UzGNsQ3VIhjeqeRp7ql10tbxt0WN2aRlygsQNFx23OVwdKcB6RPNi7_JRd8k1cym6DjHEjVWwmpPPV_EW3NlmpdyR7BefGipVRhADHQAToPBRM4uXldq_OdzJxkh6jpuwyqM9xYUL6UnK5bYpgyLKdgY_UYNwNIK7VxGcQvyxSnkhnshu925No39n170Z7KMbtCyGhTr_2ZVouvdYDeNIsVRV464aP_eLSubs4wryBDuQav_W_Xj2WgVgqq7enUXDRFcAUa2Gu_ZlMSBw2XcpvHx0wSYlNfo8ZUEb72xJaS9jNDciXDSiVJtxzLe3mRMjwVlrNt7i4F55UaGnSyN4Ew-Hd_1m00]--></g></svg>