<svg xmlns="http://www.w3.org/2000/svg" xmlns:xlink="http://www.w3.org/1999/xlink" contentStyleType="text/css" data-diagram-type="CLASS" height="1674px" preserveAspectRatio="none" style="width:1325px;height:1674px;background:#FFFFFF;" version="1.1" viewBox="0 0 1325 1674" width="1325px" zoomAndPan="magnify"><title>US01 - Unload Wagons</title><defs/><g><g class="title" data-source-line="1"><text fill="#000000" font-family="sans-serif" font-size="14" font-weight="bold" lengthAdjust="spacing" textLength="179.416" x="566.004" y="22.9951">US01 - Unload Wagons</text></g><!--cluster domain--><g class="cluster" data-entity="domain" data-source-line="5" data-uid="ent0002" id="cluster_domain"><path d="M214.66,633.9669 L274.1004,633.9669 A3.75,3.75 0 0 1 276.6004,636.4669 L283.6004,656.2638 L1149.66,656.2638 A2.5,2.5 0 0 1 1152.16,658.7638 L1152.16,1665.2369 A2.5,2.5 0 0 1 1149.66,1667.7369 L214.66,1667.7369 A2.5,2.5 0 0 1 212.16,1665.2369 L212.16,636.4669 A2.5,2.5 0 0 1 214.66,633.9669" fill="none" style="stroke:#000000;stroke-width:1.5;"/><line style="stroke:#000000;stroke-width:1.5;" x1="212.16" x2="283.6004" y1="656.2638" y2="656.2638"/><text fill="#000000" font-family="sans-serif" font-size="14" font-weight="bold" lengthAdjust="spacing" textLength="58.4404" x="216.16" y="648.962">domain</text></g><!--cluster services--><g class="cluster" data-entity="services" data-source-line="83" data-uid="ent0010" id="cluster_services"><path d="M285.66,469.6769 L351.4442,469.6769 A3.75,3.75 0 0 1 353.9442,472.1769 L360.9442,491.9738 L658.66,491.9738 A2.5,2.5 0 0 1 661.16,494.4738 L661.16,582.4669 A2.5,2.5 0 0 1 658.66,584.9669 L285.66,584.9669 A2.5,2.5 0 0 1 283.16,582.4669 L283.16,472.1769 A2.5,2.5 0 0 1 285.66,469.6769" fill="none" style="stroke:#000000;stroke-width:1.5;"/><line style="stroke:#000000;stroke-width:1.5;" x1="283.16" x2="360.9442" y1="491.9738" y2="491.9738"/><text fill="#000000" font-family="sans-serif" font-size="14" font-weight="bold" lengthAdjust="spacing" textLength="64.7842" x="287.16" y="484.672">services</text></g><!--cluster controllers--><g class="cluster" data-entity="controllers" data-source-line="89" data-uid="ent0012" id="cluster_controllers"><path d="M454.66,256.4869 L541.0887,256.4869 A3.75,3.75 0 0 1 543.5887,258.9869 L550.5887,278.7838 L851.66,278.7838 A2.5,2.5 0 0 1 854.16,281.2838 L854.16,418.1769 A2.5,2.5 0 0 1 851.66,420.6769 L454.66,420.6769 A2.5,2.5 0 0 1 452.16,418.1769 L452.16,258.9869 A2.5,2.5 0 0 1 454.66,256.4869" fill="none" style="stroke:#000000;stroke-width:1.5;"/><line style="stroke:#000000;stroke-width:1.5;" x1="452.16" x2="550.5887" y1="278.7838" y2="278.7838"/><text fill="#000000" font-family="sans-serif" font-size="14" font-weight="bold" lengthAdjust="spacing" textLength="85.4287" x="456.16" y="271.482">controllers</text></g><!--cluster ui--><g class="cluster" data-entity="ui" data-source-line="98" data-uid="ent0014" id="cluster_ui"><path d="M482.66,43.2969 L498.4256,43.2969 A3.75,3.75 0 0 1 500.9256,45.7969 L507.9256,65.5938 L823.66,65.5938 A2.5,2.5 0 0 1 826.16,68.0938 L826.16,204.9869 A2.5,2.5 0 0 1 823.66,207.4869 L482.66,207.4869 A2.5,2.5 0 0 1 480.16,204.9869 L480.16,45.7969 A2.5,2.5 0 0 1 482.66,43.2969" fill="none" style="stroke:#000000;stroke-width:1.5;"/><line style="stroke:#000000;stroke-width:1.5;" x1="480.16" x2="507.9256" y1="65.5938" y2="65.5938"/><text fill="#000000" font-family="sans-serif" font-size="14" font-weight="bold" lengthAdjust="spacing" textLength="14.7656" x="484.16" y="58.292">ui</text></g><!--class Warehouse--><g class="entity" data-entity="Warehouse" data-source-line="6" data-uid="ent0003" id="entity_Warehouse"><rect fill="#F1F1F1" height="357.6406" rx="2.5" ry="2.5" style="stroke:#181818;stroke-width:0.5;" width="335.4561" x="576.43" y="668.9669"/><ellipse cx="700.4031" cy="684.9669" fill="#ADD1B2" rx="11" ry="11" style="stroke:#181818;stroke-width:1;"/><path d="M703.3719,690.6075 Q702.7938,690.9044 702.1531,691.045 Q701.5125,691.2013 700.8094,691.2013 Q698.3094,691.2013 696.9813,689.5606 Q695.6688,687.9044 695.6688,684.7794 Q695.6688,681.6544 696.9813,679.9981 Q698.3094,678.3419 700.8094,678.3419 Q701.5125,678.3419 702.1531,678.4981 Q702.8094,678.6544 703.3719,678.9513 L703.3719,681.67 Q702.7469,681.0919 702.1531,680.8263 Q701.5594,680.545 700.9344,680.545 Q699.5906,680.545 698.9031,681.6231 Q698.2156,682.6856 698.2156,684.7794 Q698.2156,686.8731 698.9031,687.9513 Q699.5906,689.0138 700.9344,689.0138 Q701.5594,689.0138 702.1531,688.7481 Q702.7469,688.4669 703.3719,687.8888 L703.3719,690.6075 Z " fill="#000000"/><text fill="#000000" font-family="sans-serif" font-size="14" lengthAdjust="spacing" textLength="79.0098" x="720.9031" y="689.8136">Warehouse</text><line style="stroke:#181818;stroke-width:0.5;" x1="577.43" x2="910.8861" y1="700.9669" y2="700.9669"/><text fill="#000000" font-family="sans-serif" font-size="14" lengthAdjust="spacing" textLength="126.1162" x="582.43" y="717.962">-bays : List&lt;Bay&gt;</text><text fill="#000000" font-family="sans-serif" font-size="14" lengthAdjust="spacing" textLength="137.3955" x="582.43" y="734.2589">-items : List&lt;Item&gt;</text><text fill="#000000" font-family="sans-serif" font-size="14" lengthAdjust="spacing" textLength="168.998" x="582.43" y="750.5557">-wagons : List&lt;Wagon&gt;</text><text fill="#000000" font-family="sans-serif" font-size="14" lengthAdjust="spacing" textLength="164.5889" x="582.43" y="766.8526">-returns : List&lt;Return&gt;</text><text fill="#000000" font-family="sans-serif" font-size="14" lengthAdjust="spacing" textLength="307.1318" x="582.43" y="783.1495">-inventoryBySku : Map&lt;String, List&lt;Box&gt;&gt;</text><line style="stroke:#181818;stroke-width:0.5;" x1="577.43" x2="910.8861" y1="790.4513" y2="790.4513"/><text fill="#000000" font-family="sans-serif" font-size="14" lengthAdjust="spacing" textLength="184.7822" x="582.43" y="807.4464">+getAllBays() : List&lt;Bay&gt;</text><text fill="#000000" font-family="sans-serif" font-size="14" lengthAdjust="spacing" textLength="178.2266" x="582.43" y="823.7432">+getItems() : List&lt;Item&gt;</text><text fill="#000000" font-family="sans-serif" font-size="14" lengthAdjust="spacing" textLength="211.9824" x="582.43" y="840.0401">+getWagons() : List&lt;Wagon&gt;</text><text fill="#000000" font-family="sans-serif" font-size="14" lengthAdjust="spacing" textLength="194.5508" x="582.43" y="856.337">+getOrders() : List&lt;Order&gt;</text><text fill="#000000" font-family="sans-serif" font-size="14" lengthAdjust="spacing" textLength="209.1523" x="582.43" y="872.6339">+getReturns() : List&lt;Return&gt;</text><text fill="#000000" font-family="sans-serif" font-size="14" lengthAdjust="spacing" textLength="115.5479" x="582.43" y="888.9307">+addBay(b:Bay)</text><text fill="#000000" font-family="sans-serif" font-size="14" lengthAdjust="spacing" textLength="121.3516" x="582.43" y="905.2276">+addItem(i:Item)</text><text fill="#000000" font-family="sans-serif" font-size="14" lengthAdjust="spacing" textLength="162.668" x="582.43" y="921.5245">+addWagon(w:Wagon)</text><text fill="#000000" font-family="sans-serif" font-size="14" lengthAdjust="spacing" textLength="142.3516" x="582.43" y="937.8214">+addOrder(o:Order)</text><text fill="#000000" font-family="sans-serif" font-size="14" lengthAdjust="spacing" textLength="154.1436" x="582.43" y="954.1182">+addReturn(r:Return)</text><text fill="#000000" font-family="sans-serif" font-size="14" lengthAdjust="spacing" textLength="189.9775" x="582.43" y="970.4151">+setBays(bays:List&lt;Bay&gt;)</text><text fill="#000000" font-family="sans-serif" font-size="14" lengthAdjust="spacing" textLength="171.3154" x="582.43" y="986.712">+indexInventory() : void</text><text fill="#000000" font-family="sans-serif" font-size="14" lengthAdjust="spacing" textLength="295.0254" x="582.43" y="1003.0089">+getBoxesForSku(sku:String) : List&lt;Box&gt;</text><text fill="#000000" font-family="sans-serif" font-size="14" lengthAdjust="spacing" textLength="323.4561" x="582.43" y="1019.3057">+getBoxesBySku() : Map&lt;String, List&lt;Box&gt;&gt;</text></g><!--class Bay--><g class="entity" data-entity="Bay" data-source-line="28" data-uid="ent0004" id="entity_Bay"><rect fill="#F1F1F1" height="227.2656" rx="2.5" ry="2.5" style="stroke:#181818;stroke-width:0.5;" width="205.0674" x="228.63" y="1111.7569"/><ellipse cx="313.6793" cy="1127.7569" fill="#ADD1B2" rx="11" ry="11" style="stroke:#181818;stroke-width:1;"/><path d="M316.6481,1133.3975 Q316.0699,1133.6944 315.4293,1133.835 Q314.7887,1133.9913 314.0856,1133.9913 Q311.5856,1133.9913 310.2574,1132.3506 Q308.9449,1130.6944 308.9449,1127.5694 Q308.9449,1124.4444 310.2574,1122.7881 Q311.5856,1121.1319 314.0856,1121.1319 Q314.7887,1121.1319 315.4293,1121.2881 Q316.0856,1121.4444 316.6481,1121.7413 L316.6481,1124.46 Q316.0231,1123.8819 315.4293,1123.6163 Q314.8356,1123.335 314.2106,1123.335 Q312.8668,1123.335 312.1793,1124.4131 Q311.4918,1125.4756 311.4918,1127.5694 Q311.4918,1129.6631 312.1793,1130.7413 Q312.8668,1131.8038 314.2106,1131.8038 Q314.8356,1131.8038 315.4293,1131.5381 Q316.0231,1131.2569 316.6481,1130.6788 L316.6481,1133.3975 Z " fill="#000000"/><text fill="#000000" font-family="sans-serif" font-size="14" lengthAdjust="spacing" textLength="26.4688" x="334.1793" y="1132.6036">Bay</text><line style="stroke:#181818;stroke-width:0.5;" x1="229.63" x2="432.6974" y1="1143.7569" y2="1143.7569"/><text fill="#000000" font-family="sans-serif" font-size="14" lengthAdjust="spacing" textLength="150.083" x="234.63" y="1160.752">-warehouseId : String</text><text fill="#000000" font-family="sans-serif" font-size="14" lengthAdjust="spacing" textLength="69.1865" x="234.63" y="1177.0489">-aisle : int</text><text fill="#000000" font-family="sans-serif" font-size="14" lengthAdjust="spacing" textLength="118.9111" x="234.63" y="1193.3457">-bayNumber : int</text><text fill="#000000" font-family="sans-serif" font-size="14" lengthAdjust="spacing" textLength="138.3867" x="234.63" y="1209.6426">-capacityBoxes : int</text><text fill="#000000" font-family="sans-serif" font-size="14" lengthAdjust="spacing" textLength="134.7021" x="234.63" y="1225.9395">-boxes : List&lt;Box&gt;</text><line style="stroke:#181818;stroke-width:0.5;" x1="229.63" x2="432.6974" y1="1233.2413" y2="1233.2413"/><text fill="#000000" font-family="sans-serif" font-size="14" lengthAdjust="spacing" textLength="193.0674" x="234.63" y="1250.2364">+getWarehouseId() : String</text><text fill="#000000" font-family="sans-serif" font-size="14" lengthAdjust="spacing" textLength="110.7764" x="234.63" y="1266.5332">+getAisle() : int</text><text fill="#000000" font-family="sans-serif" font-size="14" lengthAdjust="spacing" textLength="160.2207" x="234.63" y="1282.8301">+getBayNumber() : int</text><text fill="#000000" font-family="sans-serif" font-size="14" lengthAdjust="spacing" textLength="178.1719" x="234.63" y="1299.127">+hasCapacity() : boolean</text><text fill="#000000" font-family="sans-serif" font-size="14" lengthAdjust="spacing" textLength="175.6152" x="234.63" y="1315.4239">+addBox(box:Box) : void</text><text fill="#000000" font-family="sans-serif" font-size="14" lengthAdjust="spacing" textLength="176.0117" x="234.63" y="1331.7207">+getBoxes() : List&lt;Box&gt;</text></g><!--class Box--><g class="entity" data-entity="Box" data-source-line="42" data-uid="ent0005" id="entity_Box"><rect fill="#F1F1F1" height="243.5625" rx="2.5" ry="2.5" style="stroke:#181818;stroke-width:0.5;" width="325.2021" x="517.56" y="1408.1769"/><ellipse cx="662.6835" cy="1424.1769" fill="#ADD1B2" rx="11" ry="11" style="stroke:#181818;stroke-width:1;"/><path d="M665.6523,1429.8175 Q665.0742,1430.1144 664.4335,1430.255 Q663.7929,1430.4113 663.0898,1430.4113 Q660.5898,1430.4113 659.2617,1428.7706 Q657.9492,1427.1144 657.9492,1423.9894 Q657.9492,1420.8644 659.2617,1419.2081 Q660.5898,1417.5519 663.0898,1417.5519 Q663.7929,1417.5519 664.4335,1417.7081 Q665.0898,1417.8644 665.6523,1418.1613 L665.6523,1420.88 Q665.0273,1420.3019 664.4335,1420.0363 Q663.8398,1419.755 663.2148,1419.755 Q661.871,1419.755 661.1835,1420.8331 Q660.496,1421.8956 660.496,1423.9894 Q660.496,1426.0831 661.1835,1427.1613 Q661.871,1428.2238 663.2148,1428.2238 Q663.8398,1428.2238 664.4335,1427.9581 Q665.0273,1427.6769 665.6523,1427.0988 L665.6523,1429.8175 Z " fill="#000000"/><text fill="#000000" font-family="sans-serif" font-size="14" lengthAdjust="spacing" textLength="26.4551" x="683.1835" y="1429.0236">Box</text><line style="stroke:#181818;stroke-width:0.5;" x1="518.56" x2="841.7621" y1="1440.1769" y2="1440.1769"/><text fill="#000000" font-family="sans-serif" font-size="14" lengthAdjust="spacing" textLength="99.2031" x="523.56" y="1457.172">-boxId : String</text><text fill="#000000" font-family="sans-serif" font-size="14" lengthAdjust="spacing" textLength="84.7246" x="523.56" y="1473.4689">-sku : String</text><text fill="#000000" font-family="sans-serif" font-size="14" lengthAdjust="spacing" textLength="95.2861" x="523.56" y="1489.7657">-quantity : int</text><text fill="#000000" font-family="sans-serif" font-size="14" lengthAdjust="spacing" textLength="137.6279" x="523.56" y="1506.0626">-expiryDate : String</text><text fill="#000000" font-family="sans-serif" font-size="14" lengthAdjust="spacing" textLength="268.6387" x="523.56" y="1522.3595">-receivedAt : java.time.LocalDateTime</text><line style="stroke:#181818;stroke-width:0.5;" x1="518.56" x2="841.7621" y1="1529.6613" y2="1529.6613"/><text fill="#000000" font-family="sans-serif" font-size="14" lengthAdjust="spacing" textLength="140.5127" x="523.56" y="1546.6564">+getBoxId() : String</text><text fill="#000000" font-family="sans-serif" font-size="14" lengthAdjust="spacing" textLength="126.9092" x="523.56" y="1562.9532">+getSku() : String</text><text fill="#000000" font-family="sans-serif" font-size="14" lengthAdjust="spacing" textLength="138.0107" x="523.56" y="1579.2501">+getQuantity() : int</text><text fill="#000000" font-family="sans-serif" font-size="14" lengthAdjust="spacing" textLength="179.6484" x="523.56" y="1595.547">+setQuantity(q:int) : void</text><text fill="#000000" font-family="sans-serif" font-size="14" lengthAdjust="spacing" textLength="178.4521" x="523.56" y="1611.8439">+getExpiryDate() : String</text><text fill="#000000" font-family="sans-serif" font-size="14" lengthAdjust="spacing" textLength="313.2021" x="523.56" y="1628.1407">+getReceivedAt() : java.time.LocalDateTime</text><text fill="#000000" font-family="sans-serif" font-size="14" lengthAdjust="spacing" textLength="271.0859" x="523.56" y="1644.4376">+compareTo(o:Box) : int  &#171;FEFO/FIFO&#187;</text></g><!--class Comparable--><g class="entity" data-entity="Comparable" data-source-line="43" data-uid="ent0006" id="entity_Comparable"><rect fill="#F1F1F1" height="48" rx="2.5" ry="2.5" style="stroke:#181818;stroke-width:0.5;" width="117.1689" x="1018.58" y="1201.3969"/><ellipse cx="1033.58" cy="1217.3969" fill="#B4A7E5" rx="11" ry="11" style="stroke:#181818;stroke-width:1;"/><path d="M1029.5019,1213.1625 L1029.5019,1211.0063 L1036.8925,1211.0063 L1036.8925,1213.1625 L1034.4238,1213.1625 L1034.4238,1221.2406 L1036.8925,1221.2406 L1036.8925,1223.3969 L1029.5019,1223.3969 L1029.5019,1221.2406 L1031.9706,1221.2406 L1031.9706,1213.1625 L1029.5019,1213.1625 Z " fill="#000000"/><text fill="#000000" font-family="sans-serif" font-size="14" font-style="italic" lengthAdjust="spacing" textLength="85.1689" x="1047.58" y="1222.2436">Comparable</text><line style="stroke:#181818;stroke-width:0.5;" x1="1019.58" x2="1134.7489" y1="1233.3969" y2="1233.3969"/><line style="stroke:#181818;stroke-width:0.5;" x1="1019.58" x2="1134.7489" y1="1241.3969" y2="1241.3969"/></g><!--class Item--><g class="entity" data-entity="Item" data-source-line="57" data-uid="ent0008" id="entity_Item"><rect fill="#F1F1F1" height="162.0781" rx="2.5" ry="2.5" style="stroke:#181818;stroke-width:0.5;" width="155.1035" x="828.61" y="1144.3569"/><ellipse cx="885.9772" cy="1160.3569" fill="#ADD1B2" rx="11" ry="11" style="stroke:#181818;stroke-width:1;"/><path d="M888.9459,1165.9975 Q888.3678,1166.2944 887.7272,1166.435 Q887.0866,1166.5913 886.3834,1166.5913 Q883.8834,1166.5913 882.5553,1164.9506 Q881.2428,1163.2944 881.2428,1160.1694 Q881.2428,1157.0444 882.5553,1155.3881 Q883.8834,1153.7319 886.3834,1153.7319 Q887.0866,1153.7319 887.7272,1153.8881 Q888.3834,1154.0444 888.9459,1154.3413 L888.9459,1157.06 Q888.3209,1156.4819 887.7272,1156.2163 Q887.1334,1155.935 886.5084,1155.935 Q885.1647,1155.935 884.4772,1157.0131 Q883.7897,1158.0756 883.7897,1160.1694 Q883.7897,1162.2631 884.4772,1163.3413 Q885.1647,1164.4038 886.5084,1164.4038 Q887.1334,1164.4038 887.7272,1164.1381 Q888.3209,1163.8569 888.9459,1163.2788 L888.9459,1165.9975 Z " fill="#000000"/><text fill="#000000" font-family="sans-serif" font-size="14" lengthAdjust="spacing" textLength="31.8691" x="906.4772" y="1165.2036">Item</text><line style="stroke:#181818;stroke-width:0.5;" x1="829.61" x2="982.7135" y1="1176.3569" y2="1176.3569"/><text fill="#000000" font-family="sans-serif" font-size="14" lengthAdjust="spacing" textLength="84.7246" x="834.61" y="1193.352">-sku : String</text><text fill="#000000" font-family="sans-serif" font-size="14" lengthAdjust="spacing" textLength="100.1533" x="834.61" y="1209.6489">-name : String</text><text fill="#000000" font-family="sans-serif" font-size="14" lengthAdjust="spacing" textLength="122.3223" x="834.61" y="1225.9457">-category : String</text><text fill="#000000" font-family="sans-serif" font-size="14" lengthAdjust="spacing" textLength="87.5752" x="834.61" y="1242.2426">-unit : String</text><text fill="#000000" font-family="sans-serif" font-size="14" lengthAdjust="spacing" textLength="118.248" x="834.61" y="1258.5395">-volume : double</text><text fill="#000000" font-family="sans-serif" font-size="14" lengthAdjust="spacing" textLength="143.1035" x="834.61" y="1274.8364">-unitWeight : double</text><line style="stroke:#181818;stroke-width:0.5;" x1="829.61" x2="982.7135" y1="1282.1381" y2="1282.1381"/><text fill="#000000" font-family="sans-serif" font-size="14" lengthAdjust="spacing" textLength="126.9092" x="834.61" y="1299.1332">+getSku() : String</text></g><!--class Wagon--><g class="entity" data-entity="Wagon" data-source-line="67" data-uid="ent0009" id="entity_Wagon"><rect fill="#F1F1F1" height="243.5625" rx="2.5" ry="2.5" style="stroke:#181818;stroke-width:0.5;" width="325.2021" x="468.56" y="1103.6069"/><ellipse cx="602.5375" cy="1119.6069" fill="#ADD1B2" rx="11" ry="11" style="stroke:#181818;stroke-width:1;"/><path d="M605.5063,1125.2475 Q604.9282,1125.5444 604.2875,1125.685 Q603.6469,1125.8413 602.9438,1125.8413 Q600.4438,1125.8413 599.1157,1124.2006 Q597.8032,1122.5444 597.8032,1119.4194 Q597.8032,1116.2944 599.1157,1114.6381 Q600.4438,1112.9819 602.9438,1112.9819 Q603.6469,1112.9819 604.2875,1113.1381 Q604.9438,1113.2944 605.5063,1113.5913 L605.5063,1116.31 Q604.8813,1115.7319 604.2875,1115.4663 Q603.6938,1115.185 603.0688,1115.185 Q601.725,1115.185 601.0375,1116.2631 Q600.35,1117.3256 600.35,1119.4194 Q600.35,1121.5131 601.0375,1122.5913 Q601.725,1123.6538 603.0688,1123.6538 Q603.6938,1123.6538 604.2875,1123.3881 Q604.8813,1123.1069 605.5063,1122.5288 L605.5063,1125.2475 Z " fill="#000000"/><text fill="#000000" font-family="sans-serif" font-size="14" lengthAdjust="spacing" textLength="48.7471" x="623.0375" y="1124.4536">Wagon</text><line style="stroke:#181818;stroke-width:0.5;" x1="469.56" x2="792.7621" y1="1135.6069" y2="1135.6069"/><text fill="#000000" font-family="sans-serif" font-size="14" lengthAdjust="spacing" textLength="119.8203" x="474.56" y="1152.602">-wagonId : String</text><text fill="#000000" font-family="sans-serif" font-size="14" lengthAdjust="spacing" textLength="99.2031" x="474.56" y="1168.8989">-boxId : String</text><text fill="#000000" font-family="sans-serif" font-size="14" lengthAdjust="spacing" textLength="84.7246" x="474.56" y="1185.1957">-sku : String</text><text fill="#000000" font-family="sans-serif" font-size="14" lengthAdjust="spacing" textLength="95.2861" x="474.56" y="1201.4926">-quantity : int</text><text fill="#000000" font-family="sans-serif" font-size="14" lengthAdjust="spacing" textLength="137.6279" x="474.56" y="1217.7895">-expiryDate : String</text><text fill="#000000" font-family="sans-serif" font-size="14" lengthAdjust="spacing" textLength="268.6387" x="474.56" y="1234.0864">-receivedAt : java.time.LocalDateTime</text><line style="stroke:#181818;stroke-width:0.5;" x1="469.56" x2="792.7621" y1="1241.3881" y2="1241.3881"/><text fill="#000000" font-family="sans-serif" font-size="14" lengthAdjust="spacing" textLength="162.8047" x="474.56" y="1258.3832">+getWagonId() : String</text><text fill="#000000" font-family="sans-serif" font-size="14" lengthAdjust="spacing" textLength="140.5127" x="474.56" y="1274.6801">+getBoxId() : String</text><text fill="#000000" font-family="sans-serif" font-size="14" lengthAdjust="spacing" textLength="126.9092" x="474.56" y="1290.977">+getSku() : String</text><text fill="#000000" font-family="sans-serif" font-size="14" lengthAdjust="spacing" textLength="138.0107" x="474.56" y="1307.2739">+getQuantity() : int</text><text fill="#000000" font-family="sans-serif" font-size="14" lengthAdjust="spacing" textLength="178.4521" x="474.56" y="1323.5707">+getExpiryDate() : String</text><text fill="#000000" font-family="sans-serif" font-size="14" lengthAdjust="spacing" textLength="313.2021" x="474.56" y="1339.8676">+getReceivedAt() : java.time.LocalDateTime</text></g><!--class UnloadWagonsService--><g class="entity" data-entity="UnloadWagonsService" data-source-line="84" data-uid="ent0011" id="entity_UnloadWagonsService"><rect fill="#F1F1F1" height="64.2969" rx="2.5" ry="2.5" style="stroke:#181818;stroke-width:0.5;" width="345.9971" x="299.16" y="504.6769"/><ellipse cx="389.4969" cy="520.6769" fill="#ADD1B2" rx="11" ry="11" style="stroke:#181818;stroke-width:1;"/><path d="M392.4657,526.3175 Q391.8875,526.6144 391.2469,526.755 Q390.6063,526.9113 389.9032,526.9113 Q387.4032,526.9113 386.075,525.2706 Q384.7625,523.6144 384.7625,520.4894 Q384.7625,517.3644 386.075,515.7081 Q387.4032,514.0519 389.9032,514.0519 Q390.6063,514.0519 391.2469,514.2081 Q391.9032,514.3644 392.4657,514.6613 L392.4657,517.38 Q391.8407,516.8019 391.2469,516.5363 Q390.6532,516.255 390.0282,516.255 Q388.6844,516.255 387.9969,517.3331 Q387.3094,518.3956 387.3094,520.4894 Q387.3094,522.5831 387.9969,523.6613 Q388.6844,524.7238 390.0282,524.7238 Q390.6532,524.7238 391.2469,524.4581 Q391.8407,524.1769 392.4657,523.5988 L392.4657,526.3175 Z " fill="#000000"/><text fill="#000000" font-family="sans-serif" font-size="14" lengthAdjust="spacing" textLength="156.8232" x="409.9969" y="525.5236">UnloadWagonsService</text><line style="stroke:#181818;stroke-width:0.5;" x1="300.16" x2="644.1571" y1="536.6769" y2="536.6769"/><line style="stroke:#181818;stroke-width:0.5;" x1="300.16" x2="644.1571" y1="544.6769" y2="544.6769"/><text fill="#000000" font-family="sans-serif" font-size="14" lengthAdjust="spacing" textLength="333.9971" x="305.16" y="561.672">+unload(warehouse:Warehouse) : List&lt;String&gt;</text></g><!--class UnloadWagonsController--><g class="entity" data-entity="UnloadWagonsController" data-source-line="90" data-uid="ent0013" id="entity_UnloadWagonsController"><rect fill="#F1F1F1" height="113.1875" rx="2.5" ry="2.5" style="stroke:#181818;stroke-width:0.5;" width="369.2529" x="468.54" y="291.4869"/><ellipse cx="561.789" cy="307.4869" fill="#ADD1B2" rx="11" ry="11" style="stroke:#181818;stroke-width:1;"/><path d="M564.7578,313.1275 Q564.1796,313.4244 563.539,313.565 Q562.8984,313.7213 562.1953,313.7213 Q559.6953,313.7213 558.3671,312.0806 Q557.0546,310.4244 557.0546,307.2994 Q557.0546,304.1744 558.3671,302.5181 Q559.6953,300.8619 562.1953,300.8619 Q562.8984,300.8619 563.539,301.0181 Q564.1953,301.1744 564.7578,301.4713 L564.7578,304.19 Q564.1328,303.6119 563.539,303.3463 Q562.9453,303.065 562.3203,303.065 Q560.9765,303.065 560.289,304.1431 Q559.6015,305.2056 559.6015,307.2994 Q559.6015,309.3931 560.289,310.4713 Q560.9765,311.5338 562.3203,311.5338 Q562.9453,311.5338 563.539,311.2681 Q564.1328,310.9869 564.7578,310.4088 L564.7578,313.1275 Z " fill="#000000"/><text fill="#000000" font-family="sans-serif" font-size="14" lengthAdjust="spacing" textLength="174.2549" x="582.289" y="312.3336">UnloadWagonsController</text><line style="stroke:#181818;stroke-width:0.5;" x1="469.54" x2="836.7929" y1="323.4869" y2="323.4869"/><text fill="#000000" font-family="sans-serif" font-size="14" lengthAdjust="spacing" textLength="174.2959" x="474.54" y="340.482">-warehouse : Warehouse</text><text fill="#000000" font-family="sans-serif" font-size="14" lengthAdjust="spacing" textLength="225.6406" x="474.54" y="356.7789">-service : UnloadWagonsService</text><line style="stroke:#181818;stroke-width:0.5;" x1="469.54" x2="836.7929" y1="364.0806" y2="364.0806"/><text fill="#000000" font-family="sans-serif" font-size="14" lengthAdjust="spacing" textLength="357.2529" x="474.54" y="381.0757">+UnloadWagonsController(warehouse:Warehouse)</text><text fill="#000000" font-family="sans-serif" font-size="14" lengthAdjust="spacing" textLength="229.6943" x="474.54" y="397.3726">+unloadWagons() : List&lt;String&gt;</text></g><!--class UnloadWagonsUI--><g class="entity" data-entity="UnloadWagonsUI" data-source-line="99" data-uid="ent0015" id="entity_UnloadWagonsUI"><rect fill="#F1F1F1" height="113.1875" rx="2.5" ry="2.5" style="stroke:#181818;stroke-width:0.5;" width="314.4561" x="495.93" y="78.2969"/><ellipse cx="589.179" cy="94.2969" fill="#ADD1B2" rx="11" ry="11" style="stroke:#181818;stroke-width:1;"/><path d="M592.1478,99.9375 Q591.5696,100.2344 590.929,100.375 Q590.2884,100.5313 589.5853,100.5313 Q587.0853,100.5313 585.7571,98.8906 Q584.4446,97.2344 584.4446,94.1094 Q584.4446,90.9844 585.7571,89.3281 Q587.0853,87.6719 589.5853,87.6719 Q590.2884,87.6719 590.929,87.8281 Q591.5853,87.9844 592.1478,88.2813 L592.1478,91 Q591.5228,90.4219 590.929,90.1563 Q590.3353,89.875 589.7103,89.875 Q588.3665,89.875 587.679,90.9531 Q586.9915,92.0156 586.9915,94.1094 Q586.9915,96.2031 587.679,97.2813 Q588.3665,98.3438 589.7103,98.3438 Q590.3353,98.3438 590.929,98.0781 Q591.5228,97.7969 592.1478,97.2188 L592.1478,99.9375 Z " fill="#000000"/><text fill="#000000" font-family="sans-serif" font-size="14" lengthAdjust="spacing" textLength="119.458" x="609.679" y="99.1436">UnloadWagonsUI</text><line style="stroke:#181818;stroke-width:0.5;" x1="496.93" x2="809.3861" y1="110.2969" y2="110.2969"/><text fill="#000000" font-family="sans-serif" font-size="14" lengthAdjust="spacing" textLength="174.2959" x="501.93" y="127.292">-warehouse : Warehouse</text><text fill="#000000" font-family="sans-serif" font-size="14" lengthAdjust="spacing" textLength="260.0186" x="501.93" y="143.5889">-controller : UnloadWagonsController</text><line style="stroke:#181818;stroke-width:0.5;" x1="496.93" x2="809.3861" y1="150.8906" y2="150.8906"/><text fill="#000000" font-family="sans-serif" font-size="14" lengthAdjust="spacing" textLength="302.4561" x="501.93" y="167.8857">+UnloadWagonsUI(warehouse:Warehouse)</text><text fill="#000000" font-family="sans-serif" font-size="14" lengthAdjust="spacing" textLength="89.4004" x="501.93" y="184.1826">+run() : void</text></g><g class="entity" data-entity="GMN27" data-source-line="121" data-uid="ent0028" id="entity_GMN27"><path d="M1167.9,1509.8269 L1167.9,1525.9569 L843.18,1529.9569 L1167.9,1533.9569 L1167.9,1550.0925 A0,0 0 0 0 1167.9,1550.0925 L1318.4239,1550.0925 A0,0 0 0 0 1318.4239,1550.0925 L1318.4239,1519.8269 L1308.4239,1509.8269 L1167.9,1509.8269 A0,0 0 0 0 1167.9,1509.8269" fill="#FEFFDD" style="stroke:#181818;stroke-width:0.5;"/><path d="M1308.4239,1509.8269 L1308.4239,1519.8269 L1318.4239,1519.8269 L1308.4239,1509.8269" fill="#FEFFDD" style="stroke:#181818;stroke-width:0.5;"/><text fill="#000000" font-family="sans-serif" font-size="13" lengthAdjust="spacing" textLength="129.5239" x="1173.9" y="1526.8938">FEFO on expiryDate</text><text fill="#000000" font-family="sans-serif" font-size="13" lengthAdjust="spacing" textLength="123.5127" x="1173.9" y="1542.0266">FIFO on receivedAt</text></g><!--reverse link Comparable to Box--><g class="link" data-entity-1="Comparable" data-entity-2="Box" data-source-line="43" data-uid="lnk7" id="link_Comparable_Box"><path d="M1059.0813,1265.9189 C1046.5513,1292.1489 1031.09,1318.6069 1001.16,1347.1769 C955.42,1390.8469 897.2,1427.8769 842.94,1456.8869" fill="none" id="Comparable-backto-Box" style="stroke:#181818;stroke-width:1;stroke-dasharray:7,7;"/><polygon fill="none" points="1066.84,1249.6769,1053.6673,1263.3326,1064.4952,1268.5051,1066.84,1249.6769" style="stroke:#181818;stroke-width:1;"/></g><!--reverse link Warehouse to Bay--><g class="link" data-entity-1="Warehouse" data-entity-2="Bay" data-source-line="107" data-uid="lnk16" id="link_Warehouse_Bay"><path codeLine="107" d="M566.9536,1011.4212 C557.9236,1019.2912 557.99,1019.1369 549.16,1026.6069 C506.89,1062.4069 492.54,1066.7869 451.16,1103.6069 C445.53,1108.6269 439.83,1113.8369 434.13,1119.1569" fill="none" id="Warehouse-backto-Bay" style="stroke:#181818;stroke-width:1;"/><polygon fill="none" points="576,1003.5369,568.8487,1004.4636,566.9536,1011.4212,574.1049,1010.4945,576,1003.5369" style="stroke:#181818;stroke-width:1;"/><text fill="#000000" font-family="sans-serif" font-size="13" lengthAdjust="spacing" textLength="8.271" x="560.2052" y="1007.3243">1</text><text fill="#000000" font-family="sans-serif" font-size="13" lengthAdjust="spacing" textLength="36.5625" x="423.8469" y="1096.8612">many</text></g><!--reverse link Warehouse to Item--><g class="link" data-entity-1="Warehouse" data-entity-2="Item" data-source-line="108" data-uid="lnk17" id="link_Warehouse_Item"><path codeLine="108" d="M825.7623,1037.9858 C843.4923,1079.0958 856.74,1109.8069 871.59,1144.2369" fill="none" id="Warehouse-backto-Item" style="stroke:#181818;stroke-width:1;"/><polygon fill="none" points="821.01,1026.9669,819.7132,1034.0604,825.7623,1037.9858,827.0591,1030.8922,821.01,1026.9669" style="stroke:#181818;stroke-width:1;"/><text fill="#000000" font-family="sans-serif" font-size="13" lengthAdjust="spacing" textLength="8.271" x="816.0892" y="1046.9121">1</text><text fill="#000000" font-family="sans-serif" font-size="13" lengthAdjust="spacing" textLength="36.5625" x="830.9329" y="1133.4135">many</text></g><!--reverse link Warehouse to Wagon--><g class="link" data-entity-1="Warehouse" data-entity-2="Wagon" data-source-line="109" data-uid="lnk18" id="link_Warehouse_Wagon"><path codeLine="109" d="M687.1029,1038.4581 C679.3229,1064.3181 674.92,1078.9269 667.59,1103.3069" fill="none" id="Warehouse-backto-Wagon" style="stroke:#181818;stroke-width:1;"/><polygon fill="none" points="690.56,1026.9669,685.001,1031.5601,687.1029,1038.4581,692.6618,1033.8649,690.56,1026.9669" style="stroke:#181818;stroke-width:1;"/><text fill="#000000" font-family="sans-serif" font-size="13" lengthAdjust="spacing" textLength="8.271" x="680.1358" y="1046.9121">1</text><text fill="#000000" font-family="sans-serif" font-size="13" lengthAdjust="spacing" textLength="36.5625" x="632.7302" y="1092.4815">many</text></g><!--reverse link Bay to Box--><g class="link" data-entity-1="Bay" data-entity-2="Box" data-source-line="110" data-uid="lnk19" id="link_Bay_Box"><path codeLine="110" d="M442.9178,1339.8006 C448.6078,1345.1306 445.54,1342.1469 451.16,1347.1769 C473.77,1367.3969 498.29,1388.0769 522.62,1407.9069" fill="none" id="Bay-backto-Box" style="stroke:#181818;stroke-width:1;"/><polygon fill="none" points="434.16,1331.5969,435.8043,1338.618,442.9178,1339.8006,441.2735,1332.7795,434.16,1331.5969" style="stroke:#181818;stroke-width:1;"/><text fill="#000000" font-family="sans-serif" font-size="13" lengthAdjust="spacing" textLength="8.271" x="441.6927" y="1335.6088">1</text><text fill="#000000" font-family="sans-serif" font-size="13" lengthAdjust="spacing" textLength="36.5625" x="475.9401" y="1397.0833">many</text></g><!--link UnloadWagonsController to UnloadWagonsService--><g class="link" data-entity-1="UnloadWagonsController" data-entity-2="UnloadWagonsService" data-source-line="112" data-uid="lnk20" id="link_UnloadWagonsController_UnloadWagonsService"><path codeLine="112" d="M598.86,405.1069 C567.41,437.5569 533.1553,472.8879 506.9253,499.9579" fill="none" id="UnloadWagonsController-to-UnloadWagonsService" style="stroke:#181818;stroke-width:1;stroke-dasharray:7,7;"/><polygon fill="#181818" points="502.75,504.2669,511.8855,500.5869,506.2294,500.6761,506.1402,495.0199,502.75,504.2669" style="stroke:#181818;stroke-width:1;"/><text fill="#000000" font-family="sans-serif" font-size="13" lengthAdjust="spacing" textLength="29.7832" x="568.16" y="449.7438">uses</text></g><!--link UnloadWagonsController to Warehouse--><g class="link" data-entity-1="UnloadWagonsController" data-entity-2="Warehouse" data-source-line="113" data-uid="lnk21" id="link_UnloadWagonsController_Warehouse"><path codeLine="113" d="M663.34,404.7269 C674.97,468.3269 693.5108,569.7647 710.5108,662.7347" fill="none" id="UnloadWagonsController-to-Warehouse" style="stroke:#181818;stroke-width:1;"/><polygon fill="#181818" points="711.59,668.6369,713.9059,659.0642,710.6906,663.7184,706.0364,660.5032,711.59,668.6369" style="stroke:#181818;stroke-width:1;"/></g><!--link UnloadWagonsUI to UnloadWagonsController--><g class="link" data-entity-1="UnloadWagonsUI" data-entity-2="UnloadWagonsController" data-source-line="114" data-uid="lnk22" id="link_UnloadWagonsUI_UnloadWagonsController"><path codeLine="114" d="M653.16,191.9369 C653.16,222.6069 653.16,254.4869 653.16,285.1469" fill="none" id="UnloadWagonsUI-to-UnloadWagonsController" style="stroke:#181818;stroke-width:1;stroke-dasharray:7,7;"/><polygon fill="#181818" points="653.16,291.1469,657.16,282.1469,653.16,286.1469,649.16,282.1469,653.16,291.1469" style="stroke:#181818;stroke-width:1;"/><text fill="#000000" font-family="sans-serif" font-size="13" lengthAdjust="spacing" textLength="29.7832" x="654.16" y="236.5538">uses</text></g><!--link UnloadWagonsService to Warehouse--><g class="link" data-entity-1="UnloadWagonsService" data-entity-2="Warehouse" data-source-line="115" data-uid="lnk23" id="link_UnloadWagonsService_Warehouse"><path codeLine="115" d="M499.99,569.4369 C521.66,594.0469 549.6552,625.8535 583.3752,664.1535" fill="none" id="UnloadWagonsService-to-Warehouse" style="stroke:#181818;stroke-width:1;stroke-dasharray:7,7;"/><polygon fill="#181818" points="587.34,668.6569,584.395,659.2586,584.036,664.9041,578.3905,664.5451,587.34,668.6569" style="stroke:#181818;stroke-width:1;"/><text fill="#000000" font-family="sans-serif" font-size="13" lengthAdjust="spacing" textLength="80.1709" x="538.16" y="614.0338">reads/writes</text></g><!--link UnloadWagonsService to Bay--><g class="link" data-entity-1="UnloadWagonsService" data-entity-2="Bay" data-source-line="116" data-uid="lnk24" id="link_UnloadWagonsService_Bay"><path codeLine="116" d="M419.29,569.4369 C399.73,584.0369 379.56,603.2269 368.16,625.9669 C326.93,708.2069 324.8895,956.1479 327.6395,1105.4979" fill="none" id="UnloadWagonsService-to-Bay" style="stroke:#181818;stroke-width:1;stroke-dasharray:7,7;"/><polygon fill="#181818" points="327.75,1111.4969,331.5836,1102.4248,327.6579,1106.4977,323.585,1102.572,327.75,1111.4969" style="stroke:#181818;stroke-width:1;"/><text fill="#000000" font-family="sans-serif" font-size="13" lengthAdjust="spacing" textLength="59.1792" x="369.16" y="852.3538">addBox()</text></g><!--link UnloadWagonsService to Box--><g class="link" data-entity-1="UnloadWagonsService" data-entity-2="Box" data-source-line="117" data-uid="lnk25" id="link_UnloadWagonsService_Box"><path codeLine="117" d="M393.13,569.3969 C366.32,583.3669 338.14,602.1169 318.16,625.9669 C110.11,874.3969 6,1096.3469 211.16,1347.1769 C286.35,1439.1069 408.1581,1483.3772 511.3181,1505.8972" fill="none" id="UnloadWagonsService-to-Box" style="stroke:#181818;stroke-width:1;stroke-dasharray:7,7;"/><polygon fill="#181818" points="517.18,1507.1769,509.2402,1501.3494,512.295,1506.1105,507.534,1509.1653,517.18,1507.1769" style="stroke:#181818;stroke-width:1;"/><text fill="#000000" font-family="sans-serif" font-size="13" lengthAdjust="spacing" textLength="152.1787" x="101.16" y="1069.6738">create/sort (FEFO/FIFO)</text></g><!--link UnloadWagonsService to Wagon--><g class="link" data-entity-1="UnloadWagonsService" data-entity-2="Wagon" data-source-line="118" data-uid="lnk26" id="link_UnloadWagonsService_Wagon"><path codeLine="118" d="M467.26,569.2469 C456.16,648.5569 434.21,862.2169 490.16,1026.6069 C499.2,1053.1569 509.794,1074.2172 525.364,1098.3172" fill="none" id="UnloadWagonsService-to-Wagon" style="stroke:#181818;stroke-width:1;stroke-dasharray:7,7;"/><polygon fill="#181818" points="528.62,1103.3569,527.0959,1093.6267,525.9067,1099.1571,520.3763,1097.9679,528.62,1103.3569" style="stroke:#181818;stroke-width:1;"/><text fill="#000000" font-family="sans-serif" font-size="13" lengthAdjust="spacing" textLength="67.1328" x="491.16" y="852.3538">read input</text></g><!--SRC=[pLPBRzim3BxxLmWvEUYIjbSX2D1c3M2WMx6cGSwAhQLQR2cLv3mszB-FaloGNyKEFUnIr_neykCdYencEgLelRgvHHEqvgaW2TgGdU0g2DIUyGEH94DnIfIwqrgoRQvf50k-OhyfkWc20udtP4VHA14PONo4_WJ8kKCOILz5hgYr8OY_9HU5C7faIi_koMLUc9ccMMMFuAK4JfP8YLXQ9IIfpcMDFTlNAY0_Kgw5lDnVLliSVBwHmsm5xFdkIv5TdEVE-mhjgBvBK-2Zmd67dOKD9m-iALhKoLN37a-BFyc4IW-txnxkk7iEVZ5NY2G9i0ct6FwEQviX4J9i7fxLvWvFs3uzkyqP2coVdjsb2YLs_vI8ejhgOGuCLuAKAEC9FKUbnfRtKR2ahWZKfMef98WVgdsEdVIrk21-ozaUb8qqU5JlGTLPGARggLFPPL42Nxil2uWm1RsDWQ-k6_1xdcsfR5XZ0btCzCKoQVeNbXxQcpglvUrbTYrbabka3EUgBHcqe5UY5WKDYso5I2dXNW-8SmXqC3m710_R0lkAYJDYsI6b6HoQGWkHcOkzJQdrhI-eE7TbLFOADKnlEU4Qg3R4ekS3avUlHDEskwGnPKUQt6b0Vf4ZcMgMqUcZY4bg_5_WhL7CWAPbZxJjFmewBKsLXxnXi7U5UwWuzmP-heXR-6FgiHMLlWYuPyKfGKw4PhFbm_BfUXajdzgDR6vl9NwFpfna7J5ZoBg3UzUsvvpfjkqeqjn6I4GEX-rvRYZRlUecqg-nHzTE5U_cmLktNVwB7jeuRhs7-cdzzOdzynwyUxjKKNbaCLN-DdMxsUsQbSEBaxY20pLOM8r2N0sdQYGuPlDEAbZbMeeqXGqrb6rHkNI7BeIlSfL7NP33VPGBmltXUmjebDXUjKDLvMoec7NqJqNKihJggDdsbBAEFYf1vjpVbPPn_HjfT3j2OZ91eupmoyYik67GZ8rXr789p8vinnJd81WusUbqtjjY6446DVJLP3Btf6lft0wvy3NjH2qJcgystib8IX9rVPBm8t7u0rCiBhVaUDWDjY16COJKz5e9gL5OZURn1spCr7DCuFOVSXq4NC24adQ4YfzMM8HCA0IUzGmpniWPw_4LK9uWy_rV]--></g></svg>