<svg xmlns="http://www.w3.org/2000/svg" xmlns:xlink="http://www.w3.org/1999/xlink" contentStyleType="text/css" data-diagram-type="SEQUENCE" height="973px" preserveAspectRatio="none" style="width:1019px;height:973px;background:#FFFFFF;" version="1.1" viewBox="0 0 1019 973" width="1019px" zoomAndPan="magnify"><title>US11 - System Sequence Diagram</title><defs/><g><text fill="#000000" font-family="sans-serif" font-size="14" font-weight="bold" lengthAdjust="spacing" textLength="268.208" x="377.1787" y="27.9951">US11 - System Sequence Diagram</text><rect fill="none" height="216.7344" style="stroke:#000000;stroke-width:1.5;" width="751.749" x="9" y="475.7891"/><g class="participant-lifeline" data-entity-uid="part1" data-qualified-name="Planner" id="part1-lifeline"><g><title>Infrastructure Planner</title><rect fill="#000000" fill-opacity="0.00000" height="773.9922" width="8" x="214.7915" y="118.5938"/><line style="stroke:#181818;stroke-width:0.5;stroke-dasharray:5,5;" x1="218" x2="218" y1="118.5938" y2="892.5859"/></g></g><g class="participant-lifeline" data-entity-uid="part2" data-qualified-name="System" id="part2-lifeline"><g><title>Railway Optimization System</title><rect fill="#000000" fill-opacity="0.00000" height="773.9922" width="8" x="570.3423" y="118.5938"/><line style="stroke:#181818;stroke-width:0.5;stroke-dasharray:5,5;" x1="573.8101" x2="573.8101" y1="118.5938" y2="892.5859"/></g></g><g class="participant participant-head" data-entity-uid="part1" data-qualified-name="Planner" id="part1-head"><text fill="#000000" font-family="sans-serif" font-size="14" lengthAdjust="spacing" textLength="153.583" x="139" y="115.292">Infrastructure Planner</text><ellipse cx="218.7915" cy="50.7969" fill="#E2E2F0" rx="8" ry="8" style="stroke:#181818;stroke-width:0.5;"/><path d="M218.7915,58.7969 L218.7915,85.7969 M205.7915,66.7969 L231.7915,66.7969 M218.7915,85.7969 L205.7915,100.7969 M218.7915,85.7969 L231.7915,100.7969" fill="none" style="stroke:#181818;stroke-width:0.5;"/></g><g class="participant participant-tail" data-entity-uid="part1" data-qualified-name="Planner" id="part1-tail"><text fill="#000000" font-family="sans-serif" font-size="14" lengthAdjust="spacing" textLength="153.583" x="139" y="904.5811">Infrastructure Planner</text><ellipse cx="218.7915" cy="916.3828" fill="#E2E2F0" rx="8" ry="8" style="stroke:#181818;stroke-width:0.5;"/><path d="M218.7915,924.3828 L218.7915,951.3828 M205.7915,932.3828 L231.7915,932.3828 M218.7915,951.3828 L205.7915,966.3828 M218.7915,951.3828 L231.7915,966.3828" fill="none" style="stroke:#181818;stroke-width:0.5;"/></g><g class="participant participant-head" data-entity-uid="part2" data-qualified-name="System" id="part2-head"><rect fill="#E2E2F0" height="30.2969" rx="2.5" ry="2.5" style="stroke:#181818;stroke-width:0.5;" width="219.0645" x="464.8101" y="87.2969"/><text fill="#000000" font-family="sans-serif" font-size="14" lengthAdjust="spacing" textLength="205.0645" x="471.8101" y="107.292">Railway Optimization System</text></g><g class="participant participant-tail" data-entity-uid="part2" data-qualified-name="System" id="part2-tail"><rect fill="#E2E2F0" height="30.2969" rx="2.5" ry="2.5" style="stroke:#181818;stroke-width:0.5;" width="219.0645" x="464.8101" y="891.5859"/><text fill="#000000" font-family="sans-serif" font-size="14" lengthAdjust="spacing" textLength="205.0645" x="471.8101" y="911.5811">Railway Optimization System</text></g><g class="message" data-entity-1="part1" data-entity-2="part2" id="msg1"><polygon fill="#181818" points="562.3423,145.7266,572.3423,149.7266,562.3423,153.7266,566.3423,149.7266" style="stroke:#181818;stroke-width:1;"/><line style="stroke:#181818;stroke-width:1;" x1="218.7915" x2="568.3423" y1="149.7266" y2="149.7266"/><text fill="#000000" font-family="sans-serif" font-size="13" lengthAdjust="spacing" textLength="314.0884" x="225.7915" y="144.6606">Select "Import Railway Network (CSV to Graph)"</text></g><g class="message" data-entity-1="part2" data-entity-2="part2" id="msg2"><line style="stroke:#181818;stroke-width:1;" x1="574.3423" x2="616.3423" y1="178.8594" y2="178.8594"/><line style="stroke:#181818;stroke-width:1;" x1="616.3423" x2="616.3423" y1="178.8594" y2="191.8594"/><line style="stroke:#181818;stroke-width:1;" x1="575.3423" x2="616.3423" y1="191.8594" y2="191.8594"/><polygon fill="#181818" points="585.3423,187.8594,575.3423,191.8594,585.3423,195.8594,581.3423,191.8594" style="stroke:#181818;stroke-width:1;"/><text fill="#000000" font-family="sans-serif" font-size="13" lengthAdjust="spacing" textLength="177.8486" x="581.3423" y="173.7935">Read stations from CSV file</text></g><g class="message" data-entity-1="part2" data-entity-2="part2" id="msg3"><line style="stroke:#181818;stroke-width:1;" x1="574.3423" x2="616.3423" y1="220.9922" y2="220.9922"/><line style="stroke:#181818;stroke-width:1;" x1="616.3423" x2="616.3423" y1="220.9922" y2="233.9922"/><line style="stroke:#181818;stroke-width:1;" x1="575.3423" x2="616.3423" y1="233.9922" y2="233.9922"/><polygon fill="#181818" points="585.3423,229.9922,575.3423,233.9922,585.3423,237.9922,581.3423,233.9922" style="stroke:#181818;stroke-width:1;"/><text fill="#000000" font-family="sans-serif" font-size="13" lengthAdjust="spacing" textLength="207.5303" x="581.3423" y="215.9263">Read railway lines from CSV file</text></g><g class="message" data-entity-1="part2" data-entity-2="part2" id="msg4"><line style="stroke:#181818;stroke-width:1;" x1="574.3423" x2="616.3423" y1="263.125" y2="263.125"/><line style="stroke:#181818;stroke-width:1;" x1="616.3423" x2="616.3423" y1="263.125" y2="276.125"/><line style="stroke:#181818;stroke-width:1;" x1="575.3423" x2="616.3423" y1="276.125" y2="276.125"/><polygon fill="#181818" points="585.3423,272.125,575.3423,276.125,585.3423,280.125,581.3423,276.125" style="stroke:#181818;stroke-width:1;"/><text fill="#000000" font-family="sans-serif" font-size="13" lengthAdjust="spacing" textLength="196.0664" x="581.3423" y="258.0591">Build directed graph structure</text></g><g class="message" data-entity-1="part2" data-entity-2="part1" id="msg5"><polygon fill="#181818" points="229.7915,301.2578,219.7915,305.2578,229.7915,309.2578,225.7915,305.2578" style="stroke:#181818;stroke-width:1;"/><line style="stroke:#181818;stroke-width:1;stroke-dasharray:2,2;" x1="223.7915" x2="573.3423" y1="305.2578" y2="305.2578"/><text fill="#000000" font-family="sans-serif" font-size="13" lengthAdjust="spacing" textLength="158.0186" x="235.7915" y="300.1919">Graph loaded and ready</text></g><g class="message" data-entity-1="part1" data-entity-2="part2" id="msg6"><polygon fill="#181818" points="562.3423,330.3906,572.3423,334.3906,562.3423,338.3906,566.3423,334.3906" style="stroke:#181818;stroke-width:1;"/><line style="stroke:#181818;stroke-width:1;" x1="218.7915" x2="568.3423" y1="334.3906" y2="334.3906"/><text fill="#000000" font-family="sans-serif" font-size="13" lengthAdjust="spacing" textLength="282.9658" x="225.7915" y="329.3247">Select "Directed Line Upgrade Plan (US11)"</text></g><g class="message" data-entity-1="part2" data-entity-2="part2" id="msg7"><line style="stroke:#181818;stroke-width:1;" x1="574.3423" x2="616.3423" y1="363.5234" y2="363.5234"/><line style="stroke:#181818;stroke-width:1;" x1="616.3423" x2="616.3423" y1="363.5234" y2="376.5234"/><line style="stroke:#181818;stroke-width:1;" x1="575.3423" x2="616.3423" y1="376.5234" y2="376.5234"/><polygon fill="#181818" points="585.3423,372.5234,575.3423,376.5234,585.3423,380.5234,581.3423,376.5234" style="stroke:#181818;stroke-width:1;"/><text fill="#000000" font-family="sans-serif" font-size="13" lengthAdjust="spacing" textLength="234.7046" x="581.3423" y="358.4575">Execute Directed Line Upgrade Plan</text></g><g class="message" data-entity-1="part2" data-entity-2="part2" id="msg8"><line style="stroke:#181818;stroke-width:1;" x1="574.3423" x2="616.3423" y1="405.6563" y2="405.6563"/><line style="stroke:#181818;stroke-width:1;" x1="616.3423" x2="616.3423" y1="405.6563" y2="418.6563"/><line style="stroke:#181818;stroke-width:1;" x1="575.3423" x2="616.3423" y1="418.6563" y2="418.6563"/><polygon fill="#181818" points="585.3423,414.6563,575.3423,418.6563,585.3423,422.6563,581.3423,418.6563" style="stroke:#181818;stroke-width:1;"/><text fill="#000000" font-family="sans-serif" font-size="13" lengthAdjust="spacing" textLength="154.4639" x="581.3423" y="400.5903">Initialize DFS structures</text></g><g class="message" data-entity-1="part2" data-entity-2="part2" id="msg9"><line style="stroke:#181818;stroke-width:1;" x1="574.3423" x2="616.3423" y1="447.7891" y2="447.7891"/><line style="stroke:#181818;stroke-width:1;" x1="616.3423" x2="616.3423" y1="447.7891" y2="460.7891"/><line style="stroke:#181818;stroke-width:1;" x1="575.3423" x2="616.3423" y1="460.7891" y2="460.7891"/><polygon fill="#181818" points="585.3423,456.7891,575.3423,460.7891,585.3423,464.7891,581.3423,460.7891" style="stroke:#181818;stroke-width:1;"/><text fill="#000000" font-family="sans-serif" font-size="13" lengthAdjust="spacing" textLength="155.0415" x="581.3423" y="442.7231">Traverse graph vertices</text></g><path d="M9,475.7891 L73.4429,475.7891 L73.4429,482.9219 L63.4429,492.9219 L9,492.9219 L9,475.7891" fill="#EEEEEE" style="stroke:#000000;stroke-width:1.5;"/><rect fill="none" height="216.7344" style="stroke:#000000;stroke-width:1.5;" width="751.749" x="9" y="475.7891"/><text fill="#000000" font-family="sans-serif" font-size="13" font-weight="bold" lengthAdjust="spacing" textLength="19.4429" x="24" y="488.856">alt</text><text fill="#000000" font-family="sans-serif" font-size="11" font-weight="bold" lengthAdjust="spacing" textLength="108.5928" x="88.4429" y="487.9995">[Cycles detected]</text><g class="message" data-entity-1="part2" data-entity-2="part2" id="msg10"><line style="stroke:#181818;stroke-width:1;" x1="574.3423" x2="616.3423" y1="514.0547" y2="514.0547"/><line style="stroke:#181818;stroke-width:1;" x1="616.3423" x2="616.3423" y1="514.0547" y2="527.0547"/><line style="stroke:#181818;stroke-width:1;" x1="575.3423" x2="616.3423" y1="527.0547" y2="527.0547"/><polygon fill="#181818" points="585.3423,523.0547,575.3423,527.0547,585.3423,531.0547,581.3423,527.0547" style="stroke:#181818;stroke-width:1;"/><text fill="#000000" font-family="sans-serif" font-size="13" lengthAdjust="spacing" textLength="139.9341" x="581.3423" y="508.9888">Extract cycle stations</text></g><g class="message" data-entity-1="part2" data-entity-2="part1" id="msg11"><polygon fill="#181818" points="229.7915,562.7539,219.7915,566.7539,229.7915,570.7539,225.7915,566.7539" style="stroke:#181818;stroke-width:1;"/><line style="stroke:#181818;stroke-width:1;stroke-dasharray:2,2;" x1="223.7915" x2="573.3423" y1="566.7539" y2="566.7539"/><text fill="#000000" font-family="sans-serif" font-size="13" lengthAdjust="spacing" textLength="154.394" x="235.7915" y="561.688">Display detected cycles</text></g><path d="M19,540.0547 L19,580.0547 L213,580.0547 L213,550.0547 L203,540.0547 L19,540.0547" fill="#FEFFDD" style="stroke:#181818;stroke-width:0.5;"/><path d="M203,540.0547 L203,550.0547 L213,550.0547 L203,540.0547" fill="#FEFFDD" style="stroke:#181818;stroke-width:0.5;"/><text fill="#000000" font-family="sans-serif" font-size="13" lengthAdjust="spacing" textLength="172.6626" x="25" y="557.1216">Stations involved in cycles</text><text fill="#000000" font-family="sans-serif" font-size="13" lengthAdjust="spacing" textLength="173.1958" x="25" y="572.2544">(cannot be safely ordered)</text><line style="stroke:#000000;stroke-width:1;stroke-dasharray:2,2;" x1="9" x2="760.749" y1="586.3203" y2="586.3203"/><text fill="#000000" font-family="sans-serif" font-size="11" font-weight="bold" lengthAdjust="spacing" textLength="125.3076" x="14" y="596.5308">[No cycles (Acyclic)]</text><g class="message" data-entity-1="part2" data-entity-2="part2" id="msg13"><line style="stroke:#181818;stroke-width:1;" x1="574.3423" x2="616.3423" y1="621.2578" y2="621.2578"/><line style="stroke:#181818;stroke-width:1;" x1="616.3423" x2="616.3423" y1="621.2578" y2="634.2578"/><line style="stroke:#181818;stroke-width:1;" x1="575.3423" x2="616.3423" y1="634.2578" y2="634.2578"/><polygon fill="#181818" points="585.3423,630.2578,575.3423,634.2578,585.3423,638.2578,581.3423,634.2578" style="stroke:#181818;stroke-width:1;"/><text fill="#000000" font-family="sans-serif" font-size="13" lengthAdjust="spacing" textLength="167.4067" x="581.3423" y="616.1919">Reverse topological order</text></g><g class="message" data-entity-1="part2" data-entity-2="part1" id="msg14"><polygon fill="#181818" points="229.7915,669.957,219.7915,673.957,229.7915,677.957,225.7915,673.957" style="stroke:#181818;stroke-width:1;"/><line style="stroke:#181818;stroke-width:1;stroke-dasharray:2,2;" x1="223.7915" x2="573.3423" y1="673.957" y2="673.957"/><text fill="#000000" font-family="sans-serif" font-size="13" lengthAdjust="spacing" textLength="145.3804" x="235.7915" y="668.8911">Display upgrade order</text></g><path d="M24,647.2578 L24,687.2578 L213,687.2578 L213,657.2578 L203,647.2578 L24,647.2578" fill="#FEFFDD" style="stroke:#181818;stroke-width:0.5;"/><path d="M203,647.2578 L203,657.2578 L213,657.2578 L203,647.2578" fill="#FEFFDD" style="stroke:#181818;stroke-width:0.5;"/><text fill="#000000" font-family="sans-serif" font-size="13" lengthAdjust="spacing" textLength="168.2764" x="30" y="664.3247">Ordered list of all stations</text><text fill="#000000" font-family="sans-serif" font-size="13" lengthAdjust="spacing" textLength="160.418" x="30" y="679.4575">(respects dependencies)</text><g class="message" data-entity-1="part2" data-entity-2="part1" id="msg16"><polygon fill="#181818" points="229.7915,716.6563,219.7915,720.6563,229.7915,724.6563,225.7915,720.6563" style="stroke:#181818;stroke-width:1;"/><line style="stroke:#181818;stroke-width:1;stroke-dasharray:2,2;" x1="223.7915" x2="573.3423" y1="720.6563" y2="720.6563"/><text fill="#000000" font-family="sans-serif" font-size="13" lengthAdjust="spacing" textLength="209.5869" x="235.7915" y="715.5903">Show time complexity: O(V + E)</text></g><g class="message" data-entity-1="part1" data-entity-2="part2" id="msg17"><polygon fill="#181818" points="562.3423,745.7891,572.3423,749.7891,562.3423,753.7891,566.3423,749.7891" style="stroke:#181818;stroke-width:1;"/><line style="stroke:#181818;stroke-width:1;" x1="218.7915" x2="568.3423" y1="749.7891" y2="749.7891"/><text fill="#000000" font-family="sans-serif" font-size="13" lengthAdjust="spacing" textLength="209.0093" x="225.7915" y="744.7231">Request graph export (optional)</text></g><g class="message" data-entity-1="part2" data-entity-2="part2" id="msg18"><line style="stroke:#181818;stroke-width:1;" x1="574.3423" x2="616.3423" y1="805.6875" y2="805.6875"/><line style="stroke:#181818;stroke-width:1;" x1="616.3423" x2="616.3423" y1="805.6875" y2="818.6875"/><line style="stroke:#181818;stroke-width:1;" x1="575.3423" x2="616.3423" y1="818.6875" y2="818.6875"/><polygon fill="#181818" points="585.3423,814.6875,575.3423,818.6875,585.3423,822.6875,581.3423,818.6875" style="stroke:#181818;stroke-width:1;"/><text fill="#000000" font-family="sans-serif" font-size="13" lengthAdjust="spacing" textLength="186.4941" x="581.3423" y="800.6216">Generate Graphviz (.dot) file</text></g><path d="M779.4941,762.7891 L779.4941,847.7891 L1012.4941,847.7891 L1012.4941,772.7891 L1002.4941,762.7891 L779.4941,762.7891" fill="#FEFFDD" style="stroke:#181818;stroke-width:0.5;"/><path d="M1002.4941,762.7891 L1002.4941,772.7891 L1012.4941,772.7891 L1002.4941,762.7891" fill="#FEFFDD" style="stroke:#181818;stroke-width:0.5;"/><text fill="#000000" font-family="sans-serif" font-size="13" lengthAdjust="spacing" textLength="167.9463" x="785.4941" y="779.856">Color-coded visualization:</text><text fill="#000000" font-family="sans-serif" font-size="13" lengthAdjust="spacing" textLength="156.0952" x="785.4941" y="794.9888">- Red: Stations in cycles</text><text fill="#000000" font-family="sans-serif" font-size="13" lengthAdjust="spacing" textLength="212.729" x="785.4941" y="810.1216">- Orange: Predecessors of cycles</text><text fill="#000000" font-family="sans-serif" font-size="13" lengthAdjust="spacing" textLength="192.6514" x="785.4941" y="825.2544">- Yellow: Successors of cycles</text><text fill="#000000" font-family="sans-serif" font-size="13" lengthAdjust="spacing" textLength="188.1001" x="785.4941" y="840.3872">- Light blue: Regular stations</text><g class="message" data-entity-1="part2" data-entity-2="part1" id="msg20"><polygon fill="#181818" points="229.7915,870.5859,219.7915,874.5859,229.7915,878.5859,225.7915,874.5859" style="stroke:#181818;stroke-width:1;"/><line style="stroke:#181818;stroke-width:1;stroke-dasharray:2,2;" x1="223.7915" x2="573.3423" y1="874.5859" y2="874.5859"/><text fill="#000000" font-family="sans-serif" font-size="13" lengthAdjust="spacing" textLength="331.5508" x="235.7915" y="869.52">Confirm exported file path and Graphviz command</text></g><!--SRC=[ZLHBRnf13Bxlhx0uBQgeb2k7IYr9eqXH4a4JgKTdrWkZUcUciru8-VNrx8D7jBJbD09__Xws4IjCyBowke8PhFQrK0Kh-jsGCmJN5jSHgon38px2vCwL4Mk9ZP4c4ZmnEaTn0bWFxonW56jiG2SmMQBb7UxXCOYjx3kAzQudQK7TCyjwCCo-31BcAeB9Q8-xAlWeCBHw8Ddv-0lonUe5nCDjnB2PJhAi1vwsM18MK4jBMqCPVGK9LLgco_Mn9sBhw7z0tnhB1HGsgbegO9tqm26Z8qGnWyrvfnhOOw4GTCggrFk_1t4zKDohCdWEobHqCu0ypUz223TlP1f9ixm47uNTEIiMsRuhyllgQAWUhVuHSKknfjw-ldK9KYsom69lMACiI5e16UXdLAX4tJCmgVmmjhFgimolRHrO1pNqxO0Tm7brp5HA1nzMmBgjvwsMMdTQdHljwGLUbHPBuZtuM52aOjh-J3gVr30ZLeSFleT2_ZKzh9bUShIaBXJnmRDVMuFSTVwtgQQVpx7ytD9Z9r2tj1Rm9I3pUMIvZYfeBYdte0xqdYtL7msvuiA2hZP-1tgq1CPNWUdDoduEZ_aBV8ARwVYYBjFVXihfTe3UshlDVKYYaAUZYtDBsWNLMNiHM_iE-UV2oxIxjzPpjEkDP0jDCCwCJmUpjNMJLhErEyzcobpCJwSy37UcEQ5RqnoUD2pIZQnzh5DUXuAVnEntYcxCsC_tYHnUkQ7aRzqmncFEXnp7CrnuLzfOzKcexkG90igcFVc3OqsuqY_-0000]--></g></svg>