<svg xmlns="http://www.w3.org/2000/svg" xmlns:xlink="http://www.w3.org/1999/xlink" contentStyleType="text/css" data-diagram-type="SEQUENCE" height="1496px" preserveAspectRatio="none" style="width:673px;height:1496px;background:#FFFFFF;" version="1.1" viewBox="0 0 673 1496" width="673px" zoomAndPan="magnify"><title>US06 - System Sequence Diagram</title><defs/><g><text fill="#000000" font-family="sans-serif" font-size="14" font-weight="bold" lengthAdjust="spacing" textLength="268.208" x="204.1697" y="27.9951">US06 - System Sequence Diagram</text><rect fill="none" height="175.7969" style="stroke:#000000;stroke-width:1.5;" width="593.1821" x="10" y="420.6563"/><rect fill="none" height="234.0625" style="stroke:#000000;stroke-width:1.5;" width="640.8911" x="10" y="610.4531"/><rect fill="none" height="234.0625" style="stroke:#000000;stroke-width:1.5;" width="639.9072" x="10" y="858.5156"/><rect fill="none" height="234.0625" style="stroke:#000000;stroke-width:1.5;" width="657.5474" x="10" y="1106.5781"/><g><title>Planner</title><rect fill="#000000" fill-opacity="0.00000" height="1297.3125" width="8" x="45.5132" y="118.5938"/><line style="stroke:#181818;stroke-width:0.5;stroke-dasharray:5,5;" x1="49" x2="49" y1="118.5938" y2="1415.9063"/></g><g><title>System</title><rect fill="#000000" fill-opacity="0.00000" height="1297.3125" width="8" x="353.2915" y="118.5938"/><line style="stroke:#181818;stroke-width:0.5;stroke-dasharray:5,5;" x1="357.1885" x2="357.1885" y1="118.5938" y2="1415.9063"/></g><g class="participant participant-head" data-participant="Planner"><text fill="#000000" font-family="sans-serif" font-size="14" lengthAdjust="spacing" textLength="53.0264" x="20" y="115.292">Planner</text><ellipse cx="49.5132" cy="50.7969" fill="#E2E2F0" rx="8" ry="8" style="stroke:#181818;stroke-width:0.5;"/><path d="M49.5132,58.7969 L49.5132,85.7969 M36.5132,66.7969 L62.5132,66.7969 M49.5132,85.7969 L36.5132,100.7969 M49.5132,85.7969 L62.5132,100.7969" fill="none" style="stroke:#181818;stroke-width:0.5;"/></g><g class="participant participant-tail" data-participant="Planner"><text fill="#000000" font-family="sans-serif" font-size="14" lengthAdjust="spacing" textLength="53.0264" x="20" y="1427.9014">Planner</text><ellipse cx="49.5132" cy="1439.7031" fill="#E2E2F0" rx="8" ry="8" style="stroke:#181818;stroke-width:0.5;"/><path d="M49.5132,1447.7031 L49.5132,1474.7031 M36.5132,1455.7031 L62.5132,1455.7031 M49.5132,1474.7031 L36.5132,1489.7031 M49.5132,1474.7031 L62.5132,1489.7031" fill="none" style="stroke:#181818;stroke-width:0.5;"/></g><g class="participant participant-head" data-participant="System"><rect fill="#E2E2F0" height="30.2969" rx="2.5" ry="2.5" style="stroke:#181818;stroke-width:0.5;" width="66.2061" x="324.1885" y="87.2969"/><text fill="#000000" font-family="sans-serif" font-size="14" lengthAdjust="spacing" textLength="52.2061" x="331.1885" y="107.292">System</text></g><g class="participant participant-tail" data-participant="System"><rect fill="#E2E2F0" height="30.2969" rx="2.5" ry="2.5" style="stroke:#181818;stroke-width:0.5;" width="66.2061" x="324.1885" y="1414.9063"/><text fill="#000000" font-family="sans-serif" font-size="14" lengthAdjust="spacing" textLength="52.2061" x="331.1885" y="1434.9014">System</text></g><g class="message" data-participant-1="Planner" data-participant-2="System"><polygon fill="#181818" points="345.2915,145.7266,355.2915,149.7266,345.2915,153.7266,349.2915,149.7266" style="stroke:#181818;stroke-width:1;"/><line style="stroke:#181818;stroke-width:1;" x1="49.5132" x2="351.2915" y1="149.7266" y2="149.7266"/><text fill="#000000" font-family="sans-serif" font-size="13" lengthAdjust="spacing" textLength="113.0581" x="56.5132" y="144.6606">startApplication()</text></g><g class="message" data-participant-1="Planner" data-participant-2="System"><polygon fill="#181818" points="345.2915,174.8594,355.2915,178.8594,345.2915,182.8594,349.2915,178.8594" style="stroke:#181818;stroke-width:1;"/><line style="stroke:#181818;stroke-width:1;" x1="49.5132" x2="351.2915" y1="178.8594" y2="178.8594"/><text fill="#000000" font-family="sans-serif" font-size="13" lengthAdjust="spacing" textLength="129.7397" x="56.5132" y="173.7935">enterCSVPath(path)</text></g><g class="message" data-participant-1="System" data-participant-2="Planner"><polygon fill="#181818" points="60.5132,203.9922,50.5132,207.9922,60.5132,211.9922,56.5132,207.9922" style="stroke:#181818;stroke-width:1;"/><line style="stroke:#181818;stroke-width:1;stroke-dasharray:2,2;" x1="54.5132" x2="356.2915" y1="207.9922" y2="207.9922"/><text fill="#000000" font-family="sans-serif" font-size="13" lengthAdjust="spacing" textLength="121.1577" x="66.5132" y="202.9263">confirmPathValid()</text></g><g class="message" data-participant-1="System" data-participant-2="System"><line style="stroke:#181818;stroke-width:1;" x1="357.2915" x2="399.2915" y1="237.125" y2="237.125"/><line style="stroke:#181818;stroke-width:1;" x1="399.2915" x2="399.2915" y1="237.125" y2="250.125"/><line style="stroke:#181818;stroke-width:1;" x1="358.2915" x2="399.2915" y1="250.125" y2="250.125"/><polygon fill="#181818" points="368.2915,246.125,358.2915,250.125,368.2915,254.125,364.2915,250.125" style="stroke:#181818;stroke-width:1;"/><text fill="#000000" font-family="sans-serif" font-size="13" lengthAdjust="spacing" textLength="93.7041" x="364.2915" y="232.0591">loadCSV(path)</text></g><g class="message" data-participant-1="System" data-participant-2="System"><line style="stroke:#181818;stroke-width:1;" x1="357.2915" x2="399.2915" y1="279.2578" y2="279.2578"/><line style="stroke:#181818;stroke-width:1;" x1="399.2915" x2="399.2915" y1="279.2578" y2="292.2578"/><line style="stroke:#181818;stroke-width:1;" x1="358.2915" x2="399.2915" y1="292.2578" y2="292.2578"/><polygon fill="#181818" points="368.2915,288.2578,358.2915,292.2578,368.2915,296.2578,364.2915,292.2578" style="stroke:#181818;stroke-width:1;"/><text fill="#000000" font-family="sans-serif" font-size="13" lengthAdjust="spacing" textLength="96.7319" x="364.2915" y="274.1919">validateRows()</text></g><g class="message" data-participant-1="System" data-participant-2="System"><line style="stroke:#181818;stroke-width:1;" x1="357.2915" x2="399.2915" y1="321.3906" y2="321.3906"/><line style="stroke:#181818;stroke-width:1;" x1="399.2915" x2="399.2915" y1="321.3906" y2="334.3906"/><line style="stroke:#181818;stroke-width:1;" x1="358.2915" x2="399.2915" y1="334.3906" y2="334.3906"/><polygon fill="#181818" points="368.2915,330.3906,358.2915,334.3906,368.2915,338.3906,364.2915,334.3906" style="stroke:#181818;stroke-width:1;"/><text fill="#000000" font-family="sans-serif" font-size="13" lengthAdjust="spacing" textLength="124.9409" x="364.2915" y="316.3247">rejectInvalidRows()</text></g><g class="message" data-participant-1="System" data-participant-2="System"><line style="stroke:#181818;stroke-width:1;" x1="357.2915" x2="399.2915" y1="363.5234" y2="363.5234"/><line style="stroke:#181818;stroke-width:1;" x1="399.2915" x2="399.2915" y1="363.5234" y2="376.5234"/><line style="stroke:#181818;stroke-width:1;" x1="358.2915" x2="399.2915" y1="376.5234" y2="376.5234"/><polygon fill="#181818" points="368.2915,372.5234,358.2915,376.5234,368.2915,380.5234,364.2915,376.5234" style="stroke:#181818;stroke-width:1;"/><text fill="#000000" font-family="sans-serif" font-size="13" lengthAdjust="spacing" textLength="219.9146" x="364.2915" y="358.4575">buildAVL(tzTree, latTree, lonTree)</text></g><g class="message" data-participant-1="System" data-participant-2="Planner"><polygon fill="#181818" points="60.5132,401.6563,50.5132,405.6563,60.5132,409.6563,56.5132,405.6563" style="stroke:#181818;stroke-width:1;"/><line style="stroke:#181818;stroke-width:1;stroke-dasharray:2,2;" x1="54.5132" x2="356.2915" y1="405.6563" y2="405.6563"/><text fill="#000000" font-family="sans-serif" font-size="13" lengthAdjust="spacing" textLength="133.0723" x="66.5132" y="400.5903">"AVL indexes ready"</text></g><path d="M10,420.6563 L74.4429,420.6563 L74.4429,427.7891 L64.4429,437.7891 L10,437.7891 L10,420.6563" fill="#EEEEEE" style="stroke:#000000;stroke-width:1.5;"/><rect fill="none" height="175.7969" style="stroke:#000000;stroke-width:1.5;" width="593.1821" x="10" y="420.6563"/><text fill="#000000" font-family="sans-serif" font-size="13" font-weight="bold" lengthAdjust="spacing" textLength="19.4429" x="25" y="433.7231">alt</text><text fill="#000000" font-family="sans-serif" font-size="11" font-weight="bold" lengthAdjust="spacing" textLength="132.3652" x="89.4429" y="432.8667">[Search by TZ Group]</text><g class="message" data-participant-1="Planner" data-participant-2="System"><polygon fill="#181818" points="345.2915,454.9219,355.2915,458.9219,345.2915,462.9219,349.2915,458.9219" style="stroke:#181818;stroke-width:1;"/><line style="stroke:#181818;stroke-width:1;" x1="49.5132" x2="351.2915" y1="458.9219" y2="458.9219"/><text fill="#000000" font-family="sans-serif" font-size="13" lengthAdjust="spacing" textLength="234.1143" x="56.5132" y="453.856">selectOption("Search by TZ Group")</text></g><g class="message" data-participant-1="System" data-participant-2="Planner"><polygon fill="#181818" points="60.5132,484.0547,50.5132,488.0547,60.5132,492.0547,56.5132,488.0547" style="stroke:#181818;stroke-width:1;"/><line style="stroke:#181818;stroke-width:1;stroke-dasharray:2,2;" x1="54.5132" x2="356.2915" y1="488.0547" y2="488.0547"/><text fill="#000000" font-family="sans-serif" font-size="13" lengthAdjust="spacing" textLength="224.269" x="66.5132" y="482.9888">request("Enter Time Zone Group")</text></g><g class="message" data-participant-1="Planner" data-participant-2="System"><polygon fill="#181818" points="345.2915,513.1875,355.2915,517.1875,345.2915,521.1875,349.2915,517.1875" style="stroke:#181818;stroke-width:1;"/><line style="stroke:#181818;stroke-width:1;" x1="49.5132" x2="351.2915" y1="517.1875" y2="517.1875"/><text fill="#000000" font-family="sans-serif" font-size="13" lengthAdjust="spacing" textLength="111.0332" x="56.5132" y="512.1216">provide(tzGroup)</text></g><g class="message" data-participant-1="System" data-participant-2="System"><line style="stroke:#181818;stroke-width:1;" x1="357.2915" x2="399.2915" y1="546.3203" y2="546.3203"/><line style="stroke:#181818;stroke-width:1;" x1="399.2915" x2="399.2915" y1="546.3203" y2="559.3203"/><line style="stroke:#181818;stroke-width:1;" x1="358.2915" x2="399.2915" y1="559.3203" y2="559.3203"/><polygon fill="#181818" points="368.2915,555.3203,358.2915,559.3203,368.2915,563.3203,364.2915,559.3203" style="stroke:#181818;stroke-width:1;"/><text fill="#000000" font-family="sans-serif" font-size="13" lengthAdjust="spacing" textLength="226.8906" x="364.2915" y="541.2544">performQueryByTZGroup(tzGroup)</text></g><g class="message" data-participant-1="System" data-participant-2="Planner"><polygon fill="#181818" points="60.5132,584.4531,50.5132,588.4531,60.5132,592.4531,56.5132,588.4531" style="stroke:#181818;stroke-width:1;"/><line style="stroke:#181818;stroke-width:1;stroke-dasharray:2,2;" x1="54.5132" x2="356.2915" y1="588.4531" y2="588.4531"/><text fill="#000000" font-family="sans-serif" font-size="13" lengthAdjust="spacing" textLength="124.6426" x="66.5132" y="583.3872">return(stationsList)</text></g><path d="M10,610.4531 L74.4429,610.4531 L74.4429,617.5859 L64.4429,627.5859 L10,627.5859 L10,610.4531" fill="#EEEEEE" style="stroke:#000000;stroke-width:1.5;"/><rect fill="none" height="234.0625" style="stroke:#000000;stroke-width:1.5;" width="640.8911" x="10" y="610.4531"/><text fill="#000000" font-family="sans-serif" font-size="13" font-weight="bold" lengthAdjust="spacing" textLength="19.4429" x="25" y="623.52">alt</text><text fill="#000000" font-family="sans-serif" font-size="11" font-weight="bold" lengthAdjust="spacing" textLength="143.9775" x="89.4429" y="622.6636">[Search by TZ Window]</text><g class="message" data-participant-1="Planner" data-participant-2="System"><polygon fill="#181818" points="345.2915,644.7188,355.2915,648.7188,345.2915,652.7188,349.2915,648.7188" style="stroke:#181818;stroke-width:1;"/><line style="stroke:#181818;stroke-width:1;" x1="49.5132" x2="351.2915" y1="648.7188" y2="648.7188"/><text fill="#000000" font-family="sans-serif" font-size="13" lengthAdjust="spacing" textLength="245.7939" x="56.5132" y="643.6528">selectOption("Search by TZ Window")</text></g><g class="message" data-participant-1="System" data-participant-2="Planner"><polygon fill="#181818" points="60.5132,673.8516,50.5132,677.8516,60.5132,681.8516,56.5132,677.8516" style="stroke:#181818;stroke-width:1;"/><line style="stroke:#181818;stroke-width:1;stroke-dasharray:2,2;" x1="54.5132" x2="356.2915" y1="677.8516" y2="677.8516"/><text fill="#000000" font-family="sans-serif" font-size="13" lengthAdjust="spacing" textLength="167.3496" x="66.5132" y="672.7856">request("Enter lower TZ")</text></g><g class="message" data-participant-1="Planner" data-participant-2="System"><polygon fill="#181818" points="345.2915,702.9844,355.2915,706.9844,345.2915,710.9844,349.2915,706.9844" style="stroke:#181818;stroke-width:1;"/><line style="stroke:#181818;stroke-width:1;" x1="49.5132" x2="351.2915" y1="706.9844" y2="706.9844"/><text fill="#000000" font-family="sans-serif" font-size="13" lengthAdjust="spacing" textLength="96.9985" x="56.5132" y="701.9185">provide(tzLow)</text></g><g class="message" data-participant-1="System" data-participant-2="Planner"><polygon fill="#181818" points="60.5132,732.1172,50.5132,736.1172,60.5132,740.1172,56.5132,736.1172" style="stroke:#181818;stroke-width:1;"/><line style="stroke:#181818;stroke-width:1;stroke-dasharray:2,2;" x1="54.5132" x2="356.2915" y1="736.1172" y2="736.1172"/><text fill="#000000" font-family="sans-serif" font-size="13" lengthAdjust="spacing" textLength="169.895" x="66.5132" y="731.0513">request("Enter upper TZ")</text></g><g class="message" data-participant-1="Planner" data-participant-2="System"><polygon fill="#181818" points="345.2915,761.25,355.2915,765.25,345.2915,769.25,349.2915,765.25" style="stroke:#181818;stroke-width:1;"/><line style="stroke:#181818;stroke-width:1;" x1="49.5132" x2="351.2915" y1="765.25" y2="765.25"/><text fill="#000000" font-family="sans-serif" font-size="13" lengthAdjust="spacing" textLength="101.0483" x="56.5132" y="760.1841">provide(tzHigh)</text></g><g class="message" data-participant-1="System" data-participant-2="System"><line style="stroke:#181818;stroke-width:1;" x1="357.2915" x2="399.2915" y1="794.3828" y2="794.3828"/><line style="stroke:#181818;stroke-width:1;" x1="399.2915" x2="399.2915" y1="794.3828" y2="807.3828"/><line style="stroke:#181818;stroke-width:1;" x1="358.2915" x2="399.2915" y1="807.3828" y2="807.3828"/><polygon fill="#181818" points="368.2915,803.3828,358.2915,807.3828,368.2915,811.3828,364.2915,807.3828" style="stroke:#181818;stroke-width:1;"/><text fill="#000000" font-family="sans-serif" font-size="13" lengthAdjust="spacing" textLength="274.5996" x="364.2915" y="789.3169">performQueryByTZWindow(tzLow, tzHigh)</text></g><g class="message" data-participant-1="System" data-participant-2="Planner"><polygon fill="#181818" points="60.5132,832.5156,50.5132,836.5156,60.5132,840.5156,56.5132,836.5156" style="stroke:#181818;stroke-width:1;"/><line style="stroke:#181818;stroke-width:1;stroke-dasharray:2,2;" x1="54.5132" x2="356.2915" y1="836.5156" y2="836.5156"/><text fill="#000000" font-family="sans-serif" font-size="13" lengthAdjust="spacing" textLength="124.6426" x="66.5132" y="831.4497">return(stationsList)</text></g><path d="M10,858.5156 L74.4429,858.5156 L74.4429,865.6484 L64.4429,875.6484 L10,875.6484 L10,858.5156" fill="#EEEEEE" style="stroke:#000000;stroke-width:1.5;"/><rect fill="none" height="234.0625" style="stroke:#000000;stroke-width:1.5;" width="639.9072" x="10" y="858.5156"/><text fill="#000000" font-family="sans-serif" font-size="13" font-weight="bold" lengthAdjust="spacing" textLength="19.4429" x="25" y="871.5825">alt</text><text fill="#000000" font-family="sans-serif" font-size="11" font-weight="bold" lengthAdjust="spacing" textLength="170.1133" x="89.4429" y="870.7261">[Search by Latitude Range]</text><g class="message" data-participant-1="Planner" data-participant-2="System"><polygon fill="#181818" points="345.2915,892.7813,355.2915,896.7813,345.2915,900.7813,349.2915,896.7813" style="stroke:#181818;stroke-width:1;"/><line style="stroke:#181818;stroke-width:1;" x1="49.5132" x2="351.2915" y1="896.7813" y2="896.7813"/><text fill="#000000" font-family="sans-serif" font-size="13" lengthAdjust="spacing" textLength="272.397" x="56.5132" y="891.7153">selectOption("Search by Latitude Range")</text></g><g class="message" data-participant-1="System" data-participant-2="Planner"><polygon fill="#181818" points="60.5132,921.9141,50.5132,925.9141,60.5132,929.9141,56.5132,925.9141" style="stroke:#181818;stroke-width:1;"/><line style="stroke:#181818;stroke-width:1;stroke-dasharray:2,2;" x1="54.5132" x2="356.2915" y1="925.9141" y2="925.9141"/><text fill="#000000" font-family="sans-serif" font-size="13" lengthAdjust="spacing" textLength="189.3506" x="66.5132" y="920.8481">request("Enter min latitude")</text></g><g class="message" data-participant-1="Planner" data-participant-2="System"><polygon fill="#181818" points="345.2915,951.0469,355.2915,955.0469,345.2915,959.0469,349.2915,955.0469" style="stroke:#181818;stroke-width:1;"/><line style="stroke:#181818;stroke-width:1;" x1="49.5132" x2="351.2915" y1="955.0469" y2="955.0469"/><text fill="#000000" font-family="sans-serif" font-size="13" lengthAdjust="spacing" textLength="104.0698" x="56.5132" y="949.981">provide(minLat)</text></g><g class="message" data-participant-1="System" data-participant-2="Planner"><polygon fill="#181818" points="60.5132,980.1797,50.5132,984.1797,60.5132,988.1797,56.5132,984.1797" style="stroke:#181818;stroke-width:1;"/><line style="stroke:#181818;stroke-width:1;stroke-dasharray:2,2;" x1="54.5132" x2="356.2915" y1="984.1797" y2="984.1797"/><text fill="#000000" font-family="sans-serif" font-size="13" lengthAdjust="spacing" textLength="193.1592" x="66.5132" y="979.1138">request("Enter max latitude")</text></g><g class="message" data-participant-1="Planner" data-participant-2="System"><polygon fill="#181818" points="345.2915,1009.3125,355.2915,1013.3125,345.2915,1017.3125,349.2915,1013.3125" style="stroke:#181818;stroke-width:1;"/><line style="stroke:#181818;stroke-width:1;" x1="49.5132" x2="351.2915" y1="1013.3125" y2="1013.3125"/><text fill="#000000" font-family="sans-serif" font-size="13" lengthAdjust="spacing" textLength="107.8784" x="56.5132" y="1008.2466">provide(maxLat)</text></g><g class="message" data-participant-1="System" data-participant-2="System"><line style="stroke:#181818;stroke-width:1;" x1="357.2915" x2="399.2915" y1="1042.4453" y2="1042.4453"/><line style="stroke:#181818;stroke-width:1;" x1="399.2915" x2="399.2915" y1="1042.4453" y2="1055.4453"/><line style="stroke:#181818;stroke-width:1;" x1="358.2915" x2="399.2915" y1="1055.4453" y2="1055.4453"/><polygon fill="#181818" points="368.2915,1051.4453,358.2915,1055.4453,368.2915,1059.4453,364.2915,1055.4453" style="stroke:#181818;stroke-width:1;"/><text fill="#000000" font-family="sans-serif" font-size="13" lengthAdjust="spacing" textLength="273.6157" x="364.2915" y="1037.3794">performQueryByLatitude(minLat, maxLat)</text></g><g class="message" data-participant-1="System" data-participant-2="Planner"><polygon fill="#181818" points="60.5132,1080.5781,50.5132,1084.5781,60.5132,1088.5781,56.5132,1084.5781" style="stroke:#181818;stroke-width:1;"/><line style="stroke:#181818;stroke-width:1;stroke-dasharray:2,2;" x1="54.5132" x2="356.2915" y1="1084.5781" y2="1084.5781"/><text fill="#000000" font-family="sans-serif" font-size="13" lengthAdjust="spacing" textLength="124.6426" x="66.5132" y="1079.5122">return(stationsList)</text></g><path d="M10,1106.5781 L74.4429,1106.5781 L74.4429,1113.7109 L64.4429,1123.7109 L10,1123.7109 L10,1106.5781" fill="#EEEEEE" style="stroke:#000000;stroke-width:1.5;"/><rect fill="none" height="234.0625" style="stroke:#000000;stroke-width:1.5;" width="657.5474" x="10" y="1106.5781"/><text fill="#000000" font-family="sans-serif" font-size="13" font-weight="bold" lengthAdjust="spacing" textLength="19.4429" x="25" y="1119.645">alt</text><text fill="#000000" font-family="sans-serif" font-size="11" font-weight="bold" lengthAdjust="spacing" textLength="180.6943" x="89.4429" y="1118.7886">[Search by Longitude Range]</text><g class="message" data-participant-1="Planner" data-participant-2="System"><polygon fill="#181818" points="345.2915,1140.8438,355.2915,1144.8438,345.2915,1148.8438,349.2915,1144.8438" style="stroke:#181818;stroke-width:1;"/><line style="stroke:#181818;stroke-width:1;" x1="49.5132" x2="351.2915" y1="1144.8438" y2="1144.8438"/><text fill="#000000" font-family="sans-serif" font-size="13" lengthAdjust="spacing" textLength="283.7783" x="56.5132" y="1139.7778">selectOption("Search by Longitude Range")</text></g><g class="message" data-participant-1="System" data-participant-2="Planner"><polygon fill="#181818" points="60.5132,1169.9766,50.5132,1173.9766,60.5132,1177.9766,56.5132,1173.9766" style="stroke:#181818;stroke-width:1;"/><line style="stroke:#181818;stroke-width:1;stroke-dasharray:2,2;" x1="54.5132" x2="356.2915" y1="1173.9766" y2="1173.9766"/><text fill="#000000" font-family="sans-serif" font-size="13" lengthAdjust="spacing" textLength="200.7319" x="66.5132" y="1168.9106">request("Enter min longitude")</text></g><g class="message" data-participant-1="Planner" data-participant-2="System"><polygon fill="#181818" points="345.2915,1199.1094,355.2915,1203.1094,345.2915,1207.1094,349.2915,1203.1094" style="stroke:#181818;stroke-width:1;"/><line style="stroke:#181818;stroke-width:1;" x1="49.5132" x2="351.2915" y1="1203.1094" y2="1203.1094"/><text fill="#000000" font-family="sans-serif" font-size="13" lengthAdjust="spacing" textLength="107.1992" x="56.5132" y="1198.0435">provide(minLon)</text></g><g class="message" data-participant-1="System" data-participant-2="Planner"><polygon fill="#181818" points="60.5132,1228.2422,50.5132,1232.2422,60.5132,1236.2422,56.5132,1232.2422" style="stroke:#181818;stroke-width:1;"/><line style="stroke:#181818;stroke-width:1;stroke-dasharray:2,2;" x1="54.5132" x2="356.2915" y1="1232.2422" y2="1232.2422"/><text fill="#000000" font-family="sans-serif" font-size="13" lengthAdjust="spacing" textLength="204.5405" x="66.5132" y="1227.1763">request("Enter max longitude")</text></g><g class="message" data-participant-1="Planner" data-participant-2="System"><polygon fill="#181818" points="345.2915,1257.375,355.2915,1261.375,345.2915,1265.375,349.2915,1261.375" style="stroke:#181818;stroke-width:1;"/><line style="stroke:#181818;stroke-width:1;" x1="49.5132" x2="351.2915" y1="1261.375" y2="1261.375"/><text fill="#000000" font-family="sans-serif" font-size="13" lengthAdjust="spacing" textLength="111.0078" x="56.5132" y="1256.3091">provide(maxLon)</text></g><g class="message" data-participant-1="System" data-participant-2="System"><line style="stroke:#181818;stroke-width:1;" x1="357.2915" x2="399.2915" y1="1290.5078" y2="1290.5078"/><line style="stroke:#181818;stroke-width:1;" x1="399.2915" x2="399.2915" y1="1290.5078" y2="1303.5078"/><line style="stroke:#181818;stroke-width:1;" x1="358.2915" x2="399.2915" y1="1303.5078" y2="1303.5078"/><polygon fill="#181818" points="368.2915,1299.5078,358.2915,1303.5078,368.2915,1307.5078,364.2915,1303.5078" style="stroke:#181818;stroke-width:1;"/><text fill="#000000" font-family="sans-serif" font-size="13" lengthAdjust="spacing" textLength="291.2559" x="364.2915" y="1285.4419">performQueryByLongitude(minLon, maxLon)</text></g><g class="message" data-participant-1="System" data-participant-2="Planner"><polygon fill="#181818" points="60.5132,1328.6406,50.5132,1332.6406,60.5132,1336.6406,56.5132,1332.6406" style="stroke:#181818;stroke-width:1;"/><line style="stroke:#181818;stroke-width:1;stroke-dasharray:2,2;" x1="54.5132" x2="356.2915" y1="1332.6406" y2="1332.6406"/><text fill="#000000" font-family="sans-serif" font-size="13" lengthAdjust="spacing" textLength="124.6426" x="66.5132" y="1327.5747">return(stationsList)</text></g><g class="message" data-participant-1="Planner" data-participant-2="System"><polygon fill="#181818" points="345.2915,1364.7734,355.2915,1368.7734,345.2915,1372.7734,349.2915,1368.7734" style="stroke:#181818;stroke-width:1;"/><line style="stroke:#181818;stroke-width:1;" x1="49.5132" x2="351.2915" y1="1368.7734" y2="1368.7734"/><text fill="#000000" font-family="sans-serif" font-size="13" lengthAdjust="spacing" textLength="128.7305" x="56.5132" y="1363.7075">selectOption("Exit")</text></g><g class="message" data-participant-1="System" data-participant-2="Planner"><polygon fill="#181818" points="60.5132,1393.9063,50.5132,1397.9063,60.5132,1401.9063,56.5132,1397.9063" style="stroke:#181818;stroke-width:1;"/><line style="stroke:#181818;stroke-width:1;stroke-dasharray:2,2;" x1="54.5132" x2="356.2915" y1="1397.9063" y2="1397.9063"/><text fill="#000000" font-family="sans-serif" font-size="13" lengthAdjust="spacing" textLength="123.7603" x="66.5132" y="1392.8403">terminateSession()</text></g><!--SRC=[dPLFJ-Cm4CNl-HIZd5AfbJXnuB0Ikui0gH8iwHQfDvCChP5ZU-q9RVRJCqaJr3y9kBr4bkQzDpE_9399KWX_qujBc41QUS82KlnNeiuGVaknTAA88f6HSV2eXDRe8YiSoKnQeQcrH55RWycFBkKAFB7msbebCq7Iw6JKAqDDw7wbyqT1gyJoOnIrjGdBEiSLP4Q_IbVKihbGCkUuJ-5Ed38YvxI3f1t1UsqMX4zcxPDUXSCtpEXUDyfXsKifLNuzdoRqV-OGnw04jGUZwyF08Z5xGEeSD-YvbyYhc14hXed2PIjugM2sW5jdIjlF5HMFzs0Rfl6nAHxew-htwYc9RshYC9C5mi9e_7JrDRFElCiSUST6rGl2edirhlXJegj-LhD5epns70n3fTC9VoFr6dugFOqYrFanY6T6PTQdajYw0b4eiww1BBvbC3NhiCJIsh34ExbS1K7TBhITOGo7ndFOJhbCPOxm9FGIJmAyRmsaN4XT_oADyHikBEKMWR5Y4nmhDdknWxYx_Tf1nd3eF8ktqSkpWUzxJo7UEGEG6tq2yj1S9hUREyoy2sn7sKB_OgG1w05SRpQIXX3oVjoVxuSKlMzkhGy0]--></g></svg>