<svg xmlns="http://www.w3.org/2000/svg" xmlns:xlink="http://www.w3.org/1999/xlink" contentStyleType="text/css" data-diagram-type="CLASS" height="1267px" preserveAspectRatio="none" style="width:1269px;height:1267px;background:#FFFFFF;" version="1.1" viewBox="0 0 1269 1267" width="1269px" zoomAndPan="magnify"><title>US06 - Class Diagram</title><defs/><g><g class="title" data-source-line="1"><text fill="#000000" font-family="sans-serif" font-size="14" font-weight="bold" lengthAdjust="spacing" textLength="169.3809" x="543.2984" y="22.9951">US06 - Class Diagram</text></g><!--class EuropeStationsUI--><g class="entity" data-entity="EuropeStationsUI" data-source-line="4" data-uid="ent0002" id="entity_EuropeStationsUI"><rect fill="#F1F1F1" height="178.375" rx="2.5" ry="2.5" style="stroke:#181818;stroke-width:0.5;" width="255.2773" x="649.54" y="52.4469"/><ellipse cx="712.4375" cy="68.4469" fill="#ADD1B2" rx="11" ry="11" style="stroke:#181818;stroke-width:1;"/><path d="M715.4062,74.0875 Q714.8281,74.3844 714.1875,74.525 Q713.5468,74.6813 712.8437,74.6813 Q710.3437,74.6813 709.0156,73.0406 Q707.7031,71.3844 707.7031,68.2594 Q707.7031,65.1344 709.0156,63.4781 Q710.3437,61.8219 712.8437,61.8219 Q713.5468,61.8219 714.1875,61.9781 Q714.8437,62.1344 715.4062,62.4313 L715.4062,65.15 Q714.7812,64.5719 714.1875,64.3063 Q713.5937,64.025 712.9687,64.025 Q711.625,64.025 710.9375,65.1031 Q710.25,66.1656 710.25,68.2594 Q710.25,70.3531 710.9375,71.4313 Q711.625,72.4938 712.9687,72.4938 Q713.5937,72.4938 714.1875,72.2281 Q714.7812,71.9469 715.4062,71.3688 L715.4062,74.0875 Z " fill="#000000"/><text fill="#000000" font-family="sans-serif" font-size="14" lengthAdjust="spacing" textLength="120.9824" x="732.9375" y="73.2936">EuropeStationsUI</text><line style="stroke:#181818;stroke-width:0.5;" x1="650.54" x2="903.8173" y1="84.4469" y2="84.4469"/><g data-visibility-modifier="PRIVATE_FIELD"><rect fill="none" height="6" style="stroke:#C82930;stroke-width:1;" width="6" x="657.54" y="95.0953"/></g><text fill="#000000" font-family="sans-serif" font-size="14" lengthAdjust="spacing" textLength="76.7197" x="669.54" y="101.442">Scanner sc</text><g data-visibility-modifier="PRIVATE_FIELD"><rect fill="none" height="6" style="stroke:#C82930;stroke-width:1;" width="6" x="657.54" y="111.3922"/></g><text fill="#000000" font-family="sans-serif" font-size="14" lengthAdjust="spacing" textLength="100.8916" x="669.54" y="117.7389">String csvPath</text><g data-visibility-modifier="PRIVATE_FIELD"><rect fill="none" height="6" style="stroke:#C82930;stroke-width:1;" width="6" x="657.54" y="127.6891"/></g><text fill="#000000" font-family="sans-serif" font-size="14" lengthAdjust="spacing" textLength="229.2773" x="669.54" y="134.0357">StationIndexController controller</text><line style="stroke:#181818;stroke-width:0.5;" x1="650.54" x2="903.8173" y1="141.3375" y2="141.3375"/><g data-visibility-modifier="PUBLIC_METHOD"><ellipse cx="660.54" cy="154.9859" fill="#84BE84" rx="3" ry="3" style="stroke:#038048;stroke-width:1;"/></g><text fill="#000000" font-family="sans-serif" font-size="14" lengthAdjust="spacing" textLength="34.4258" x="669.54" y="158.3326">run()</text><g data-visibility-modifier="PRIVATE_METHOD"><rect fill="#F24D5C" height="6" style="stroke:#C82930;stroke-width:1;" width="6" x="657.54" y="168.2828"/></g><text fill="#000000" font-family="sans-serif" font-size="14" lengthAdjust="spacing" textLength="94.5273" x="669.54" y="174.6295">askCSVPath()</text><g data-visibility-modifier="PRIVATE_METHOD"><rect fill="#F24D5C" height="6" style="stroke:#C82930;stroke-width:1;" width="6" x="657.54" y="184.5797"/></g><text fill="#000000" font-family="sans-serif" font-size="14" lengthAdjust="spacing" textLength="84.7383" x="669.54" y="190.9264">menuLoop()</text><g data-visibility-modifier="PRIVATE_METHOD"><rect fill="#F24D5C" height="6" style="stroke:#C82930;stroke-width:1;" width="6" x="657.54" y="200.8766"/></g><text fill="#000000" font-family="sans-serif" font-size="14" lengthAdjust="spacing" textLength="82.8105" x="669.54" y="207.2232">openUS06()</text><g data-visibility-modifier="PRIVATE_METHOD"><rect fill="#F24D5C" height="6" style="stroke:#C82930;stroke-width:1;" width="6" x="657.54" y="217.1734"/></g><text fill="#000000" font-family="sans-serif" font-size="14" lengthAdjust="spacing" textLength="82.8105" x="669.54" y="223.5201">openUS07()</text></g><!--class StationIndexUI--><g class="entity" data-entity="StationIndexUI" data-source-line="15" data-uid="ent0003" id="entity_StationIndexUI"><rect fill="#F1F1F1" height="194.6719" rx="2.5" ry="2.5" style="stroke:#181818;stroke-width:0.5;" width="255.2773" x="939.54" y="44.2969"/><ellipse cx="1011.4609" cy="60.2969" fill="#ADD1B2" rx="11" ry="11" style="stroke:#181818;stroke-width:1;"/><path d="M1014.4296,65.9375 Q1013.8515,66.2344 1013.2109,66.375 Q1012.5703,66.5313 1011.8671,66.5313 Q1009.3671,66.5313 1008.039,64.8906 Q1006.7265,63.2344 1006.7265,60.1094 Q1006.7265,56.9844 1008.039,55.3281 Q1009.3671,53.6719 1011.8671,53.6719 Q1012.5703,53.6719 1013.2109,53.8281 Q1013.8671,53.9844 1014.4296,54.2813 L1014.4296,57 Q1013.8046,56.4219 1013.2109,56.1563 Q1012.6171,55.875 1011.9921,55.875 Q1010.6484,55.875 1009.9609,56.9531 Q1009.2734,58.0156 1009.2734,60.1094 Q1009.2734,62.2031 1009.9609,63.2813 Q1010.6484,64.3438 1011.9921,64.3438 Q1012.6171,64.3438 1013.2109,64.0781 Q1013.8046,63.7969 1014.4296,63.2188 L1014.4296,65.9375 Z " fill="#000000"/><text fill="#000000" font-family="sans-serif" font-size="14" lengthAdjust="spacing" textLength="102.9355" x="1031.9609" y="65.1436">StationIndexUI</text><line style="stroke:#181818;stroke-width:0.5;" x1="940.54" x2="1193.8173" y1="76.2969" y2="76.2969"/><g data-visibility-modifier="PRIVATE_FIELD"><rect fill="none" height="6" style="stroke:#C82930;stroke-width:1;" width="6" x="947.54" y="86.9453"/></g><text fill="#000000" font-family="sans-serif" font-size="14" lengthAdjust="spacing" textLength="229.2773" x="959.54" y="93.292">StationIndexController controller</text><g data-visibility-modifier="PRIVATE_FIELD"><rect fill="none" height="6" style="stroke:#C82930;stroke-width:1;" width="6" x="947.54" y="103.2422"/></g><text fill="#000000" font-family="sans-serif" font-size="14" lengthAdjust="spacing" textLength="76.7197" x="959.54" y="109.5889">Scanner sc</text><line style="stroke:#181818;stroke-width:0.5;" x1="940.54" x2="1193.8173" y1="116.8906" y2="116.8906"/><g data-visibility-modifier="PUBLIC_METHOD"><ellipse cx="950.54" cy="130.5391" fill="#84BE84" rx="3" ry="3" style="stroke:#038048;stroke-width:1;"/></g><text fill="#000000" font-family="sans-serif" font-size="14" lengthAdjust="spacing" textLength="34.4258" x="959.54" y="133.8857">run()</text><g data-visibility-modifier="PRIVATE_METHOD"><rect fill="#F24D5C" height="6" style="stroke:#C82930;stroke-width:1;" width="6" x="947.54" y="143.8359"/></g><text fill="#000000" font-family="sans-serif" font-size="14" lengthAdjust="spacing" textLength="87.3701" x="959.54" y="150.1826">queryByTZ()</text><g data-visibility-modifier="PRIVATE_METHOD"><rect fill="#F24D5C" height="6" style="stroke:#C82930;stroke-width:1;" width="6" x="947.54" y="160.1328"/></g><text fill="#000000" font-family="sans-serif" font-size="14" lengthAdjust="spacing" textLength="124.7354" x="959.54" y="166.4795">queryByWindow()</text><g data-visibility-modifier="PRIVATE_METHOD"><rect fill="#F24D5C" height="6" style="stroke:#C82930;stroke-width:1;" width="6" x="947.54" y="176.4297"/></g><text fill="#000000" font-family="sans-serif" font-size="14" lengthAdjust="spacing" textLength="91.0957" x="959.54" y="182.7764">queryByLat()</text><g data-visibility-modifier="PRIVATE_METHOD"><rect fill="#F24D5C" height="6" style="stroke:#C82930;stroke-width:1;" width="6" x="947.54" y="192.7266"/></g><text fill="#000000" font-family="sans-serif" font-size="14" lengthAdjust="spacing" textLength="94.4658" x="959.54" y="199.0732">queryByLon()</text><g data-visibility-modifier="PRIVATE_METHOD"><rect fill="#F24D5C" height="6" style="stroke:#C82930;stroke-width:1;" width="6" x="947.54" y="209.0234"/></g><text fill="#000000" font-family="sans-serif" font-size="14" lengthAdjust="spacing" textLength="84.5127" x="959.54" y="215.3701">askDouble()</text><g data-visibility-modifier="PRIVATE_METHOD"><rect fill="#F24D5C" height="6" style="stroke:#C82930;stroke-width:1;" width="6" x="947.54" y="225.3203"/></g><text fill="#000000" font-family="sans-serif" font-size="14" lengthAdjust="spacing" textLength="107.96" x="959.54" y="231.667">askNonEmpty()</text></g><!--class StationIndexController--><g class="entity" data-entity="StationIndexController" data-source-line="28" data-uid="ent0004" id="entity_StationIndexController"><rect fill="#F1F1F1" height="145.7813" rx="2.5" ry="2.5" style="stroke:#181818;stroke-width:0.5;" width="232.2061" x="806.08" y="315.9669"/><ellipse cx="840.1931" cy="331.9669" fill="#ADD1B2" rx="11" ry="11" style="stroke:#181818;stroke-width:1;"/><path d="M843.1619,337.6075 Q842.5838,337.9044 841.9431,338.045 Q841.3025,338.2013 840.5994,338.2013 Q838.0994,338.2013 836.7713,336.5606 Q835.4588,334.9044 835.4588,331.7794 Q835.4588,328.6544 836.7713,326.9981 Q838.0994,325.3419 840.5994,325.3419 Q841.3025,325.3419 841.9431,325.4981 Q842.5994,325.6544 843.1619,325.9513 L843.1619,328.67 Q842.5369,328.0919 841.9431,327.8263 Q841.3494,327.545 840.7244,327.545 Q839.3806,327.545 838.6931,328.6231 Q838.0056,329.6856 838.0056,331.7794 Q838.0056,333.8731 838.6931,334.9513 Q839.3806,336.0138 840.7244,336.0138 Q841.3494,336.0138 841.9431,335.7481 Q842.5369,335.4669 843.1619,334.8888 L843.1619,337.6075 Z " fill="#000000"/><text fill="#000000" font-family="sans-serif" font-size="14" lengthAdjust="spacing" textLength="157.7324" x="858.4405" y="336.8136">StationIndexController</text><line style="stroke:#181818;stroke-width:0.5;" x1="807.08" x2="1037.2861" y1="347.9669" y2="347.9669"/><g data-visibility-modifier="PRIVATE_FIELD"><rect fill="none" height="6" style="stroke:#C82930;stroke-width:1;" width="6" x="814.08" y="358.6153"/></g><text fill="#000000" font-family="sans-serif" font-size="14" lengthAdjust="spacing" textLength="194.8994" x="826.08" y="364.962">StationIndexService service</text><line style="stroke:#181818;stroke-width:0.5;" x1="807.08" x2="1037.2861" y1="372.2638" y2="372.2638"/><g data-visibility-modifier="PUBLIC_METHOD"><ellipse cx="817.08" cy="385.9122" fill="#84BE84" rx="3" ry="3" style="stroke:#038048;stroke-width:1;"/></g><text fill="#000000" font-family="sans-serif" font-size="14" lengthAdjust="spacing" textLength="100.9121" x="826.08" y="389.2589">loadCSV(path)</text><g data-visibility-modifier="PUBLIC_METHOD"><ellipse cx="817.08" cy="402.2091" fill="#84BE84" rx="3" ry="3" style="stroke:#038048;stroke-width:1;"/></g><text fill="#000000" font-family="sans-serif" font-size="14" lengthAdjust="spacing" textLength="100.208" x="826.08" y="405.5557">queryByTZ(tz)</text><g data-visibility-modifier="PUBLIC_METHOD"><ellipse cx="817.08" cy="418.5059" fill="#84BE84" rx="3" ry="3" style="stroke:#038048;stroke-width:1;"/></g><text fill="#000000" font-family="sans-serif" font-size="14" lengthAdjust="spacing" textLength="206.2061" x="826.08" y="421.8526">queryByTZWindow(low, high)</text><g data-visibility-modifier="PUBLIC_METHOD"><ellipse cx="817.08" cy="434.8028" fill="#84BE84" rx="3" ry="3" style="stroke:#038048;stroke-width:1;"/></g><text fill="#000000" font-family="sans-serif" font-size="14" lengthAdjust="spacing" textLength="156.8984" x="826.08" y="438.1495">queryByLat(min, max)</text><g data-visibility-modifier="PUBLIC_METHOD"><ellipse cx="817.08" cy="451.0997" fill="#84BE84" rx="3" ry="3" style="stroke:#038048;stroke-width:1;"/></g><text fill="#000000" font-family="sans-serif" font-size="14" lengthAdjust="spacing" textLength="160.2686" x="826.08" y="454.4464">queryByLon(min, max)</text></g><!--class StationIndexService--><g class="entity" data-entity="StationIndexService" data-source-line="38" data-uid="ent0005" id="entity_StationIndexService"><rect fill="#F1F1F1" height="227.2656" rx="2.5" ry="2.5" style="stroke:#181818;stroke-width:0.5;" width="315.2285" x="764.56" y="538.7469"/><ellipse cx="847.7739" cy="554.7469" fill="#ADD1B2" rx="11" ry="11" style="stroke:#181818;stroke-width:1;"/><path d="M850.7426,560.3875 Q850.1645,560.6844 849.5239,560.825 Q848.8832,560.9813 848.1801,560.9813 Q845.6801,560.9813 844.352,559.3406 Q843.0395,557.6844 843.0395,554.5594 Q843.0395,551.4344 844.352,549.7781 Q845.6801,548.1219 848.1801,548.1219 Q848.8832,548.1219 849.5239,548.2781 Q850.1801,548.4344 850.7426,548.7313 L850.7426,551.45 Q850.1176,550.8719 849.5239,550.6063 Q848.9301,550.325 848.3051,550.325 Q846.9614,550.325 846.2739,551.4031 Q845.5864,552.4656 845.5864,554.5594 Q845.5864,556.6531 846.2739,557.7313 Q846.9614,558.7938 848.3051,558.7938 Q848.9301,558.7938 849.5239,558.5281 Q850.1176,558.2469 850.7426,557.6688 L850.7426,560.3875 Z " fill="#000000"/><text fill="#000000" font-family="sans-serif" font-size="14" lengthAdjust="spacing" textLength="140.3008" x="868.2739" y="559.5936">StationIndexService</text><line style="stroke:#181818;stroke-width:0.5;" x1="765.56" x2="1078.7885" y1="570.7469" y2="570.7469"/><g data-visibility-modifier="PRIVATE_FIELD"><rect fill="none" height="6" style="stroke:#C82930;stroke-width:1;" width="6" x="772.56" y="581.3953"/></g><text fill="#000000" font-family="sans-serif" font-size="14" lengthAdjust="spacing" textLength="149.0098" x="784.56" y="587.742">AVL&lt;Station&gt; tzTree</text><g data-visibility-modifier="PRIVATE_FIELD"><rect fill="none" height="6" style="stroke:#C82930;stroke-width:1;" width="6" x="772.56" y="597.6922"/></g><text fill="#000000" font-family="sans-serif" font-size="14" lengthAdjust="spacing" textLength="193.8877" x="784.56" y="604.0389">AVL&lt;StationByLat&gt; latTree</text><g data-visibility-modifier="PRIVATE_FIELD"><rect fill="none" height="6" style="stroke:#C82930;stroke-width:1;" width="6" x="772.56" y="613.9891"/></g><text fill="#000000" font-family="sans-serif" font-size="14" lengthAdjust="spacing" textLength="200.6279" x="784.56" y="620.3357">AVL&lt;StationByLon&gt; lonTree</text><line style="stroke:#181818;stroke-width:0.5;" x1="765.56" x2="1078.7885" y1="627.6375" y2="627.6375"/><g data-visibility-modifier="PUBLIC_METHOD"><ellipse cx="775.56" cy="641.2859" fill="#84BE84" rx="3" ry="3" style="stroke:#038048;stroke-width:1;"/></g><text fill="#000000" font-family="sans-serif" font-size="14" lengthAdjust="spacing" textLength="136.9238" x="784.56" y="644.6326">loadFromCSV(path)</text><g data-visibility-modifier="PUBLIC_METHOD"><ellipse cx="775.56" cy="657.5828" fill="#84BE84" rx="3" ry="3" style="stroke:#038048;stroke-width:1;"/></g><text fill="#000000" font-family="sans-serif" font-size="14" lengthAdjust="spacing" textLength="225.709" x="784.56" y="660.9295">getStationsByTZGroup(tzGroup)</text><g data-visibility-modifier="PUBLIC_METHOD"><ellipse cx="775.56" cy="673.8797" fill="#84BE84" rx="3" ry="3" style="stroke:#038048;stroke-width:1;"/></g><text fill="#000000" font-family="sans-serif" font-size="14" lengthAdjust="spacing" textLength="245.8477" x="784.56" y="677.2264">getStationsByTZWindow(low, high)</text><g data-visibility-modifier="PUBLIC_METHOD"><ellipse cx="775.56" cy="690.1766" fill="#84BE84" rx="3" ry="3" style="stroke:#038048;stroke-width:1;"/></g><text fill="#000000" font-family="sans-serif" font-size="14" lengthAdjust="spacing" textLength="276.9717" x="784.56" y="693.5232">getStationsByLatitudeRange(min, max)</text><g data-visibility-modifier="PUBLIC_METHOD"><ellipse cx="775.56" cy="706.4734" fill="#84BE84" rx="3" ry="3" style="stroke:#038048;stroke-width:1;"/></g><text fill="#000000" font-family="sans-serif" font-size="14" lengthAdjust="spacing" textLength="289.2285" x="784.56" y="709.8201">getStationsByLongitudeRange(min, max)</text><g data-visibility-modifier="PUBLIC_METHOD"><ellipse cx="775.56" cy="722.7703" fill="#84BE84" rx="3" ry="3" style="stroke:#038048;stroke-width:1;"/></g><text fill="#000000" font-family="sans-serif" font-size="14" lengthAdjust="spacing" textLength="81.3477" x="784.56" y="726.117">getTzTree()</text><g data-visibility-modifier="PUBLIC_METHOD"><ellipse cx="775.56" cy="739.0672" fill="#84BE84" rx="3" ry="3" style="stroke:#038048;stroke-width:1;"/></g><text fill="#000000" font-family="sans-serif" font-size="14" lengthAdjust="spacing" textLength="87.3154" x="784.56" y="742.4139">getLatTree()</text><g data-visibility-modifier="PUBLIC_METHOD"><ellipse cx="775.56" cy="755.3641" fill="#84BE84" rx="3" ry="3" style="stroke:#038048;stroke-width:1;"/></g><text fill="#000000" font-family="sans-serif" font-size="14" lengthAdjust="spacing" textLength="90.6855" x="784.56" y="758.7107">getLonTree()</text></g><!--class StationCSVLoader--><g class="entity" data-entity="StationCSVLoader" data-source-line="53" data-uid="ent0006" id="entity_StationCSVLoader"><rect fill="#F1F1F1" height="80.5938" rx="2.5" ry="2.5" style="stroke:#181818;stroke-width:0.5;" width="326.3574" x="7" y="924.4969"/><ellipse cx="102.8228" cy="940.4969" fill="#ADD1B2" rx="11" ry="11" style="stroke:#181818;stroke-width:1;"/><path d="M105.7915,946.1375 Q105.2134,946.4344 104.5728,946.575 Q103.9321,946.7313 103.229,946.7313 Q100.729,946.7313 99.4009,945.0906 Q98.0884,943.4344 98.0884,940.3094 Q98.0884,937.1844 99.4009,935.5281 Q100.729,933.8719 103.229,933.8719 Q103.9321,933.8719 104.5728,934.0281 Q105.229,934.1844 105.7915,934.4813 L105.7915,937.2 Q105.1665,936.6219 104.5728,936.3563 Q103.979,936.075 103.354,936.075 Q102.0103,936.075 101.3228,937.1531 Q100.6353,938.2156 100.6353,940.3094 Q100.6353,942.4031 101.3228,943.4813 Q102.0103,944.5438 103.354,944.5438 Q103.979,944.5438 104.5728,944.2781 Q105.1665,943.9969 105.7915,943.4188 L105.7915,946.1375 Z " fill="#000000"/><text fill="#000000" font-family="sans-serif" font-size="14" lengthAdjust="spacing" textLength="126.2119" x="123.3228" y="945.3436">StationCSVLoader</text><line style="stroke:#181818;stroke-width:0.5;" x1="8" x2="332.3574" y1="956.4969" y2="956.4969"/><line style="stroke:#181818;stroke-width:0.5;" x1="8" x2="332.3574" y1="964.4969" y2="964.4969"/><g data-visibility-modifier="PUBLIC_METHOD"><ellipse cx="18" cy="978.1453" fill="#84BE84" rx="3" ry="3" style="stroke:#038048;stroke-width:1;"/></g><text fill="#000000" font-family="sans-serif" font-size="14" lengthAdjust="spacing" textLength="186.4775" x="27" y="981.492">load(path) : AVL&lt;Station&gt;</text><g data-visibility-modifier="PUBLIC_METHOD"><ellipse cx="18" cy="994.4422" fill="#84BE84" rx="3" ry="3" style="stroke:#038048;stroke-width:1;"/></g><text fill="#000000" font-family="sans-serif" font-size="14" lengthAdjust="spacing" textLength="300.3574" x="27" y="997.7889">loadValidStationsList(path) : List&lt;Station&gt;</text></g><!--class Station--><g class="entity" data-entity="Station" data-source-line="59" data-uid="ent0007" id="entity_Station"><rect fill="#F1F1F1" height="243.5625" rx="2.5" ry="2.5" style="stroke:#181818;stroke-width:0.5;" width="182.4336" x="367.96" y="843.0169"/><ellipse cx="430.0406" cy="859.0169" fill="#ADD1B2" rx="11" ry="11" style="stroke:#181818;stroke-width:1;"/><path d="M433.0093,864.6575 Q432.4312,864.9544 431.7906,865.095 Q431.1499,865.2513 430.4468,865.2513 Q427.9468,865.2513 426.6187,863.6106 Q425.3062,861.9544 425.3062,858.8294 Q425.3062,855.7044 426.6187,854.0481 Q427.9468,852.3919 430.4468,852.3919 Q431.1499,852.3919 431.7906,852.5481 Q432.4468,852.7044 433.0093,853.0013 L433.0093,855.72 Q432.3843,855.1419 431.7906,854.8763 Q431.1968,854.595 430.5718,854.595 Q429.2281,854.595 428.5406,855.6731 Q427.8531,856.7356 427.8531,858.8294 Q427.8531,860.9231 428.5406,862.0013 Q429.2281,863.0638 430.5718,863.0638 Q431.1968,863.0638 431.7906,862.7981 Q432.3843,862.5169 433.0093,861.9388 L433.0093,864.6575 Z " fill="#000000"/><text fill="#000000" font-family="sans-serif" font-size="14" lengthAdjust="spacing" textLength="49.7725" x="450.5406" y="863.8636">Station</text><line style="stroke:#181818;stroke-width:0.5;" x1="368.96" x2="549.3936" y1="875.0169" y2="875.0169"/><g data-visibility-modifier="PRIVATE_FIELD"><rect fill="none" height="6" style="stroke:#C82930;stroke-width:1;" width="6" x="375.96" y="885.6653"/></g><text fill="#000000" font-family="sans-serif" font-size="14" lengthAdjust="spacing" textLength="135.7139" x="387.96" y="892.012">String stationName</text><g data-visibility-modifier="PRIVATE_FIELD"><rect fill="none" height="6" style="stroke:#C82930;stroke-width:1;" width="6" x="375.96" y="901.9622"/></g><text fill="#000000" font-family="sans-serif" font-size="14" lengthAdjust="spacing" textLength="99.7705" x="387.96" y="908.3089">String country</text><g data-visibility-modifier="PRIVATE_FIELD"><rect fill="none" height="6" style="stroke:#C82930;stroke-width:1;" width="6" x="375.96" y="918.2591"/></g><text fill="#000000" font-family="sans-serif" font-size="14" lengthAdjust="spacing" textLength="113.5039" x="387.96" y="924.6057">String timeZone</text><g data-visibility-modifier="PRIVATE_FIELD"><rect fill="none" height="6" style="stroke:#C82930;stroke-width:1;" width="6" x="375.96" y="934.5559"/></g><text fill="#000000" font-family="sans-serif" font-size="14" lengthAdjust="spacing" textLength="156.4336" x="387.96" y="940.9026">String timeZoneGroup</text><g data-visibility-modifier="PRIVATE_FIELD"><rect fill="none" height="6" style="stroke:#C82930;stroke-width:1;" width="6" x="375.96" y="950.8528"/></g><text fill="#000000" font-family="sans-serif" font-size="14" lengthAdjust="spacing" textLength="105.875" x="387.96" y="957.1995">double latitude</text><g data-visibility-modifier="PRIVATE_FIELD"><rect fill="none" height="6" style="stroke:#C82930;stroke-width:1;" width="6" x="375.96" y="967.1497"/></g><text fill="#000000" font-family="sans-serif" font-size="14" lengthAdjust="spacing" textLength="118.1318" x="387.96" y="973.4964">double longitude</text><g data-visibility-modifier="PRIVATE_FIELD"><rect fill="none" height="6" style="stroke:#C82930;stroke-width:1;" width="6" x="375.96" y="983.4466"/></g><text fill="#000000" font-family="sans-serif" font-size="14" lengthAdjust="spacing" textLength="99.0459" x="387.96" y="989.7932">boolean isCity</text><g data-visibility-modifier="PRIVATE_FIELD"><rect fill="none" height="6" style="stroke:#C82930;stroke-width:1;" width="6" x="375.96" y="999.7434"/></g><text fill="#000000" font-family="sans-serif" font-size="14" lengthAdjust="spacing" textLength="154.7998" x="387.96" y="1006.0901">boolean isMainStation</text><g data-visibility-modifier="PRIVATE_FIELD"><rect fill="none" height="6" style="stroke:#C82930;stroke-width:1;" width="6" x="375.96" y="1016.0403"/></g><text fill="#000000" font-family="sans-serif" font-size="14" lengthAdjust="spacing" textLength="119.5264" x="387.96" y="1022.387">boolean isAirport</text><line style="stroke:#181818;stroke-width:0.5;" x1="368.96" x2="549.3936" y1="1029.6888" y2="1029.6888"/><g data-visibility-modifier="PUBLIC_METHOD"><ellipse cx="378.96" cy="1043.3372" fill="#84BE84" rx="3" ry="3" style="stroke:#038048;stroke-width:1;"/></g><text fill="#000000" font-family="sans-serif" font-size="14" lengthAdjust="spacing" textLength="74.416" x="387.96" y="1046.6839">getters(...)</text><g data-visibility-modifier="PUBLIC_METHOD"><ellipse cx="378.96" cy="1059.6341" fill="#84BE84" rx="3" ry="3" style="stroke:#038048;stroke-width:1;"/></g><text fill="#000000" font-family="sans-serif" font-size="14" lengthAdjust="spacing" textLength="139.5488" x="387.96" y="1062.9807">compareTo(Station)</text><g data-visibility-modifier="PUBLIC_METHOD"><ellipse cx="378.96" cy="1075.9309" fill="#84BE84" rx="3" ry="3" style="stroke:#038048;stroke-width:1;"/></g><text fill="#000000" font-family="sans-serif" font-size="14" lengthAdjust="spacing" textLength="66.7598" x="387.96" y="1079.2776">toString()</text></g><!--class StationByLat--><g class="entity" data-entity="StationByLat" data-source-line="74" data-uid="ent0008" id="entity_StationByLat"><rect fill="#F1F1F1" height="96.8906" rx="2.5" ry="2.5" style="stroke:#181818;stroke-width:0.5;" width="205.3066" x="585.53" y="916.3569"/><ellipse cx="639.1682" cy="932.3569" fill="#ADD1B2" rx="11" ry="11" style="stroke:#181818;stroke-width:1;"/><path d="M642.1369,937.9975 Q641.5588,938.2944 640.9182,938.435 Q640.2776,938.5913 639.5744,938.5913 Q637.0744,938.5913 635.7463,936.9506 Q634.4338,935.2944 634.4338,932.1694 Q634.4338,929.0444 635.7463,927.3881 Q637.0744,925.7319 639.5744,925.7319 Q640.2776,925.7319 640.9182,925.8881 Q641.5744,926.0444 642.1369,926.3413 L642.1369,929.06 Q641.5119,928.4819 640.9182,928.2163 Q640.3244,927.935 639.6994,927.935 Q638.3557,927.935 637.6682,929.0131 Q636.9807,930.0756 636.9807,932.1694 Q636.9807,934.2631 637.6682,935.3413 Q638.3557,936.4038 639.6994,936.4038 Q640.3244,936.4038 640.9182,936.1381 Q641.5119,935.8569 642.1369,935.2788 L642.1369,937.9975 Z " fill="#000000"/><text fill="#000000" font-family="sans-serif" font-size="14" lengthAdjust="spacing" textLength="89.5303" x="659.6682" y="937.2036">StationByLat</text><line style="stroke:#181818;stroke-width:0.5;" x1="586.53" x2="789.8366" y1="948.3569" y2="948.3569"/><g data-visibility-modifier="PUBLIC_FIELD"><ellipse cx="596.53" cy="962.0053" fill="none" rx="3" ry="3" style="stroke:#038048;stroke-width:1;"/></g><text fill="#000000" font-family="sans-serif" font-size="14" lengthAdjust="spacing" textLength="61.5166" x="605.53" y="965.352">Station s</text><line style="stroke:#181818;stroke-width:0.5;" x1="586.53" x2="789.8366" y1="972.6538" y2="972.6538"/><g data-visibility-modifier="PUBLIC_METHOD"><ellipse cx="596.53" cy="986.3022" fill="#84BE84" rx="3" ry="3" style="stroke:#038048;stroke-width:1;"/></g><text fill="#000000" font-family="sans-serif" font-size="14" lengthAdjust="spacing" textLength="179.3066" x="605.53" y="989.6489">compareTo(StationByLat)</text><g data-visibility-modifier="PUBLIC_METHOD"><ellipse cx="596.53" cy="1002.5991" fill="#84BE84" rx="3" ry="3" style="stroke:#038048;stroke-width:1;"/></g><text fill="#000000" font-family="sans-serif" font-size="14" lengthAdjust="spacing" textLength="66.7598" x="605.53" y="1005.9457">toString()</text></g><!--class StationByLon--><g class="entity" data-entity="StationByLon" data-source-line="80" data-uid="ent0009" id="entity_StationByLon"><rect fill="#F1F1F1" height="96.8906" rx="2.5" ry="2.5" style="stroke:#181818;stroke-width:0.5;" width="208.6768" x="825.84" y="916.3569"/><ellipse cx="879.4782" cy="932.3569" fill="#ADD1B2" rx="11" ry="11" style="stroke:#181818;stroke-width:1;"/><path d="M882.4469,937.9975 Q881.8688,938.2944 881.2282,938.435 Q880.5876,938.5913 879.8844,938.5913 Q877.3844,938.5913 876.0563,936.9506 Q874.7438,935.2944 874.7438,932.1694 Q874.7438,929.0444 876.0563,927.3881 Q877.3844,925.7319 879.8844,925.7319 Q880.5876,925.7319 881.2282,925.8881 Q881.8844,926.0444 882.4469,926.3413 L882.4469,929.06 Q881.8219,928.4819 881.2282,928.2163 Q880.6344,927.935 880.0094,927.935 Q878.6657,927.935 877.9782,929.0131 Q877.2907,930.0756 877.2907,932.1694 Q877.2907,934.2631 877.9782,935.3413 Q878.6657,936.4038 880.0094,936.4038 Q880.6344,936.4038 881.2282,936.1381 Q881.8219,935.8569 882.4469,935.2788 L882.4469,937.9975 Z " fill="#000000"/><text fill="#000000" font-family="sans-serif" font-size="14" lengthAdjust="spacing" textLength="92.9004" x="899.9782" y="937.2036">StationByLon</text><line style="stroke:#181818;stroke-width:0.5;" x1="826.84" x2="1033.5168" y1="948.3569" y2="948.3569"/><g data-visibility-modifier="PUBLIC_FIELD"><ellipse cx="836.84" cy="962.0053" fill="none" rx="3" ry="3" style="stroke:#038048;stroke-width:1;"/></g><text fill="#000000" font-family="sans-serif" font-size="14" lengthAdjust="spacing" textLength="61.5166" x="845.84" y="965.352">Station s</text><line style="stroke:#181818;stroke-width:0.5;" x1="826.84" x2="1033.5168" y1="972.6538" y2="972.6538"/><g data-visibility-modifier="PUBLIC_METHOD"><ellipse cx="836.84" cy="986.3022" fill="#84BE84" rx="3" ry="3" style="stroke:#038048;stroke-width:1;"/></g><text fill="#000000" font-family="sans-serif" font-size="14" lengthAdjust="spacing" textLength="182.6768" x="845.84" y="989.6489">compareTo(StationByLon)</text><g data-visibility-modifier="PUBLIC_METHOD"><ellipse cx="836.84" cy="1002.5991" fill="#84BE84" rx="3" ry="3" style="stroke:#038048;stroke-width:1;"/></g><text fill="#000000" font-family="sans-serif" font-size="14" lengthAdjust="spacing" textLength="66.7598" x="845.84" y="1005.9457">toString()</text></g><!--class AVL--><g class="entity" data-entity="AVL" data-source-line="87" data-uid="ent0010" id="entity_AVL"><rect fill="#F1F1F1" height="113.1875" rx="2.5" ry="2.5" style="stroke:#181818;stroke-width:0.5;" width="189.5977" x="1069.38" y="908.2069"/><ellipse cx="1140.6608" cy="924.2069" fill="#ADD1B2" rx="11" ry="11" style="stroke:#181818;stroke-width:1;"/><path d="M1143.6295,929.8475 Q1143.0514,930.1444 1142.4108,930.285 Q1141.7701,930.4413 1141.067,930.4413 Q1138.567,930.4413 1137.2389,928.8006 Q1135.9264,927.1444 1135.9264,924.0194 Q1135.9264,920.8944 1137.2389,919.2381 Q1138.567,917.5819 1141.067,917.5819 Q1141.7701,917.5819 1142.4108,917.7381 Q1143.067,917.8944 1143.6295,918.1913 L1143.6295,920.91 Q1143.0045,920.3319 1142.4108,920.0663 Q1141.817,919.785 1141.192,919.785 Q1139.8483,919.785 1139.1608,920.8631 Q1138.4733,921.9256 1138.4733,924.0194 Q1138.4733,926.1131 1139.1608,927.1913 Q1139.8483,928.2538 1141.192,928.2538 Q1141.817,928.2538 1142.4108,927.9881 Q1143.0045,927.7069 1143.6295,927.1288 L1143.6295,929.8475 Z " fill="#000000"/><text fill="#000000" font-family="sans-serif" font-size="14" lengthAdjust="spacing" textLength="26.9541" x="1161.1608" y="929.0536">AVL</text><rect fill="#FFFFFF" height="15.9688" style="stroke:#181818;stroke-width:1;stroke-dasharray:2,2;" width="9.582" x="1252.3956" y="905.2069"/><text fill="#000000" font-family="sans-serif" font-size="12" font-style="italic" lengthAdjust="spacing" textLength="7.582" x="1253.3956" y="917.3455">E</text><line style="stroke:#181818;stroke-width:0.5;" x1="1070.38" x2="1257.9777" y1="940.2069" y2="940.2069"/><line style="stroke:#181818;stroke-width:0.5;" x1="1070.38" x2="1257.9777" y1="948.2069" y2="948.2069"/><g data-visibility-modifier="PUBLIC_METHOD"><ellipse cx="1080.38" cy="961.8553" fill="#84BE84" rx="3" ry="3" style="stroke:#038048;stroke-width:1;"/></g><text fill="#000000" font-family="sans-serif" font-size="14" lengthAdjust="spacing" textLength="59.6846" x="1089.38" y="965.202">insert(E)</text><g data-visibility-modifier="PUBLIC_METHOD"><ellipse cx="1080.38" cy="978.1522" fill="#84BE84" rx="3" ry="3" style="stroke:#038048;stroke-width:1;"/></g><text fill="#000000" font-family="sans-serif" font-size="14" lengthAdjust="spacing" textLength="73.2402" x="1089.38" y="981.4989">remove(E)</text><g data-visibility-modifier="PUBLIC_METHOD"><ellipse cx="1080.38" cy="994.4491" fill="#84BE84" rx="3" ry="3" style="stroke:#038048;stroke-width:1;"/></g><text fill="#000000" font-family="sans-serif" font-size="14" lengthAdjust="spacing" textLength="163.5977" x="1089.38" y="997.7957">inOrder() : Iterable&lt;E&gt;</text><g data-visibility-modifier="PUBLIC_METHOD"><ellipse cx="1080.38" cy="1010.7459" fill="#84BE84" rx="3" ry="3" style="stroke:#038048;stroke-width:1;"/></g><text fill="#000000" font-family="sans-serif" font-size="14" lengthAdjust="spacing" textLength="69.9385" x="1089.38" y="1014.0926">size() : int</text></g><!--class BST--><g class="entity" data-entity="BST" data-source-line="94" data-uid="ent0011" id="entity_BST"><rect fill="#F1F1F1" height="113.1875" rx="2.5" ry="2.5" style="stroke:#181818;stroke-width:0.5;" width="189.5977" x="1069.38" y="1147.5769"/><ellipse cx="1140.6163" cy="1163.5769" fill="#ADD1B2" rx="11" ry="11" style="stroke:#181818;stroke-width:1;"/><path d="M1143.5851,1169.2175 Q1143.007,1169.5144 1142.3663,1169.655 Q1141.7257,1169.8113 1141.0226,1169.8113 Q1138.5226,1169.8113 1137.1945,1168.1706 Q1135.882,1166.5144 1135.882,1163.3894 Q1135.882,1160.2644 1137.1945,1158.6081 Q1138.5226,1156.9519 1141.0226,1156.9519 Q1141.7257,1156.9519 1142.3663,1157.1081 Q1143.0226,1157.2644 1143.5851,1157.5613 L1143.5851,1160.28 Q1142.9601,1159.7019 1142.3663,1159.4363 Q1141.7726,1159.155 1141.1476,1159.155 Q1139.8038,1159.155 1139.1163,1160.2331 Q1138.4288,1161.2956 1138.4288,1163.3894 Q1138.4288,1165.4831 1139.1163,1166.5613 Q1139.8038,1167.6238 1141.1476,1167.6238 Q1141.7726,1167.6238 1142.3663,1167.3581 Q1142.9601,1167.0769 1143.5851,1166.4988 L1143.5851,1169.2175 Z " fill="#000000"/><text fill="#000000" font-family="sans-serif" font-size="14" lengthAdjust="spacing" textLength="27.043" x="1161.1163" y="1168.4236">BST</text><rect fill="#FFFFFF" height="15.9688" style="stroke:#181818;stroke-width:1;stroke-dasharray:2,2;" width="9.582" x="1252.3956" y="1144.5769"/><text fill="#000000" font-family="sans-serif" font-size="12" font-style="italic" lengthAdjust="spacing" textLength="7.582" x="1253.3956" y="1156.7155">E</text><line style="stroke:#181818;stroke-width:0.5;" x1="1070.38" x2="1257.9777" y1="1179.5769" y2="1179.5769"/><line style="stroke:#181818;stroke-width:0.5;" x1="1070.38" x2="1257.9777" y1="1187.5769" y2="1187.5769"/><g data-visibility-modifier="PUBLIC_METHOD"><ellipse cx="1080.38" cy="1201.2253" fill="#84BE84" rx="3" ry="3" style="stroke:#038048;stroke-width:1;"/></g><text fill="#000000" font-family="sans-serif" font-size="14" lengthAdjust="spacing" textLength="59.6846" x="1089.38" y="1204.572">insert(E)</text><g data-visibility-modifier="PUBLIC_METHOD"><ellipse cx="1080.38" cy="1217.5222" fill="#84BE84" rx="3" ry="3" style="stroke:#038048;stroke-width:1;"/></g><text fill="#000000" font-family="sans-serif" font-size="14" lengthAdjust="spacing" textLength="73.2402" x="1089.38" y="1220.8689">remove(E)</text><g data-visibility-modifier="PUBLIC_METHOD"><ellipse cx="1080.38" cy="1233.8191" fill="#84BE84" rx="3" ry="3" style="stroke:#038048;stroke-width:1;"/></g><text fill="#000000" font-family="sans-serif" font-size="14" lengthAdjust="spacing" textLength="163.5977" x="1089.38" y="1237.1657">inOrder() : Iterable&lt;E&gt;</text><g data-visibility-modifier="PUBLIC_METHOD"><ellipse cx="1080.38" cy="1250.1159" fill="#84BE84" rx="3" ry="3" style="stroke:#038048;stroke-width:1;"/></g><text fill="#000000" font-family="sans-serif" font-size="14" lengthAdjust="spacing" textLength="69.9385" x="1089.38" y="1253.4626">size() : int</text></g><!--link EuropeStationsUI to StationIndexController--><g class="link" data-entity-1="EuropeStationsUI" data-entity-2="StationIndexController" data-source-line="101" data-uid="lnk12" id="link_EuropeStationsUI_StationIndexController"><path codeLine="101" d="M829.53,231.1669 C845.91,258.8769 860.7361,283.9522 876.3761,310.4022" fill="none" id="EuropeStationsUI-to-StationIndexController" style="stroke:#181818;stroke-width:1;"/><polygon fill="#181818" points="879.43,315.5669,878.2923,305.784,876.8851,311.263,871.4061,309.8558,879.43,315.5669" style="stroke:#181818;stroke-width:1;"/><text fill="#000000" font-family="sans-serif" font-size="13" lengthAdjust="spacing" textLength="48.3247" x="860.18" y="282.0338">creates</text></g><!--link StationIndexUI to StationIndexController--><g class="link" data-entity-1="StationIndexUI" data-entity-2="StationIndexController" data-source-line="102" data-uid="lnk13" id="link_StationIndexUI_StationIndexController"><path codeLine="102" d="M1010.08,239.2069 C995.02,264.6669 982.0839,286.5422 967.9339,310.4722" fill="none" id="StationIndexUI-to-StationIndexController" style="stroke:#181818;stroke-width:1;"/><polygon fill="#181818" points="964.88,315.6369,972.904,309.9258,967.4249,311.333,966.0177,305.854,964.88,315.6369" style="stroke:#181818;stroke-width:1;"/><text fill="#000000" font-family="sans-serif" font-size="13" lengthAdjust="spacing" textLength="29.7832" x="991.18" y="282.0338">uses</text></g><!--link StationIndexController to StationIndexService--><g class="link" data-entity-1="StationIndexController" data-entity-2="StationIndexService" data-source-line="104" data-uid="lnk14" id="link_StationIndexController_StationIndexService"><path codeLine="104" d="M922.18,462.0169 C922.18,485.7569 922.18,506.7369 922.18,532.7469" fill="none" id="StationIndexController-to-StationIndexService" style="stroke:#181818;stroke-width:1;"/><polygon fill="#181818" points="922.18,538.7469,926.18,529.7469,922.18,533.7469,918.18,529.7469,922.18,538.7469" style="stroke:#181818;stroke-width:1;"/><text fill="#000000" font-family="sans-serif" font-size="13" lengthAdjust="spacing" textLength="29.7832" x="923.18" y="504.8138">uses</text></g><!--link StationIndexService to StationCSVLoader--><g class="link" data-entity-1="StationIndexService" data-entity-2="StationCSVLoader" data-source-line="106" data-uid="lnk15" id="link_StationIndexService_StationCSVLoader"><path codeLine="106" d="M764.14,693.3069 C646.69,725.9169 484.29,777.3069 350.18,843.0169 C304.05,865.6169 260.7679,894.8944 225.8979,920.6244" fill="none" id="StationIndexService-to-StationCSVLoader" style="stroke:#181818;stroke-width:1;"/><polygon fill="#181818" points="221.07,924.1869,230.6869,922.0618,225.0933,921.2182,225.9369,915.6246,221.07,924.1869" style="stroke:#181818;stroke-width:1;"/><text fill="#000000" font-family="sans-serif" font-size="13" lengthAdjust="spacing" textLength="64.9111" x="457.18" y="809.0838">loads CSV</text></g><!--link StationIndexService to Station--><g class="link" data-entity-1="StationIndexService" data-entity-2="Station" data-source-line="107" data-uid="lnk16" id="link_StationIndexService_Station"><path codeLine="107" d="M764.37,723.2569 C700.41,755.2169 627.74,796.3869 568.18,843.0169 C562.28,847.6269 560.8947,848.5675 555.1647,853.7375" fill="none" id="StationIndexService-to-Station" style="stroke:#181818;stroke-width:1;"/><polygon fill="#181818" points="550.71,857.7569,560.0717,854.6976,554.4223,854.4074,554.7125,848.758,550.71,857.7569" style="stroke:#181818;stroke-width:1;"/><text fill="#000000" font-family="sans-serif" font-size="13" lengthAdjust="spacing" textLength="48.3247" x="632.18" y="809.0838">creates</text></g><!--link StationIndexService to StationByLat--><g class="link" data-entity-1="StationIndexService" data-entity-2="StationByLat" data-source-line="108" data-uid="lnk17" id="link_StationIndexService_StationByLat"><path codeLine="108" d="M837.04,766.3269 C798.1,817.9869 757.6717,871.6157 727.6617,911.4257" fill="none" id="StationIndexService-to-StationByLat" style="stroke:#181818;stroke-width:1;"/><polygon fill="#181818" points="724.05,916.2169,732.6617,911.4379,727.0598,912.2242,726.2735,906.6223,724.05,916.2169" style="stroke:#181818;stroke-width:1;"/><text fill="#000000" font-family="sans-serif" font-size="13" lengthAdjust="spacing" textLength="38.9683" x="814.18" y="809.0838">wraps</text></g><!--link StationIndexService to StationByLon--><g class="link" data-entity-1="StationIndexService" data-entity-2="StationByLon" data-source-line="109" data-uid="lnk18" id="link_StationIndexService_StationByLon"><path codeLine="109" d="M919.59,766.2769 C919.42,776.3269 919.28,786.3569 919.18,796.0169 C919.1,803.5769 918.9,805.4669 919.18,813.0169 C920.44,847.5069 922.7955,880.3681 925.2955,909.9981" fill="none" id="StationIndexService-to-StationByLon" style="stroke:#181818;stroke-width:1;"/><polygon fill="#181818" points="925.8,915.9769,929.0292,906.6724,925.3796,910.9946,921.0575,907.345,925.8,915.9769" style="stroke:#181818;stroke-width:1;"/><text fill="#000000" font-family="sans-serif" font-size="13" lengthAdjust="spacing" textLength="38.9683" x="920.18" y="809.0838">wraps</text></g><!--link StationIndexService to AVL--><g class="link" data-entity-1="StationIndexService" data-entity-2="AVL" data-source-line="111" data-uid="lnk19" id="link_StationIndexService_AVL"><path codeLine="111" d="M965.82,766.2969 C975.26,783.0769 986.35,799.3169 999.18,813.0169 C1017.68,832.7769 1030.95,826.2269 1052.18,843.0169 C1076.18,861.9969 1095.7068,881.7109 1114.9368,903.4709" fill="none" id="StationIndexService-to-AVL" style="stroke:#181818;stroke-width:1;"/><polygon fill="#181818" points="1118.91,907.9669,1115.9475,898.5741,1115.599,904.2202,1109.9529,903.8718,1118.91,907.9669" style="stroke:#181818;stroke-width:1;"/><text fill="#000000" font-family="sans-serif" font-size="13" lengthAdjust="spacing" textLength="41.2026" x="1000.18" y="809.0838">tzTree</text></g><!--link StationIndexService to AVL--><g class="link" data-entity-1="StationIndexService" data-entity-2="AVL" data-source-line="112" data-uid="lnk20" id="link_StationIndexService_AVL"><path codeLine="112" d="M1022.07,766.1669 C1030.35,776.1569 1038.49,786.1969 1046.18,796.0169 C1074.61,832.3269 1101.0926,869.8777 1123.6626,903.0177" fill="none" id="StationIndexService-to-AVL-1" style="stroke:#181818;stroke-width:1;"/><polygon fill="#181818" points="1127.04,907.9769,1125.28,898.2866,1124.2255,903.8443,1118.6678,902.7898,1127.04,907.9769" style="stroke:#181818;stroke-width:1;"/><text fill="#000000" font-family="sans-serif" font-size="13" lengthAdjust="spacing" textLength="45.957" x="1057.18" y="809.0838">latTree</text></g><!--link StationIndexService to AVL--><g class="link" data-entity-1="StationIndexService" data-entity-2="AVL" data-source-line="113" data-uid="lnk21" id="link_StationIndexService_AVL"><path codeLine="113" d="M1079.86,759.3169 C1091.38,770.8269 1102.05,783.0869 1111.18,796.0169 C1134.62,829.1969 1146.7458,867.3216 1154.2058,901.9316" fill="none" id="StationIndexService-to-AVL-2" style="stroke:#181818;stroke-width:1;"/><polygon fill="#181818" points="1155.47,907.7969,1157.4838,898.1561,1154.4165,902.9091,1149.6635,899.8418,1155.47,907.7969" style="stroke:#181818;stroke-width:1;"/><text fill="#000000" font-family="sans-serif" font-size="13" lengthAdjust="spacing" textLength="49.0864" x="1122.18" y="809.0838">lonTree</text></g><!--link AVL to BST--><g class="link" data-entity-1="AVL" data-entity-2="BST" data-source-line="115" data-uid="lnk22" id="link_AVL_BST"><path codeLine="115" d="M1164.18,1021.7569 C1164.18,1059.5869 1164.18,1091.3469 1164.18,1129.1869" fill="none" id="AVL-to-BST" style="stroke:#181818;stroke-width:1;"/><polygon fill="none" points="1164.18,1147.1869,1170.18,1129.1869,1158.18,1129.1869,1164.18,1147.1869" style="stroke:#181818;stroke-width:1;"/></g><!--SRC=[jLLDRzim3BtxL-Ws5sk2dJOWs0AaYJS4S9CXTZEiDzKXKc6sv4bostJhVvyaI_vscyjyiVL8odoF52M9J07TH1y-eWbQfbW8j2Buo766FEyT-g8VTBD6uU9di2kNNcBSWeAp72A99M5KA9S_7bBF14K9fXGu4ea392VqY1Bny1tB-meqWMjwWASbevApD5L1IVLf_DuZNb3_miPWyMiPxVKc5PG1BKB6yWfGEL5DfmjyKi2BPtDl_hoP-LavzHYsa_nT03zTdUBRBlA3q0DxxA8XbZs8jIYlM76NGXFPC1fakJoLb5oLbjjDlDk6eQfJlreZr8QOHy0VI098b6zBCMNueCJtSwN-XSLgglAvXrcwANkyHFVas0tIl3D2Br66dxecnRysDHX6mMw_NWPlq7FvEswBVVZPskT8FiSSe6yn2SrHYkMeNOUdZ5RsKfEld6LTNOuWtRdGIdpZhCYLHEOzuZEcLijDfKXaSO0TfaVegTTsPVJukczibF0RI5YIRq4btqwZHNiKRXUhuHeeQwXqgPghbAdK1yrQrMZOzpWb1vT-I8Ii0lIYZcYaiTfUBzQReHGQRMqcZoZX3SwWCv9OeOx2gGrAai4jep2CcY9Qqy6SJDqqHkeEwYfWuJl6Ki0K4R4ayjG3hp6XDlsURK5uphYiooA12tywdRfA9IpBCOUO-NOBPv2iJ7zW-9bsgchab1DZEnhtyxQj2d3UjcFPkZh7ko28McNMFHJCgvyGgaQLz0Et3OUCFK2z9dJBLJ_wkflMIZgiogFYhLMGPp0cGcNDvYgA_zylUbVdP38Vcz0pb7304eJNkRHUZIc42l16pDr8Dp27mfoj4LCVy9avka8FXBU2HdWCU9PzEKEF7EVdE9kzI-THRzKmoidE_jUTt0tmXfUz1pozd4p-pdN3_0C0]--></g></svg>