<svg xmlns="http://www.w3.org/2000/svg" xmlns:xlink="http://www.w3.org/1999/xlink" contentStyleType="text/css" data-diagram-type="SEQUENCE" height="1192px" preserveAspectRatio="none" style="width:830px;height:1192px;background:#FFFFFF;" version="1.1" viewBox="0 0 830 1192" width="830px" zoomAndPan="magnify"><title>SSD - Prepare Orders</title><defs/><g><text fill="#000000" font-family="sans-serif" font-size="14" font-weight="bold" lengthAdjust="spacing" textLength="168.3076" x="332.3792" y="27.9951">SSD - Prepare Orders</text><g><title>Warehouse System</title><rect fill="#FFFFFF" height="894.0781" style="stroke:#181818;stroke-width:1;" width="10" x="424.231" y="207.9922"/></g><rect fill="none" height="599.3438" style="stroke:#000000;stroke-width:1.5;" width="814.0659" x="10" y="265.125"/><rect fill="none" height="526.0781" style="stroke:#000000;stroke-width:1.5;" width="794.0659" x="20" y="331.3906"/><rect fill="none" height="452.8125" style="stroke:#000000;stroke-width:1.5;" width="769.6313" x="30" y="397.6563"/><rect fill="none" height="174.4688" style="stroke:#000000;stroke-width:1.5;" width="725.9316" x="40" y="463.9219"/><rect fill="none" height="134.1406" style="stroke:#000000;stroke-width:1.5;" width="474.064" x="40" y="709.3281"/><rect fill="none" height="90.2031" style="stroke:#000000;stroke-width:1.5;" width="474.064" x="40" y="1004.8672"/><g><title>Warehouse Planner</title><rect fill="#000000" fill-opacity="0.00000" height="993.4766" width="8" x="117.2432" y="118.5938"/><line style="stroke:#181818;stroke-width:0.5;stroke-dasharray:5,5;" x1="121" x2="121" y1="118.5938" y2="1112.0703"/></g><g><title>Warehouse System</title><rect fill="#000000" fill-opacity="0.00000" height="993.4766" width="8" x="425.231" y="118.5938"/><line style="stroke:#181818;stroke-width:0.5;stroke-dasharray:5,5;" x1="428.3979" x2="428.3979" y1="118.5938" y2="1112.0703"/></g><g class="participant participant-head" data-participant="WP"><text fill="#000000" font-family="sans-serif" font-size="14" lengthAdjust="spacing" textLength="136.4863" x="50" y="115.292">Warehouse Planner</text><ellipse cx="121.2432" cy="50.7969" fill="#E2E2F0" rx="8" ry="8" style="stroke:#181818;stroke-width:0.5;"/><path d="M121.2432,58.7969 L121.2432,85.7969 M108.2432,66.7969 L134.2432,66.7969 M121.2432,85.7969 L108.2432,100.7969 M121.2432,85.7969 L134.2432,100.7969" fill="none" style="stroke:#181818;stroke-width:0.5;"/></g><g class="participant participant-tail" data-participant="WP"><text fill="#000000" font-family="sans-serif" font-size="14" lengthAdjust="spacing" textLength="136.4863" x="50" y="1124.0654">Warehouse Planner</text><ellipse cx="121.2432" cy="1135.8672" fill="#E2E2F0" rx="8" ry="8" style="stroke:#181818;stroke-width:0.5;"/><path d="M121.2432,1143.8672 L121.2432,1170.8672 M108.2432,1151.8672 L134.2432,1151.8672 M121.2432,1170.8672 L108.2432,1185.8672 M121.2432,1170.8672 L134.2432,1185.8672" fill="none" style="stroke:#181818;stroke-width:0.5;"/></g><g class="participant participant-head" data-participant="Sys"><rect fill="#E2E2F0" height="30.2969" rx="2.5" ry="2.5" style="stroke:#181818;stroke-width:0.5;" width="149.666" x="354.3979" y="87.2969"/><text fill="#000000" font-family="sans-serif" font-size="14" lengthAdjust="spacing" textLength="135.666" x="361.3979" y="107.292">Warehouse System</text></g><g class="participant participant-tail" data-participant="Sys"><rect fill="#E2E2F0" height="30.2969" rx="2.5" ry="2.5" style="stroke:#181818;stroke-width:0.5;" width="149.666" x="354.3979" y="1111.0703"/><text fill="#000000" font-family="sans-serif" font-size="14" lengthAdjust="spacing" textLength="135.666" x="361.3979" y="1131.0654">Warehouse System</text></g><g><title>Warehouse System</title><rect fill="#FFFFFF" height="894.0781" style="stroke:#181818;stroke-width:1;" width="10" x="424.231" y="207.9922"/></g><g class="message" data-participant-1="WP" data-participant-2="Sys"><polygon fill="#181818" points="417.231,145.7266,427.231,149.7266,417.231,153.7266,421.231,149.7266" style="stroke:#181818;stroke-width:1;"/><line style="stroke:#181818;stroke-width:1;" x1="121.2432" x2="423.231" y1="149.7266" y2="149.7266"/><text fill="#000000" font-family="sans-serif" font-size="13" lengthAdjust="spacing" textLength="283.9878" x="128.2432" y="144.6606">Select allocation mode (STRICT or PARTIAL)</text></g><g class="message" data-participant-1="Sys" data-participant-2="WP"><polygon fill="#181818" points="132.2432,174.8594,122.2432,178.8594,132.2432,182.8594,128.2432,178.8594" style="stroke:#181818;stroke-width:1;"/><line style="stroke:#181818;stroke-width:1;stroke-dasharray:2,2;" x1="126.2432" x2="428.231" y1="178.8594" y2="178.8594"/><text fill="#000000" font-family="sans-serif" font-size="13" lengthAdjust="spacing" textLength="151.4741" x="138.2432" y="173.7935">Confirm selected mode</text></g><g class="message" data-participant-1="WP" data-participant-2="Sys"><polygon fill="#181818" points="412.231,203.9922,422.231,207.9922,412.231,211.9922,416.231,207.9922" style="stroke:#181818;stroke-width:1;"/><line style="stroke:#181818;stroke-width:1;" x1="121.2432" x2="418.231" y1="207.9922" y2="207.9922"/><text fill="#000000" font-family="sans-serif" font-size="13" lengthAdjust="spacing" textLength="150.9409" x="128.2432" y="202.9263">Start order preparation</text></g><g class="message" data-participant-1="Sys" data-participant-2="Sys"><line style="stroke:#181818;stroke-width:1;" x1="434.231" x2="476.231" y1="237.125" y2="237.125"/><line style="stroke:#181818;stroke-width:1;" x1="476.231" x2="476.231" y1="237.125" y2="250.125"/><line style="stroke:#181818;stroke-width:1;" x1="435.231" x2="476.231" y1="250.125" y2="250.125"/><polygon fill="#181818" points="445.231,246.125,435.231,250.125,445.231,254.125,441.231,250.125" style="stroke:#181818;stroke-width:1;"/><text fill="#000000" font-family="sans-serif" font-size="13" lengthAdjust="spacing" textLength="344.6143" x="441.231" y="232.0591">Load all orders and sort by priority, dueDate, orderId</text></g><path d="M10,265.125 L86.624,265.125 L86.624,272.2578 L76.624,282.2578 L10,282.2578 L10,265.125" fill="#EEEEEE" style="stroke:#000000;stroke-width:1.5;"/><rect fill="none" height="599.3438" style="stroke:#000000;stroke-width:1.5;" width="814.0659" x="10" y="265.125"/><text fill="#000000" font-family="sans-serif" font-size="13" font-weight="bold" lengthAdjust="spacing" textLength="31.624" x="25" y="278.1919">loop</text><text fill="#000000" font-family="sans-serif" font-size="11" font-weight="bold" lengthAdjust="spacing" textLength="101.186" x="101.624" y="277.3354">[For each order]</text><g class="message" data-participant-1="Sys" data-participant-2="Sys"><line style="stroke:#181818;stroke-width:1;" x1="434.231" x2="476.231" y1="303.3906" y2="303.3906"/><line style="stroke:#181818;stroke-width:1;" x1="476.231" x2="476.231" y1="303.3906" y2="316.3906"/><line style="stroke:#181818;stroke-width:1;" x1="435.231" x2="476.231" y1="316.3906" y2="316.3906"/><polygon fill="#181818" points="445.231,312.3906,435.231,316.3906,445.231,320.3906,441.231,316.3906" style="stroke:#181818;stroke-width:1;"/><text fill="#000000" font-family="sans-serif" font-size="13" lengthAdjust="spacing" textLength="128.1655" x="441.231" y="298.3247">Retrieve order lines</text></g><path d="M20,331.3906 L96.624,331.3906 L96.624,338.5234 L86.624,348.5234 L20,348.5234 L20,331.3906" fill="#EEEEEE" style="stroke:#000000;stroke-width:1.5;"/><rect fill="none" height="526.0781" style="stroke:#000000;stroke-width:1.5;" width="794.0659" x="20" y="331.3906"/><text fill="#000000" font-family="sans-serif" font-size="13" font-weight="bold" lengthAdjust="spacing" textLength="31.624" x="35" y="344.4575">loop</text><text fill="#000000" font-family="sans-serif" font-size="11" font-weight="bold" lengthAdjust="spacing" textLength="127.8481" x="111.624" y="343.6011">[For each order line]</text><g class="message" data-participant-1="Sys" data-participant-2="Sys"><line style="stroke:#181818;stroke-width:1;" x1="434.231" x2="476.231" y1="369.6563" y2="369.6563"/><line style="stroke:#181818;stroke-width:1;" x1="476.231" x2="476.231" y1="369.6563" y2="382.6563"/><line style="stroke:#181818;stroke-width:1;" x1="435.231" x2="476.231" y1="382.6563" y2="382.6563"/><polygon fill="#181818" points="445.231,378.6563,435.231,382.6563,445.231,386.6563,441.231,382.6563" style="stroke:#181818;stroke-width:1;"/><text fill="#000000" font-family="sans-serif" font-size="13" lengthAdjust="spacing" textLength="350.835" x="441.231" y="364.5903">Fetch valid boxes by SKU (FEFO/FIFO; expiry &gt; today)</text></g><path d="M30,397.6563 L94.4429,397.6563 L94.4429,404.7891 L84.4429,414.7891 L30,414.7891 L30,397.6563" fill="#EEEEEE" style="stroke:#000000;stroke-width:1.5;"/><rect fill="none" height="452.8125" style="stroke:#000000;stroke-width:1.5;" width="769.6313" x="30" y="397.6563"/><text fill="#000000" font-family="sans-serif" font-size="13" font-weight="bold" lengthAdjust="spacing" textLength="19.4429" x="45" y="410.7231">alt</text><text fill="#000000" font-family="sans-serif" font-size="11" font-weight="bold" lengthAdjust="spacing" textLength="104.3335" x="109.4429" y="409.8667">[Mode = STRICT]</text><g class="message" data-participant-1="Sys" data-participant-2="Sys"><line style="stroke:#181818;stroke-width:1;" x1="434.231" x2="476.231" y1="435.9219" y2="435.9219"/><line style="stroke:#181818;stroke-width:1;" x1="476.231" x2="476.231" y1="435.9219" y2="448.9219"/><line style="stroke:#181818;stroke-width:1;" x1="435.231" x2="476.231" y1="448.9219" y2="448.9219"/><polygon fill="#181818" points="445.231,444.9219,435.231,448.9219,445.231,452.9219,441.231,448.9219" style="stroke:#181818;stroke-width:1;"/><text fill="#000000" font-family="sans-serif" font-size="13" lengthAdjust="spacing" textLength="336.4004" x="441.231" y="430.856">Attempt full allocation (reserve requested quantity)</text></g><path d="M40,463.9219 L104.4429,463.9219 L104.4429,471.0547 L94.4429,481.0547 L40,481.0547 L40,463.9219" fill="#EEEEEE" style="stroke:#000000;stroke-width:1.5;"/><rect fill="none" height="174.4688" style="stroke:#000000;stroke-width:1.5;" width="725.9316" x="40" y="463.9219"/><text fill="#000000" font-family="sans-serif" font-size="13" font-weight="bold" lengthAdjust="spacing" textLength="19.4429" x="55" y="476.9888">alt</text><text fill="#000000" font-family="sans-serif" font-size="11" font-weight="bold" lengthAdjust="spacing" textLength="107.019" x="119.4429" y="476.1323">[Sufficient stock]</text><g class="message" data-participant-1="Sys" data-participant-2="Sys"><line style="stroke:#181818;stroke-width:1;" x1="434.231" x2="476.231" y1="502.1875" y2="502.1875"/><line style="stroke:#181818;stroke-width:1;" x1="476.231" x2="476.231" y1="502.1875" y2="515.1875"/><line style="stroke:#181818;stroke-width:1;" x1="435.231" x2="476.231" y1="515.1875" y2="515.1875"/><polygon fill="#181818" points="445.231,511.1875,435.231,515.1875,445.231,519.1875,441.231,515.1875" style="stroke:#181818;stroke-width:1;"/><text fill="#000000" font-family="sans-serif" font-size="13" lengthAdjust="spacing" textLength="193.2354" x="441.231" y="497.1216">Deduct quantities from boxes</text></g><g class="message" data-participant-1="Sys" data-participant-2="WP"><polygon fill="#181818" points="132.2432,540.3203,122.2432,544.3203,132.2432,548.3203,128.2432,544.3203" style="stroke:#181818;stroke-width:1;"/><line style="stroke:#181818;stroke-width:1;stroke-dasharray:2,2;" x1="126.2432" x2="423.231" y1="544.3203" y2="544.3203"/><text fill="#000000" font-family="sans-serif" font-size="13" lengthAdjust="spacing" textLength="80.9771" x="138.2432" y="539.2544">Line marked</text><text fill="#000000" font-family="sans-serif" font-size="13" font-weight="bold" lengthAdjust="spacing" textLength="64.5811" x="223.3525" y="539.2544">ELIGIBLE</text><text fill="#000000" font-family="sans-serif" font-size="13" lengthAdjust="spacing" textLength="99.5313" x="292.0659" y="539.2544">(100% fulfilled)</text></g><line style="stroke:#000000;stroke-width:1;stroke-dasharray:2,2;" x1="40" x2="765.9316" y1="553.3203" y2="553.3203"/><text fill="#000000" font-family="sans-serif" font-size="11" font-weight="bold" lengthAdjust="spacing" textLength="117.5679" x="45" y="563.5308">[Insufficient stock]</text><g class="message" data-participant-1="Sys" data-participant-2="Sys"><line style="stroke:#181818;stroke-width:1;" x1="434.231" x2="476.231" y1="588.2578" y2="588.2578"/><line style="stroke:#181818;stroke-width:1;" x1="476.231" x2="476.231" y1="588.2578" y2="601.2578"/><line style="stroke:#181818;stroke-width:1;" x1="435.231" x2="476.231" y1="601.2578" y2="601.2578"/><polygon fill="#181818" points="445.231,597.2578,435.231,601.2578,445.231,605.2578,441.231,601.2578" style="stroke:#181818;stroke-width:1;"/><text fill="#000000" font-family="sans-serif" font-size="13" lengthAdjust="spacing" textLength="302.7007" x="441.231" y="583.1919">Revert reservations (restoreBoxToWarehouse)</text></g><g class="message" data-participant-1="Sys" data-participant-2="WP"><polygon fill="#181818" points="132.2432,626.3906,122.2432,630.3906,132.2432,634.3906,128.2432,630.3906" style="stroke:#181818;stroke-width:1;"/><line style="stroke:#181818;stroke-width:1;stroke-dasharray:2,2;" x1="126.2432" x2="423.231" y1="630.3906" y2="630.3906"/><text fill="#000000" font-family="sans-serif" font-size="13" lengthAdjust="spacing" textLength="80.9771" x="138.2432" y="625.3247">Line marked</text><text fill="#000000" font-family="sans-serif" font-size="13" font-weight="bold" lengthAdjust="spacing" textLength="132.4375" x="223.3525" y="625.3247">UNDISPATCHABLE</text><text fill="#000000" font-family="sans-serif" font-size="13" lengthAdjust="spacing" textLength="30.7671" x="359.9224" y="625.3247">(0%)</text></g><line style="stroke:#000000;stroke-width:1;stroke-dasharray:2,2;" x1="30" x2="799.6313" y1="646.3906" y2="646.3906"/><text fill="#000000" font-family="sans-serif" font-size="11" font-weight="bold" lengthAdjust="spacing" textLength="112.9326" x="35" y="656.6011">[Mode = PARTIAL]</text><g class="message" data-participant-1="Sys" data-participant-2="Sys"><line style="stroke:#181818;stroke-width:1;" x1="434.231" x2="476.231" y1="681.3281" y2="681.3281"/><line style="stroke:#181818;stroke-width:1;" x1="476.231" x2="476.231" y1="681.3281" y2="694.3281"/><line style="stroke:#181818;stroke-width:1;" x1="435.231" x2="476.231" y1="694.3281" y2="694.3281"/><polygon fill="#181818" points="445.231,690.3281,435.231,694.3281,445.231,698.3281,441.231,694.3281" style="stroke:#181818;stroke-width:1;"/><text fill="#000000" font-family="sans-serif" font-size="13" lengthAdjust="spacing" textLength="173.418" x="441.231" y="676.2622">Allocate available quantity</text></g><path d="M40,709.3281 L104.4429,709.3281 L104.4429,716.4609 L94.4429,726.4609 L40,726.4609 L40,709.3281" fill="#EEEEEE" style="stroke:#000000;stroke-width:1.5;"/><rect fill="none" height="134.1406" style="stroke:#000000;stroke-width:1.5;" width="474.064" x="40" y="709.3281"/><text fill="#000000" font-family="sans-serif" font-size="13" font-weight="bold" lengthAdjust="spacing" textLength="19.4429" x="55" y="722.395">alt</text><text fill="#000000" font-family="sans-serif" font-size="11" font-weight="bold" lengthAdjust="spacing" textLength="127.0962" x="119.4429" y="721.5386">[No boxes available]</text><g class="message" data-participant-1="Sys" data-participant-2="WP"><polygon fill="#181818" points="132.2432,743.5938,122.2432,747.5938,132.2432,751.5938,128.2432,747.5938" style="stroke:#181818;stroke-width:1;"/><line style="stroke:#181818;stroke-width:1;stroke-dasharray:2,2;" x1="126.2432" x2="423.231" y1="747.5938" y2="747.5938"/><text fill="#000000" font-family="sans-serif" font-size="13" lengthAdjust="spacing" textLength="80.9771" x="138.2432" y="742.5278">Line marked</text><text fill="#000000" font-family="sans-serif" font-size="13" font-weight="bold" lengthAdjust="spacing" textLength="132.4375" x="223.3525" y="742.5278">UNDISPATCHABLE</text><text fill="#000000" font-family="sans-serif" font-size="13" lengthAdjust="spacing" textLength="30.7671" x="359.9224" y="742.5278">(0%)</text></g><line style="stroke:#000000;stroke-width:1;stroke-dasharray:2,2;" x1="40" x2="514.064" y1="756.5938" y2="756.5938"/><text fill="#000000" font-family="sans-serif" font-size="11" font-weight="bold" lengthAdjust="spacing" textLength="148.1294" x="45" y="766.8042">[Partial stock available]</text><g class="message" data-participant-1="Sys" data-participant-2="WP"><polygon fill="#181818" points="132.2432,787.5313,122.2432,791.5313,132.2432,795.5313,128.2432,791.5313" style="stroke:#181818;stroke-width:1;"/><line style="stroke:#181818;stroke-width:1;stroke-dasharray:2,2;" x1="126.2432" x2="423.231" y1="791.5313" y2="791.5313"/><text fill="#000000" font-family="sans-serif" font-size="13" lengthAdjust="spacing" textLength="80.9771" x="138.2432" y="786.4653">Line marked</text><text fill="#000000" font-family="sans-serif" font-size="13" font-weight="bold" lengthAdjust="spacing" textLength="61.6484" x="223.3525" y="786.4653">PARTIAL</text><text fill="#000000" font-family="sans-serif" font-size="13" lengthAdjust="spacing" textLength="58.2017" x="289.1333" y="786.4653">(&lt;100%)</text></g><line style="stroke:#000000;stroke-width:1;stroke-dasharray:2,2;" x1="40" x2="514.064" y1="800.5313" y2="800.5313"/><text fill="#000000" font-family="sans-serif" font-size="11" font-weight="bold" lengthAdjust="spacing" textLength="97.3779" x="45" y="810.7417">[Fully satisfied]</text><g class="message" data-participant-1="Sys" data-participant-2="WP"><polygon fill="#181818" points="132.2432,831.4688,122.2432,835.4688,132.2432,839.4688,128.2432,835.4688" style="stroke:#181818;stroke-width:1;"/><line style="stroke:#181818;stroke-width:1;stroke-dasharray:2,2;" x1="126.2432" x2="423.231" y1="835.4688" y2="835.4688"/><text fill="#000000" font-family="sans-serif" font-size="13" lengthAdjust="spacing" textLength="80.9771" x="138.2432" y="830.4028">Line marked</text><text fill="#000000" font-family="sans-serif" font-size="13" font-weight="bold" lengthAdjust="spacing" textLength="64.5811" x="223.3525" y="830.4028">ELIGIBLE</text><text fill="#000000" font-family="sans-serif" font-size="13" lengthAdjust="spacing" textLength="47.3091" x="292.0659" y="830.4028">(100%)</text></g><g class="message" data-participant-1="Sys" data-participant-2="Sys"><line style="stroke:#181818;stroke-width:1;" x1="434.231" x2="476.231" y1="892.6016" y2="892.6016"/><line style="stroke:#181818;stroke-width:1;" x1="476.231" x2="476.231" y1="892.6016" y2="905.6016"/><line style="stroke:#181818;stroke-width:1;" x1="435.231" x2="476.231" y1="905.6016" y2="905.6016"/><polygon fill="#181818" points="445.231,901.6016,435.231,905.6016,445.231,909.6016,441.231,905.6016" style="stroke:#181818;stroke-width:1;"/><text fill="#000000" font-family="sans-serif" font-size="13" lengthAdjust="spacing" textLength="284.9717" x="441.231" y="887.5356">Build order summaries (PrepareOrdersDTO)</text></g><g class="message" data-participant-1="Sys" data-participant-2="Sys"><line style="stroke:#181818;stroke-width:1;" x1="434.231" x2="476.231" y1="934.7344" y2="934.7344"/><line style="stroke:#181818;stroke-width:1;" x1="476.231" x2="476.231" y1="934.7344" y2="947.7344"/><line style="stroke:#181818;stroke-width:1;" x1="435.231" x2="476.231" y1="947.7344" y2="947.7344"/><polygon fill="#181818" points="445.231,943.7344,435.231,947.7344,445.231,951.7344,441.231,947.7344" style="stroke:#181818;stroke-width:1;"/><text fill="#000000" font-family="sans-serif" font-size="13" lengthAdjust="spacing" textLength="268.9248" x="441.231" y="929.6685">Build allocation rows (AllocationRowDTO)</text></g><g class="message" data-participant-1="Sys" data-participant-2="Sys"><line style="stroke:#181818;stroke-width:1;" x1="434.231" x2="476.231" y1="976.8672" y2="976.8672"/><line style="stroke:#181818;stroke-width:1;" x1="476.231" x2="476.231" y1="976.8672" y2="989.8672"/><line style="stroke:#181818;stroke-width:1;" x1="435.231" x2="476.231" y1="989.8672" y2="989.8672"/><polygon fill="#181818" points="445.231,985.8672,435.231,989.8672,445.231,993.8672,441.231,989.8672" style="stroke:#181818;stroke-width:1;"/><text fill="#000000" font-family="sans-serif" font-size="13" lengthAdjust="spacing" textLength="300.5234" x="441.231" y="971.8013">Update warehouse inventory (indexInventory)</text></g><path d="M40,1004.8672 L104.4429,1004.8672 L104.4429,1012 L94.4429,1022 L40,1022 L40,1004.8672" fill="#EEEEEE" style="stroke:#000000;stroke-width:1.5;"/><rect fill="none" height="90.2031" style="stroke:#000000;stroke-width:1.5;" width="474.064" x="40" y="1004.8672"/><text fill="#000000" font-family="sans-serif" font-size="13" font-weight="bold" lengthAdjust="spacing" textLength="19.4429" x="55" y="1017.9341">alt</text><text fill="#000000" font-family="sans-serif" font-size="11" font-weight="bold" lengthAdjust="spacing" textLength="129.8247" x="119.4429" y="1017.0776">[Allocations created]</text><g class="message" data-participant-1="Sys" data-participant-2="WP"><polygon fill="#181818" points="132.2432,1039.1328,122.2432,1043.1328,132.2432,1047.1328,128.2432,1043.1328" style="stroke:#181818;stroke-width:1;"/><line style="stroke:#181818;stroke-width:1;stroke-dasharray:2,2;" x1="126.2432" x2="423.231" y1="1043.1328" y2="1043.1328"/><text fill="#000000" font-family="sans-serif" font-size="13" lengthAdjust="spacing" textLength="213.1733" x="138.2432" y="1038.0669">Display summaries + allocations</text></g><line style="stroke:#000000;stroke-width:1;stroke-dasharray:2,2;" x1="40" x2="514.064" y1="1052.1328" y2="1052.1328"/><text fill="#000000" font-family="sans-serif" font-size="11" font-weight="bold" lengthAdjust="spacing" textLength="165.9722" x="45" y="1062.3433">[No allocations generated]</text><g class="message" data-participant-1="Sys" data-participant-2="WP"><polygon fill="#181818" points="132.2432,1083.0703,122.2432,1087.0703,132.2432,1091.0703,128.2432,1087.0703" style="stroke:#181818;stroke-width:1;"/><line style="stroke:#181818;stroke-width:1;stroke-dasharray:2,2;" x1="126.2432" x2="423.231" y1="1087.0703" y2="1087.0703"/><text fill="#000000" font-family="sans-serif" font-size="13" lengthAdjust="spacing" textLength="176.2173" x="138.2432" y="1082.0044">"No allocations performed"</text></g><!--SRC=[hLLHRzem47xFhpWXLGBMQjrhjrM2qcpHM8a8Y6SJNrQhJfpQ3YN_VcSdfI6mXsxZ1MFVVVVTzvsD5LOY9CaChY3MM3ADiD0SjO4WOAbL6WORsdnKbK689IiAr0DW1ZPnGD5MfA9aXUr69RMncFiWMWR19eQhMxUyWGGbfXQOb2fbLgW2SiKHXibg6TsjWAh5a-Kgcin70SN35ULjuXkuKqKcT0x6foFtMSV0bhXGFZ67qlVXuLqBOiSiDamyPfinLumx8asI0LPmC8f0jZKX2AM5hI-1LpYZzCicAk9189Kg8IIcoDB7PZi0-dInbsYrm1ssXAGeaAgxg3FP_jWVzc52j1IqOr9msAez6iSj-R66ONWVBZw6KRZu3BWlXQxX5gpYh1u51oGcBVnqwdw5Hjx3IR_En99VfOMi8ZawtWmr6jJKXiRd2eqJ_haYiqcPqH6OAvLKMKR3W3GBnghqwIYWNt66lA8vQD44TPPfbJTDdazi9s5EMa7Ez1Dn6O_lvz6tQ3g_7uzX-Edw-i9ra0afaH_pGqbZ6HNcFHINv1zDGoE1ryDuGUXAu5JjL-emyADtC5u_pA8adgpklazQtjSNFQu5V_FG4szDR6_6drriZ4DWEoOaszAzVdNhnAm7rGxK8VR_zk1en-vrOBAH-gyAjHsx2b-SlMUAX3IoDHZonsG2-J_CpgaB_RNxzkvqLPzMGlBs8fig9tWtpSFsBMsUqjbgCJgJrBbfMhrGqkImiLGl9qdhaZjtNmxlh2XsDCgABlzG51ptqUjlUWISoMzm1bADbCo3lYOpOKh9wWxr3nrU9l0YqxHqzk0Nqd_0MRH1Bx94dIcT8nyqmd7iliU_0G00]--></g></svg>