<svg xmlns="http://www.w3.org/2000/svg" xmlns:xlink="http://www.w3.org/1999/xlink" contentStyleType="text/css" data-diagram-type="CLASS" height="1288px" preserveAspectRatio="none" style="width:1373px;height:1288px;background:#FFFFFF;" version="1.1" viewBox="0 0 1373 1288" width="1373px" zoomAndPan="magnify"><title>US12 - Minimal Backbone Network (Class Diagram)</title><defs/><g><g class="title" data-source-line="1"><text fill="#000000" font-family="sans-serif" font-size="14" font-weight="bold" lengthAdjust="spacing" textLength="402.6299" x="478.1851" y="22.9951">US12 - Minimal Backbone Network (Class Diagram)</text></g><!--cluster UI Layer--><g class="cluster" data-qualified-name="UI Layer" data-source-line="3" id="ent0002"><path d="M488.5,43.2969 L554.8447,43.2969 A3.75,3.75 0 0 1 557.3447,45.7969 L564.3447,65.5938 L841.5,65.5938 A2.5,2.5 0 0 1 844,68.0938 L844,204.9769 A2.5,2.5 0 0 1 841.5,207.4769 L488.5,207.4769 A2.5,2.5 0 0 1 486,204.9769 L486,45.7969 A2.5,2.5 0 0 1 488.5,43.2969" fill="none" style="stroke:#000000;stroke-width:1.5;"/><line style="stroke:#000000;stroke-width:1.5;" x1="486" x2="564.3447" y1="65.5938" y2="65.5938"/><text fill="#000000" font-family="sans-serif" font-size="14" font-weight="bold" lengthAdjust="spacing" textLength="65.3447" x="490" y="58.292">UI Layer</text></g><!--cluster Controller Layer--><g class="cluster" data-qualified-name="Controller Layer" data-source-line="12" id="ent0004"><path d="M583.5,231.4769 L712.3389,231.4769 A3.75,3.75 0 0 1 714.8389,233.9769 L721.8389,253.7737 L1288.5,253.7737 A2.5,2.5 0 0 1 1291,256.2737 L1291,360.5769 A2.5,2.5 0 0 1 1288.5,363.0769 L583.5,363.0769 A2.5,2.5 0 0 1 581,360.5769 L581,233.9769 A2.5,2.5 0 0 1 583.5,231.4769" fill="none" style="stroke:#000000;stroke-width:1.5;"/><line style="stroke:#000000;stroke-width:1.5;" x1="581" x2="721.8389" y1="253.7737" y2="253.7737"/><text fill="#000000" font-family="sans-serif" font-size="14" font-weight="bold" lengthAdjust="spacing" textLength="127.8389" x="585" y="246.472">Controller Layer</text></g><!--cluster Service Layer--><g class="cluster" data-qualified-name="Service Layer" data-source-line="19" id="ent0006"><path d="M658.5,387.0769 L766.4688,387.0769 A3.75,3.75 0 0 1 768.9688,389.5769 L775.9688,409.3738 L1363.5,409.3738 A2.5,2.5 0 0 1 1366,411.8738 L1366,499.8669 A2.5,2.5 0 0 1 1363.5,502.3669 L658.5,502.3669 A2.5,2.5 0 0 1 656,499.8669 L656,389.5769 A2.5,2.5 0 0 1 658.5,387.0769" fill="none" style="stroke:#000000;stroke-width:1.5;"/><line style="stroke:#000000;stroke-width:1.5;" x1="656" x2="775.9688" y1="409.3738" y2="409.3738"/><text fill="#000000" font-family="sans-serif" font-size="14" font-weight="bold" lengthAdjust="spacing" textLength="106.9688" x="660" y="402.072">Service Layer</text></g><!--cluster Domain Layer--><g class="cluster" data-qualified-name="Domain Layer" data-source-line="25" id="ent0008"><path d="M534.5,764.7469 L644.3076,764.7469 A3.75,3.75 0 0 1 646.8076,767.2469 L653.8076,787.0437 L974.5,787.0437 A2.5,2.5 0 0 1 977,789.5437 L977,1073.1069 A2.5,2.5 0 0 1 974.5,1075.6069 L534.5,1075.6069 A2.5,2.5 0 0 1 532,1073.1069 L532,767.2469 A2.5,2.5 0 0 1 534.5,764.7469" fill="none" style="stroke:#000000;stroke-width:1.5;"/><line style="stroke:#000000;stroke-width:1.5;" x1="532" x2="653.8076" y1="787.0437" y2="787.0437"/><text fill="#000000" font-family="sans-serif" font-size="14" font-weight="bold" lengthAdjust="spacing" textLength="108.8076" x="536" y="779.742">Domain Layer</text></g><!--cluster Data Structures--><g class="cluster" data-qualified-name="Data Structures" data-source-line="56" id="ent0011"><path d="M132.5,526.3669 L258.9189,526.3669 A3.75,3.75 0 0 1 261.4189,528.8669 L268.4189,548.6637 L505.5,548.6637 A2.5,2.5 0 0 1 508,551.1637 L508,1278.8869 A2.5,2.5 0 0 1 505.5,1281.3869 L132.5,1281.3869 A2.5,2.5 0 0 1 130,1278.8869 L130,528.8669 A2.5,2.5 0 0 1 132.5,526.3669" fill="none" style="stroke:#000000;stroke-width:1.5;"/><line style="stroke:#000000;stroke-width:1.5;" x1="130" x2="268.4189" y1="548.6637" y2="548.6637"/><text fill="#000000" font-family="sans-serif" font-size="14" font-weight="bold" lengthAdjust="spacing" textLength="125.4189" x="134" y="541.362">Data Structures</text></g><!--cluster Utils Layer--><g class="cluster" data-qualified-name="Utils Layer" data-source-line="82" id="ent0015"><path d="M8.5,387.0769 L94.2588,387.0769 A3.75,3.75 0 0 1 96.7588,389.5769 L103.7588,409.3738 L629.5,409.3738 A2.5,2.5 0 0 1 632,411.8738 L632,499.8669 A2.5,2.5 0 0 1 629.5,502.3669 L8.5,502.3669 A2.5,2.5 0 0 1 6,499.8669 L6,389.5769 A2.5,2.5 0 0 1 8.5,387.0769" fill="none" style="stroke:#000000;stroke-width:1.5;"/><line style="stroke:#000000;stroke-width:1.5;" x1="6" x2="103.7588" y1="409.3738" y2="409.3738"/><text fill="#000000" font-family="sans-serif" font-size="14" font-weight="bold" lengthAdjust="spacing" textLength="84.7588" x="10" y="402.072">Utils Layer</text></g><!--class MinimalBackboneUI--><g class="entity" data-qualified-name="UI Layer.MinimalBackboneUI" data-source-line="4" id="ent0003"><rect fill="#F1F1F1" height="113.1875" rx="2.5" ry="2.5" style="stroke:#181818;stroke-width:0.5;" width="326.1797" x="501.91" y="78.2969"/><ellipse cx="591.6795" cy="94.2969" fill="#ADD1B2" rx="11" ry="11" style="stroke:#181818;stroke-width:1;"/><path d="M594.6483,99.9375 Q594.0702,100.2344 593.4295,100.375 Q592.7889,100.5313 592.0858,100.5313 Q589.5858,100.5313 588.2577,98.8906 Q586.9452,97.2344 586.9452,94.1094 Q586.9452,90.9844 588.2577,89.3281 Q589.5858,87.6719 592.0858,87.6719 Q592.7889,87.6719 593.4295,87.8281 Q594.0858,87.9844 594.6483,88.2813 L594.6483,91 Q594.0233,90.4219 593.4295,90.1563 Q592.8358,89.875 592.2108,89.875 Q590.867,89.875 590.1795,90.9531 Q589.492,92.0156 589.492,94.1094 Q589.492,96.2031 590.1795,97.2813 Q590.867,98.3438 592.2108,98.3438 Q592.8358,98.3438 593.4295,98.0781 Q594.0233,97.7969 594.6483,97.2188 L594.6483,99.9375 Z " fill="#000000"/><text fill="#000000" font-family="sans-serif" font-size="14" lengthAdjust="spacing" textLength="138.1406" x="612.1795" y="99.1436">MinimalBackboneUI</text><line style="stroke:#181818;stroke-width:0.5;" x1="502.91" x2="827.0897" y1="110.2969" y2="110.2969"/><g data-visibility-modifier="PRIVATE_FIELD"><rect fill="none" height="6" style="stroke:#C82930;stroke-width:1;" width="6" x="509.91" y="120.9453"/></g><text fill="#000000" font-family="sans-serif" font-size="14" lengthAdjust="spacing" textLength="300.1797" x="521.91" y="127.292">railwayGraph : Graph&lt;RailNode, RailLine&gt;</text><g data-visibility-modifier="PRIVATE_FIELD"><rect fill="none" height="6" style="stroke:#C82930;stroke-width:1;" width="6" x="509.91" y="137.2422"/></g><text fill="#000000" font-family="sans-serif" font-size="14" lengthAdjust="spacing" textLength="85.8867" x="521.91" y="143.5889">sc : Scanner</text><line style="stroke:#181818;stroke-width:0.5;" x1="502.91" x2="827.0897" y1="150.8906" y2="150.8906"/><g data-visibility-modifier="PUBLIC_METHOD"><ellipse cx="512.91" cy="164.5391" fill="#84BE84" rx="3" ry="3" style="stroke:#038048;stroke-width:1;"/></g><text fill="#000000" font-family="sans-serif" font-size="14" lengthAdjust="spacing" textLength="34.4258" x="521.91" y="167.8857">run()</text><g data-visibility-modifier="PRIVATE_METHOD"><rect fill="#F24D5C" height="6" style="stroke:#C82930;stroke-width:1;" width="6" x="509.91" y="177.8359"/></g><text fill="#000000" font-family="sans-serif" font-size="14" lengthAdjust="spacing" textLength="87.6641" x="521.91" y="184.1826">waitReturn()</text></g><!--class MinimalBackboneController--><g class="entity" data-qualified-name="Controller Layer.MinimalBackboneController" data-source-line="13" id="ent0005"><rect fill="#F1F1F1" height="80.5938" rx="2.5" ry="2.5" style="stroke:#181818;stroke-width:0.5;" width="677.0479" x="597.48" y="266.4769"/><ellipse cx="835.2852" cy="282.4769" fill="#ADD1B2" rx="11" ry="11" style="stroke:#181818;stroke-width:1;"/><path d="M838.2539,288.1175 Q837.6758,288.4144 837.0352,288.555 Q836.3946,288.7112 835.6914,288.7112 Q833.1914,288.7112 831.8633,287.0706 Q830.5508,285.4144 830.5508,282.2894 Q830.5508,279.1644 831.8633,277.5081 Q833.1914,275.8519 835.6914,275.8519 Q836.3946,275.8519 837.0352,276.0081 Q837.6914,276.1644 838.2539,276.4612 L838.2539,279.18 Q837.6289,278.6019 837.0352,278.3362 Q836.4414,278.055 835.8164,278.055 Q834.4727,278.055 833.7852,279.1331 Q833.0977,280.1956 833.0977,282.2894 Q833.0977,284.3831 833.7852,285.4612 Q834.4727,286.5237 835.8164,286.5237 Q836.4414,286.5237 837.0352,286.2581 Q837.6289,285.9769 838.2539,285.3987 L838.2539,288.1175 Z " fill="#000000"/><text fill="#000000" font-family="sans-serif" font-size="14" lengthAdjust="spacing" textLength="192.9375" x="855.7852" y="287.3236">MinimalBackboneController</text><line style="stroke:#181818;stroke-width:0.5;" x1="598.48" x2="1273.5279" y1="298.4769" y2="298.4769"/><g data-visibility-modifier="PRIVATE_FIELD"><rect fill="none" height="6" style="stroke:#C82930;stroke-width:1;" width="6" x="605.48" y="309.1253"/></g><text fill="#000000" font-family="sans-serif" font-size="14" lengthAdjust="spacing" textLength="239.2715" x="617.48" y="315.472">service : MinimalBackboneService</text><line style="stroke:#181818;stroke-width:0.5;" x1="598.48" x2="1273.5279" y1="322.7737" y2="322.7737"/><g data-visibility-modifier="PUBLIC_METHOD"><ellipse cx="608.48" cy="336.4222" fill="#84BE84" rx="3" ry="3" style="stroke:#038048;stroke-width:1;"/></g><text fill="#000000" font-family="sans-serif" font-size="14" lengthAdjust="spacing" textLength="651.0479" x="617.48" y="339.7689">computeMinimalBackbone(graph : Graph&lt;RailNode, RailLine&gt;) : Graph&lt;RailNode, RailLine&gt;</text></g><!--class MinimalBackboneService--><g class="entity" data-qualified-name="Service Layer.MinimalBackboneService" data-source-line="20" id="ent0007"><rect fill="#F1F1F1" height="64.2969" rx="2.5" ry="2.5" style="stroke:#181818;stroke-width:0.5;" width="677.0479" x="672.48" y="422.0769"/><ellipse cx="919.001" cy="438.0769" fill="#ADD1B2" rx="11" ry="11" style="stroke:#181818;stroke-width:1;"/><path d="M921.9697,443.7175 Q921.3916,444.0144 920.751,444.155 Q920.1104,444.3113 919.4072,444.3113 Q916.9072,444.3113 915.5791,442.6706 Q914.2666,441.0144 914.2666,437.8894 Q914.2666,434.7644 915.5791,433.1081 Q916.9072,431.4519 919.4072,431.4519 Q920.1104,431.4519 920.751,431.6081 Q921.4072,431.7644 921.9697,432.0613 L921.9697,434.78 Q921.3447,434.2019 920.751,433.9363 Q920.1572,433.655 919.5322,433.655 Q918.1885,433.655 917.501,434.7331 Q916.8135,435.7956 916.8135,437.8894 Q916.8135,439.9831 917.501,441.0613 Q918.1885,442.1238 919.5322,442.1238 Q920.1572,442.1238 920.751,441.8581 Q921.3447,441.5769 921.9697,440.9988 L921.9697,443.7175 Z " fill="#000000"/><text fill="#000000" font-family="sans-serif" font-size="14" lengthAdjust="spacing" textLength="175.5059" x="939.501" y="442.9236">MinimalBackboneService</text><line style="stroke:#181818;stroke-width:0.5;" x1="673.48" x2="1348.5279" y1="454.0769" y2="454.0769"/><line style="stroke:#181818;stroke-width:0.5;" x1="673.48" x2="1348.5279" y1="462.0769" y2="462.0769"/><g data-visibility-modifier="PUBLIC_METHOD"><ellipse cx="683.48" cy="475.7253" fill="#84BE84" rx="3" ry="3" style="stroke:#038048;stroke-width:1;"/></g><text fill="#000000" font-family="sans-serif" font-size="14" lengthAdjust="spacing" textLength="651.0479" x="692.48" y="479.072">computeMinimalBackbone(graph : Graph&lt;RailNode, RailLine&gt;) : Graph&lt;RailNode, RailLine&gt;</text></g><!--class RailNode--><g class="entity" data-qualified-name="Domain Layer.RailNode" data-source-line="26" id="ent0009"><rect fill="#F1F1F1" height="259.8594" rx="2.5" ry="2.5" style="stroke:#181818;stroke-width:0.5;" width="163.4434" x="797.28" y="799.7469"/><ellipse cx="843.4397" cy="815.7469" fill="#ADD1B2" rx="11" ry="11" style="stroke:#181818;stroke-width:1;"/><path d="M846.4084,821.3875 Q845.8303,821.6844 845.1897,821.825 Q844.549,821.9812 843.8459,821.9812 Q841.3459,821.9812 840.0178,820.3406 Q838.7053,818.6844 838.7053,815.5594 Q838.7053,812.4344 840.0178,810.7781 Q841.3459,809.1219 843.8459,809.1219 Q844.549,809.1219 845.1897,809.2781 Q845.8459,809.4344 846.4084,809.7312 L846.4084,812.45 Q845.7834,811.8719 845.1897,811.6062 Q844.5959,811.325 843.9709,811.325 Q842.6272,811.325 841.9397,812.4031 Q841.2522,813.4656 841.2522,815.5594 Q841.2522,817.6531 841.9397,818.7312 Q842.6272,819.7937 843.9709,819.7937 Q844.5959,819.7937 845.1897,819.5281 Q845.7834,819.2469 846.4084,818.6687 L846.4084,821.3875 Z " fill="#000000"/><text fill="#000000" font-family="sans-serif" font-size="14" lengthAdjust="spacing" textLength="62.624" x="863.9397" y="820.5936">RailNode</text><line style="stroke:#181818;stroke-width:0.5;" x1="798.28" x2="959.7234" y1="831.7469" y2="831.7469"/><g data-visibility-modifier="PRIVATE_FIELD"><rect fill="none" height="6" style="stroke:#C82930;stroke-width:1;" width="6" x="805.28" y="842.3953"/></g><text fill="#000000" font-family="sans-serif" font-size="14" lengthAdjust="spacing" textLength="68.1748" x="817.28" y="848.742">id : String</text><g data-visibility-modifier="PRIVATE_FIELD"><rect fill="none" height="6" style="stroke:#C82930;stroke-width:1;" width="6" x="805.28" y="858.6922"/></g><text fill="#000000" font-family="sans-serif" font-size="14" lengthAdjust="spacing" textLength="95.1016" x="817.28" y="865.0389">name : String</text><g data-visibility-modifier="PRIVATE_FIELD"><rect fill="none" height="6" style="stroke:#C82930;stroke-width:1;" width="6" x="805.28" y="874.9891"/></g><text fill="#000000" font-family="sans-serif" font-size="14" lengthAdjust="spacing" textLength="79.29" x="817.28" y="881.3357">lat : double</text><g data-visibility-modifier="PRIVATE_FIELD"><rect fill="none" height="6" style="stroke:#C82930;stroke-width:1;" width="6" x="805.28" y="891.2859"/></g><text fill="#000000" font-family="sans-serif" font-size="14" lengthAdjust="spacing" textLength="82.6602" x="817.28" y="897.6326">lon : double</text><g data-visibility-modifier="PRIVATE_FIELD"><rect fill="none" height="6" style="stroke:#C82930;stroke-width:1;" width="6" x="805.28" y="907.5828"/></g><text fill="#000000" font-family="sans-serif" font-size="14" lengthAdjust="spacing" textLength="69.6172" x="817.28" y="913.9295">x : double</text><g data-visibility-modifier="PRIVATE_FIELD"><rect fill="none" height="6" style="stroke:#C82930;stroke-width:1;" width="6" x="805.28" y="923.8797"/></g><text fill="#000000" font-family="sans-serif" font-size="14" lengthAdjust="spacing" textLength="69.6172" x="817.28" y="930.2264">y : double</text><line style="stroke:#181818;stroke-width:0.5;" x1="798.28" x2="959.7234" y1="937.5281" y2="937.5281"/><g data-visibility-modifier="PUBLIC_METHOD"><ellipse cx="808.28" cy="951.1766" fill="#84BE84" rx="3" ry="3" style="stroke:#038048;stroke-width:1;"/></g><text fill="#000000" font-family="sans-serif" font-size="14" lengthAdjust="spacing" textLength="102.3271" x="817.28" y="954.5232">getId() : String</text><g data-visibility-modifier="PUBLIC_METHOD"><ellipse cx="808.28" cy="967.4734" fill="#84BE84" rx="3" ry="3" style="stroke:#038048;stroke-width:1;"/></g><text fill="#000000" font-family="sans-serif" font-size="14" lengthAdjust="spacing" textLength="130.6143" x="817.28" y="970.8201">getName() : String</text><g data-visibility-modifier="PUBLIC_METHOD"><ellipse cx="808.28" cy="983.7703" fill="#84BE84" rx="3" ry="3" style="stroke:#038048;stroke-width:1;"/></g><text fill="#000000" font-family="sans-serif" font-size="14" lengthAdjust="spacing" textLength="117.1133" x="817.28" y="987.117">getLat() : double</text><g data-visibility-modifier="PUBLIC_METHOD"><ellipse cx="808.28" cy="1000.0672" fill="#84BE84" rx="3" ry="3" style="stroke:#038048;stroke-width:1;"/></g><text fill="#000000" font-family="sans-serif" font-size="14" lengthAdjust="spacing" textLength="120.4834" x="817.28" y="1003.4139">getLon() : double</text><g data-visibility-modifier="PUBLIC_METHOD"><ellipse cx="808.28" cy="1016.3641" fill="#84BE84" rx="3" ry="3" style="stroke:#038048;stroke-width:1;"/></g><text fill="#000000" font-family="sans-serif" font-size="14" lengthAdjust="spacing" textLength="104.8359" x="817.28" y="1019.7107">getX() : double</text><g data-visibility-modifier="PUBLIC_METHOD"><ellipse cx="808.28" cy="1032.6609" fill="#84BE84" rx="3" ry="3" style="stroke:#038048;stroke-width:1;"/></g><text fill="#000000" font-family="sans-serif" font-size="14" lengthAdjust="spacing" textLength="103.7969" x="817.28" y="1036.0076">getY() : double</text><g data-visibility-modifier="PUBLIC_METHOD"><ellipse cx="808.28" cy="1048.9578" fill="#84BE84" rx="3" ry="3" style="stroke:#038048;stroke-width:1;"/></g><text fill="#000000" font-family="sans-serif" font-size="14" lengthAdjust="spacing" textLength="137.4434" x="817.28" y="1052.3045">vertexKey() : String</text></g><!--class RailLine--><g class="entity" data-qualified-name="Domain Layer.RailLine" data-source-line="42" id="ent0010"><rect fill="#F1F1F1" height="210.9688" rx="2.5" ry="2.5" style="stroke:#181818;stroke-width:0.5;" width="214.1113" x="547.94" y="824.1869"/><ellipse cx="623.1148" cy="840.1869" fill="#ADD1B2" rx="11" ry="11" style="stroke:#181818;stroke-width:1;"/><path d="M626.0836,845.8275 Q625.5054,846.1244 624.8648,846.265 Q624.2242,846.4212 623.5211,846.4212 Q621.0211,846.4212 619.6929,844.7806 Q618.3804,843.1244 618.3804,839.9994 Q618.3804,836.8744 619.6929,835.2181 Q621.0211,833.5619 623.5211,833.5619 Q624.2242,833.5619 624.8648,833.7181 Q625.5211,833.8744 626.0836,834.1712 L626.0836,836.89 Q625.4586,836.3119 624.8648,836.0462 Q624.2711,835.765 623.6461,835.765 Q622.3023,835.765 621.6148,836.8431 Q620.9273,837.9056 620.9273,839.9994 Q620.9273,842.0931 621.6148,843.1712 Q622.3023,844.2337 623.6461,844.2337 Q624.2711,844.2337 624.8648,843.9681 Q625.4586,843.6869 626.0836,843.1087 L626.0836,845.8275 Z " fill="#000000"/><text fill="#000000" font-family="sans-serif" font-size="14" lengthAdjust="spacing" textLength="55.2617" x="643.6148" y="845.0336">RailLine</text><line style="stroke:#181818;stroke-width:0.5;" x1="548.94" x2="761.0513" y1="856.1869" y2="856.1869"/><g data-visibility-modifier="PRIVATE_FIELD"><rect fill="none" height="6" style="stroke:#C82930;stroke-width:1;" width="6" x="555.94" y="866.8353"/></g><text fill="#000000" font-family="sans-serif" font-size="14" lengthAdjust="spacing" textLength="151.0742" x="567.94" y="873.182">fromStationId : String</text><g data-visibility-modifier="PRIVATE_FIELD"><rect fill="none" height="6" style="stroke:#C82930;stroke-width:1;" width="6" x="555.94" y="883.1322"/></g><text fill="#000000" font-family="sans-serif" font-size="14" lengthAdjust="spacing" textLength="132.2412" x="567.94" y="889.4789">toStationId : String</text><g data-visibility-modifier="PRIVATE_FIELD"><rect fill="none" height="6" style="stroke:#C82930;stroke-width:1;" width="6" x="555.94" y="899.4291"/></g><text fill="#000000" font-family="sans-serif" font-size="14" lengthAdjust="spacing" textLength="120.6543" x="567.94" y="905.7757">distance : double</text><g data-visibility-modifier="PRIVATE_FIELD"><rect fill="none" height="6" style="stroke:#C82930;stroke-width:1;" width="6" x="555.94" y="915.7259"/></g><text fill="#000000" font-family="sans-serif" font-size="14" lengthAdjust="spacing" textLength="90.9727" x="567.94" y="922.0726">capacity : int</text><g data-visibility-modifier="PRIVATE_FIELD"><rect fill="none" height="6" style="stroke:#C82930;stroke-width:1;" width="6" x="555.94" y="932.0228"/></g><text fill="#000000" font-family="sans-serif" font-size="14" lengthAdjust="spacing" textLength="90.3779" x="567.94" y="938.3695">cost : double</text><line style="stroke:#181818;stroke-width:0.5;" x1="548.94" x2="761.0513" y1="945.6712" y2="945.6712"/><g data-visibility-modifier="PUBLIC_METHOD"><ellipse cx="558.94" cy="959.3197" fill="#84BE84" rx="3" ry="3" style="stroke:#038048;stroke-width:1;"/></g><text fill="#000000" font-family="sans-serif" font-size="14" lengthAdjust="spacing" textLength="188.1113" x="567.94" y="962.6664">getFromStationId() : String</text><g data-visibility-modifier="PUBLIC_METHOD"><ellipse cx="558.94" cy="975.6166" fill="#84BE84" rx="3" ry="3" style="stroke:#038048;stroke-width:1;"/></g><text fill="#000000" font-family="sans-serif" font-size="14" lengthAdjust="spacing" textLength="169.2168" x="567.94" y="978.9632">getToStationId() : String</text><g data-visibility-modifier="PUBLIC_METHOD"><ellipse cx="558.94" cy="991.9134" fill="#84BE84" rx="3" ry="3" style="stroke:#038048;stroke-width:1;"/></g><text fill="#000000" font-family="sans-serif" font-size="14" lengthAdjust="spacing" textLength="156.4609" x="567.94" y="995.2601">getDistance() : double</text><g data-visibility-modifier="PUBLIC_METHOD"><ellipse cx="558.94" cy="1008.2103" fill="#84BE84" rx="3" ry="3" style="stroke:#038048;stroke-width:1;"/></g><text fill="#000000" font-family="sans-serif" font-size="14" lengthAdjust="spacing" textLength="126.9639" x="567.94" y="1011.557">getCapacity() : int</text><g data-visibility-modifier="PUBLIC_METHOD"><ellipse cx="558.94" cy="1024.5072" fill="#84BE84" rx="3" ry="3" style="stroke:#038048;stroke-width:1;"/></g><text fill="#000000" font-family="sans-serif" font-size="14" lengthAdjust="spacing" textLength="126.3691" x="567.94" y="1027.8539">getCost() : double</text></g><!--class Graph--><g class="entity" data-qualified-name="Data Structures.Graph" data-source-line="57" id="ent0012"><rect fill="#F1F1F1" height="178.375" rx="2.5" ry="2.5" style="stroke:#181818;stroke-width:0.5;" width="345.5596" x="146.22" y="561.3669"/><ellipse cx="281.4754" cy="577.3669" fill="#B4A7E5" rx="11" ry="11" style="stroke:#181818;stroke-width:1;"/><path d="M277.3972,573.1325 L277.3972,570.9762 L284.7879,570.9762 L284.7879,573.1325 L282.3191,573.1325 L282.3191,581.2106 L284.7879,581.2106 L284.7879,583.3669 L277.3972,583.3669 L277.3972,581.2106 L279.866,581.2106 L279.866,573.1325 L277.3972,573.1325 Z " fill="#000000"/><text fill="#000000" font-family="sans-serif" font-size="14" font-style="italic" lengthAdjust="spacing" textLength="42.9434" x="301.9754" y="582.2136">Graph</text><rect fill="#FFFFFF" height="15.9688" style="stroke:#181818;stroke-width:1;stroke-dasharray:2,2;" width="21.6055" x="473.1741" y="558.3669"/><text fill="#000000" font-family="sans-serif" font-size="12" font-style="italic" lengthAdjust="spacing" textLength="19.6055" x="474.1741" y="570.5055">V,E</text><line style="stroke:#181818;stroke-width:0.5;" x1="147.22" x2="490.7796" y1="593.3669" y2="593.3669"/><line style="stroke:#181818;stroke-width:0.5;" x1="147.22" x2="490.7796" y1="601.3669" y2="601.3669"/><g data-visibility-modifier="PUBLIC_METHOD"><ellipse cx="157.22" cy="615.0153" fill="#84BE84" rx="3" ry="3" style="stroke:#038048;stroke-width:1;"/></g><text fill="#000000" font-family="sans-serif" font-size="14" lengthAdjust="spacing" textLength="115.0898" x="166.22" y="618.362">addVertex(v : V)</text><g data-visibility-modifier="PUBLIC_METHOD"><ellipse cx="157.22" cy="631.3122" fill="#84BE84" rx="3" ry="3" style="stroke:#038048;stroke-width:1;"/></g><text fill="#000000" font-family="sans-serif" font-size="14" lengthAdjust="spacing" textLength="272.46" x="166.22" y="634.6589">addEdge(vOrig : V, vDest : V, edge : E)</text><g data-visibility-modifier="PUBLIC_METHOD"><ellipse cx="157.22" cy="647.6091" fill="#84BE84" rx="3" ry="3" style="stroke:#038048;stroke-width:1;"/></g><text fill="#000000" font-family="sans-serif" font-size="14" lengthAdjust="spacing" textLength="175.6426" x="166.22" y="650.9557">vertices() : ArrayList&lt;V&gt;</text><g data-visibility-modifier="PUBLIC_METHOD"><ellipse cx="157.22" cy="663.9059" fill="#84BE84" rx="3" ry="3" style="stroke:#038048;stroke-width:1;"/></g><text fill="#000000" font-family="sans-serif" font-size="14" lengthAdjust="spacing" textLength="319.5596" x="166.22" y="667.2526">outgoingEdges(v : V) : Iterable&lt;Edge&lt;V,E&gt;&gt;</text><g data-visibility-modifier="PUBLIC_METHOD"><ellipse cx="157.22" cy="680.2028" fill="#84BE84" rx="3" ry="3" style="stroke:#038048;stroke-width:1;"/></g><text fill="#000000" font-family="sans-serif" font-size="14" lengthAdjust="spacing" textLength="131.1064" x="166.22" y="683.5495">numVertices() : int</text><g data-visibility-modifier="PUBLIC_METHOD"><ellipse cx="157.22" cy="696.4997" fill="#84BE84" rx="3" ry="3" style="stroke:#038048;stroke-width:1;"/></g><text fill="#000000" font-family="sans-serif" font-size="14" lengthAdjust="spacing" textLength="116.7031" x="166.22" y="699.8464">numEdges() : int</text><g data-visibility-modifier="PUBLIC_METHOD"><ellipse cx="157.22" cy="712.7966" fill="#84BE84" rx="3" ry="3" style="stroke:#038048;stroke-width:1;"/></g><text fill="#000000" font-family="sans-serif" font-size="14" lengthAdjust="spacing" textLength="191.8574" x="166.22" y="716.1432">validVertex(v : V) : boolean</text><g data-visibility-modifier="PUBLIC_METHOD"><ellipse cx="157.22" cy="729.0934" fill="#84BE84" rx="3" ry="3" style="stroke:#038048;stroke-width:1;"/></g><text fill="#000000" font-family="sans-serif" font-size="14" lengthAdjust="spacing" textLength="151.4229" x="166.22" y="732.4401">isDirected() : boolean</text></g><!--class MapGraph--><g class="entity" data-qualified-name="Data Structures.MapGraph" data-source-line="68" id="ent0013"><rect fill="#F1F1F1" height="64.2969" rx="2.5" ry="2.5" style="stroke:#181818;stroke-width:0.5;" width="153.4219" x="239.29" y="897.5269"/><ellipse cx="265.6877" cy="913.5269" fill="#ADD1B2" rx="11" ry="11" style="stroke:#181818;stroke-width:1;"/><path d="M268.6564,919.1675 Q268.0783,919.4644 267.4377,919.605 Q266.797,919.7612 266.0939,919.7612 Q263.5939,919.7612 262.2658,918.1206 Q260.9533,916.4644 260.9533,913.3394 Q260.9533,910.2144 262.2658,908.5581 Q263.5939,906.9019 266.0939,906.9019 Q266.797,906.9019 267.4377,907.0581 Q268.0939,907.2144 268.6564,907.5112 L268.6564,910.23 Q268.0314,909.6519 267.4377,909.3862 Q266.8439,909.105 266.2189,909.105 Q264.8752,909.105 264.1877,910.1831 Q263.5002,911.2456 263.5002,913.3394 Q263.5002,915.4331 264.1877,916.5112 Q264.8752,917.5737 266.2189,917.5737 Q266.8439,917.5737 267.4377,917.3081 Q268.0314,917.0269 268.6564,916.4487 L268.6564,919.1675 Z " fill="#000000"/><text fill="#000000" font-family="sans-serif" font-size="14" lengthAdjust="spacing" textLength="72.4883" x="282.2205" y="918.3736">MapGraph</text><rect fill="#FFFFFF" height="15.9688" style="stroke:#181818;stroke-width:1;stroke-dasharray:2,2;" width="21.6055" x="374.1064" y="894.5269"/><text fill="#000000" font-family="sans-serif" font-size="12" font-style="italic" lengthAdjust="spacing" textLength="19.6055" x="375.1064" y="906.6655">V,E</text><line style="stroke:#181818;stroke-width:0.5;" x1="240.29" x2="391.7119" y1="929.5269" y2="929.5269"/><g data-visibility-modifier="PRIVATE_FIELD"><rect fill="none" height="6" style="stroke:#C82930;stroke-width:1;" width="6" x="247.29" y="940.1753"/></g><text fill="#000000" font-family="sans-serif" font-size="14" lengthAdjust="spacing" textLength="127.4219" x="259.29" y="946.522">directed : boolean</text><line style="stroke:#181818;stroke-width:0.5;" x1="240.29" x2="391.7119" y1="953.8237" y2="953.8237"/></g><!--class Edge--><g class="entity" data-qualified-name="Data Structures.Edge" data-source-line="72" id="ent0014"><rect fill="#F1F1F1" height="145.7813" rx="2.5" ry="2.5" style="stroke:#181818;stroke-width:0.5;" width="131.9707" x="360.01" y="1119.6069"/><ellipse cx="393.5198" cy="1135.6069" fill="#ADD1B2" rx="11" ry="11" style="stroke:#181818;stroke-width:1;"/><path d="M396.4885,1141.2475 Q395.9104,1141.5444 395.2698,1141.685 Q394.6291,1141.8413 393.926,1141.8413 Q391.426,1141.8413 390.0979,1140.2006 Q388.7854,1138.5444 388.7854,1135.4194 Q388.7854,1132.2944 390.0979,1130.6381 Q391.426,1128.9819 393.926,1128.9819 Q394.6291,1128.9819 395.2698,1129.1381 Q395.926,1129.2944 396.4885,1129.5913 L396.4885,1132.31 Q395.8635,1131.7319 395.2698,1131.4663 Q394.676,1131.185 394.051,1131.185 Q392.7073,1131.185 392.0198,1132.2631 Q391.3323,1133.3256 391.3323,1135.4194 Q391.3323,1137.5131 392.0198,1138.5913 Q392.7073,1139.6538 394.051,1139.6538 Q394.676,1139.6538 395.2698,1139.3881 Q395.8635,1139.1069 396.4885,1138.5288 L396.4885,1141.2475 Z " fill="#000000"/><text fill="#000000" font-family="sans-serif" font-size="14" lengthAdjust="spacing" textLength="35.2324" x="411.633" y="1140.4536">Edge</text><rect fill="#FFFFFF" height="15.9688" style="stroke:#181818;stroke-width:1;stroke-dasharray:2,2;" width="21.6055" x="473.3752" y="1116.6069"/><text fill="#000000" font-family="sans-serif" font-size="12" font-style="italic" lengthAdjust="spacing" textLength="19.6055" x="474.3752" y="1128.7455">V,E</text><line style="stroke:#181818;stroke-width:0.5;" x1="361.01" x2="490.9807" y1="1151.6069" y2="1151.6069"/><g data-visibility-modifier="PRIVATE_FIELD"><rect fill="none" height="6" style="stroke:#C82930;stroke-width:1;" width="6" x="368.01" y="1162.2553"/></g><text fill="#000000" font-family="sans-serif" font-size="14" lengthAdjust="spacing" textLength="61.0313" x="380.01" y="1168.602">vOrig : V</text><g data-visibility-modifier="PRIVATE_FIELD"><rect fill="none" height="6" style="stroke:#C82930;stroke-width:1;" width="6" x="368.01" y="1178.5522"/></g><text fill="#000000" font-family="sans-serif" font-size="14" lengthAdjust="spacing" textLength="63.6563" x="380.01" y="1184.8989">vDest : V</text><g data-visibility-modifier="PRIVATE_FIELD"><rect fill="none" height="6" style="stroke:#C82930;stroke-width:1;" width="6" x="368.01" y="1194.8491"/></g><text fill="#000000" font-family="sans-serif" font-size="14" lengthAdjust="spacing" textLength="69.665" x="380.01" y="1201.1957">weight : E</text><line style="stroke:#181818;stroke-width:0.5;" x1="361.01" x2="490.9807" y1="1208.4975" y2="1208.4975"/><g data-visibility-modifier="PUBLIC_METHOD"><ellipse cx="371.01" cy="1222.1459" fill="#84BE84" rx="3" ry="3" style="stroke:#038048;stroke-width:1;"/></g><text fill="#000000" font-family="sans-serif" font-size="14" lengthAdjust="spacing" textLength="96.2363" x="380.01" y="1225.4926">getVOrig() : V</text><g data-visibility-modifier="PUBLIC_METHOD"><ellipse cx="371.01" cy="1238.4428" fill="#84BE84" rx="3" ry="3" style="stroke:#038048;stroke-width:1;"/></g><text fill="#000000" font-family="sans-serif" font-size="14" lengthAdjust="spacing" textLength="98.8613" x="380.01" y="1241.7895">getVDest() : V</text><g data-visibility-modifier="PUBLIC_METHOD"><ellipse cx="371.01" cy="1254.7397" fill="#84BE84" rx="3" ry="3" style="stroke:#038048;stroke-width:1;"/></g><text fill="#000000" font-family="sans-serif" font-size="14" lengthAdjust="spacing" textLength="105.9707" x="380.01" y="1258.0864">getWeight() : E</text></g><!--class GraphvizExporter--><g class="entity" data-qualified-name="Utils Layer.GraphvizExporter" data-source-line="83" id="ent0016"><rect fill="#F1F1F1" height="64.2969" rx="2.5" ry="2.5" style="stroke:#181818;stroke-width:0.5;" width="593.1914" x="22.4" y="422.0769"/><ellipse cx="253.4137" cy="438.0769" fill="#ADD1B2" rx="11" ry="11" style="stroke:#181818;stroke-width:1;"/><path d="M256.3824,443.7175 Q255.8043,444.0144 255.1637,444.155 Q254.523,444.3113 253.8199,444.3113 Q251.3199,444.3113 249.9918,442.6706 Q248.6793,441.0144 248.6793,437.8894 Q248.6793,434.7644 249.9918,433.1081 Q251.3199,431.4519 253.8199,431.4519 Q254.523,431.4519 255.1637,431.6081 Q255.8199,431.7644 256.3824,432.0613 L256.3824,434.78 Q255.7574,434.2019 255.1637,433.9363 Q254.5699,433.655 253.9449,433.655 Q252.6012,433.655 251.9137,434.7331 Q251.2262,435.7956 251.2262,437.8894 Q251.2262,439.9831 251.9137,441.0613 Q252.6012,442.1238 253.9449,442.1238 Q254.5699,442.1238 255.1637,441.8581 Q255.7574,441.5769 256.3824,440.9988 L256.3824,443.7175 Z " fill="#000000"/><text fill="#000000" font-family="sans-serif" font-size="14" lengthAdjust="spacing" textLength="122.6641" x="273.9137" y="442.9236">GraphvizExporter</text><line style="stroke:#181818;stroke-width:0.5;" x1="23.4" x2="614.5914" y1="454.0769" y2="454.0769"/><line style="stroke:#181818;stroke-width:0.5;" x1="23.4" x2="614.5914" y1="462.0769" y2="462.0769"/><g data-visibility-modifier="PUBLIC_METHOD"><ellipse cx="33.4" cy="475.7253" fill="#84BE84" rx="3" ry="3" style="stroke:#038048;stroke-width:1;"/></g><text fill="#000000" font-family="sans-serif" font-size="14" lengthAdjust="spacing" textLength="567.1914" x="42.4" y="479.072">exportUndirectedBackbone(graph : Graph&lt;RailNode, RailLine&gt;, filePath : String)</text></g><!--reverse link Graph to MapGraph--><g class="link" data-entity-1="ent0012" data-entity-2="ent0013" data-link-type="extension" data-source-line="88" id="lnk17"><path codeLine="88" d="M317.8461,758.0058 C317.2661,811.8558 316.75,859.3869 316.34,897.3369" fill="none" id="Graph-backto-MapGraph" style="stroke:#181818;stroke-width:1;stroke-dasharray:7,7;"/><polygon fill="none" points="318.04,740.0069,311.8465,757.9412,323.8458,758.0705,318.04,740.0069" style="stroke:#181818;stroke-width:1;"/></g><!--link MapGraph to Edge--><g class="link" data-entity-1="ent0013" data-entity-2="ent0014" data-link-type="dependency" data-source-line="89" id="lnk18"><path codeLine="89" d="M329.27,962.1369 C345.58,1000.8169 371.4482,1062.1485 393.2082,1113.7385" fill="none" id="MapGraph-to-Edge" style="stroke:#181818;stroke-width:1;"/><polygon fill="#181818" points="395.54,1119.2669,395.7279,1109.4198,393.5968,1114.6599,388.3567,1112.5289,395.54,1119.2669" style="stroke:#181818;stroke-width:1;"/></g><!--link Graph to Edge--><g class="link" data-entity-1="ent0012" data-entity-2="ent0014" data-link-type="dependency" data-source-line="90" id="lnk19"><path codeLine="90" d="M402.16,740.2069 C405.14,745.6069 407.79,751.1269 410,756.7469 C457.31,876.9269 449.2893,1024.5726 438.2693,1113.3326" fill="none" id="Graph-to-Edge" style="stroke:#181818;stroke-width:1;"/><polygon fill="#181818" points="437.53,1119.2869,442.6084,1110.8483,438.146,1114.325,434.6694,1109.8626,437.53,1119.2869" style="stroke:#181818;stroke-width:1;"/></g><!--link Graph to RailNode--><g class="link" data-entity-1="ent0012" data-entity-2="ent0009" data-link-type="dependency" data-source-line="91" id="lnk20"><path codeLine="91" d="M491.87,693.5769 C555.32,708.6369 627.82,725.4269 694,739.7469 C732.08,747.9869 748.33,734.0569 780,756.7469 C795.96,768.1769 806.1972,778.1899 817.9472,794.3899" fill="none" id="Graph-to-RailNode" style="stroke:#181818;stroke-width:1;"/><polygon fill="#181818" points="821.47,799.2469,819.4238,789.6129,818.5343,795.1994,812.9479,794.31,821.47,799.2469" style="stroke:#181818;stroke-width:1;"/></g><!--link Graph to RailLine--><g class="link" data-entity-1="ent0012" data-entity-2="ent0010" data-link-type="dependency" data-source-line="92" id="lnk21"><path codeLine="92" d="M486.14,740.0869 C493.7,745.4769 501.02,751.0369 508,756.7469 C532.01,776.3869 551.2693,795.7624 571.8593,819.4024" fill="none" id="Graph-to-RailLine" style="stroke:#181818;stroke-width:1;"/><polygon fill="#181818" points="575.8,823.9269,572.9052,814.513,572.5161,820.1565,566.8726,819.7673,575.8,823.9269" style="stroke:#181818;stroke-width:1;"/></g><!--link MinimalBackboneUI to MinimalBackboneController--><g class="link" data-entity-1="ent0003" data-entity-2="ent0005" data-link-type="dependency" data-source-line="94" id="lnk22"><path codeLine="94" d="M754.11,191.7469 C792.83,216.0269 832.2159,240.7207 867.4959,262.8307" fill="none" id="MinimalBackboneUI-to-MinimalBackboneController" style="stroke:#181818;stroke-width:1;"/><polygon fill="#181818" points="872.58,266.0169,867.078,257.8482,868.3433,263.3617,862.8297,264.627,872.58,266.0169" style="stroke:#181818;stroke-width:1;"/></g><!--link MinimalBackboneController to MinimalBackboneService--><g class="link" data-entity-1="ent0005" data-entity-2="ent0007" data-link-type="dependency" data-source-line="95" id="lnk23"><path codeLine="95" d="M956.49,347.5169 C968.55,370.9069 980.8283,394.7251 992.0583,416.4851" fill="none" id="MinimalBackboneController-to-MinimalBackboneService" style="stroke:#181818;stroke-width:1;"/><polygon fill="#181818" points="994.81,421.8169,994.237,411.9847,992.5169,417.3737,987.1279,415.6536,994.81,421.8169" style="stroke:#181818;stroke-width:1;"/></g><!--link MinimalBackboneService to Graph--><g class="link" data-entity-1="ent0007" data-entity-2="ent0012" data-link-type="dependency" data-source-line="96" id="lnk24"><path codeLine="96" d="M898.66,486.7669 C788.62,517.6769 625.1665,563.5745 497.9165,599.3145" fill="none" id="MinimalBackboneService-to-Graph" style="stroke:#181818;stroke-width:1;"/><polygon fill="#181818" points="492.14,600.9369,501.8863,602.3543,496.9537,599.5849,499.7231,594.6523,492.14,600.9369" style="stroke:#181818;stroke-width:1;"/></g><!--link MinimalBackboneService to RailNode--><g class="link" data-entity-1="ent0007" data-entity-2="ent0009" data-link-type="dependency" data-source-line="97" id="lnk25"><path codeLine="97" d="M998.86,486.8369 C995.18,496.8569 991.25,508.0169 988,518.3669 C958.72,611.5369 932.0091,712.357 911.6491,793.567" fill="none" id="MinimalBackboneService-to-RailNode" style="stroke:#181818;stroke-width:1;"/><polygon fill="#181818" points="910.19,799.3869,916.2586,791.6298,911.4059,794.537,908.4987,789.6843,910.19,799.3869" style="stroke:#181818;stroke-width:1;"/></g><!--link MinimalBackboneService to RailLine--><g class="link" data-entity-1="ent0007" data-entity-2="ent0010" data-link-type="dependency" data-source-line="98" id="lnk26"><path codeLine="98" d="M957.56,486.6269 C944.14,495.8769 930.33,506.6969 919,518.3669 C830.06,609.9969 757.1551,730.709 709.9151,818.819" fill="none" id="MinimalBackboneService-to-RailLine" style="stroke:#181818;stroke-width:1;"/><polygon fill="#181818" points="707.08,824.1069,714.8579,818.0651,709.4426,819.7003,707.8074,814.2849,707.08,824.1069" style="stroke:#181818;stroke-width:1;"/></g><!--link MinimalBackboneService to Edge--><g class="link" data-entity-1="ent0007" data-entity-2="ent0014" data-link-type="dependency" data-source-line="99" id="lnk27"><path codeLine="99" d="M1021.05,486.5169 C1051.28,587.3569 1130.24,907.3869 977,1083.6069 C914.32,1155.6869 630.6198,1180.2866 498.2698,1188.0266" fill="none" id="MinimalBackboneService-to-Edge" style="stroke:#181818;stroke-width:1;"/><polygon fill="#181818" points="492.28,1188.3769,501.4982,1191.8446,497.2715,1188.085,501.0311,1183.8583,492.28,1188.3769" style="stroke:#181818;stroke-width:1;"/></g><!--link MinimalBackboneUI to GraphvizExporter--><g class="link" data-entity-1="ent0003" data-entity-2="ent0016" data-link-type="dependency" data-source-line="100" id="lnk28"><path codeLine="100" d="M603.94,191.8869 C530.99,258.7869 415.9418,364.3113 357.6118,417.8113" fill="none" id="MinimalBackboneUI-to-GraphvizExporter" style="stroke:#181818;stroke-width:1;"/><polygon fill="#181818" points="353.19,421.8669,362.5264,418.7313,356.8748,418.4872,357.1189,412.8356,353.19,421.8669" style="stroke:#181818;stroke-width:1;"/></g><!--link GraphvizExporter to Graph--><g class="link" data-entity-1="ent0016" data-entity-2="ent0012" data-link-type="dependency" data-source-line="101" id="lnk29"><path codeLine="101" d="M319,486.4469 C319,506.7269 319,528.2569 319,554.9269" fill="none" id="GraphvizExporter-to-Graph" style="stroke:#181818;stroke-width:1;"/><polygon fill="#181818" points="319,560.9269,323,551.9269,319,555.9269,315,551.9269,319,560.9269" style="stroke:#181818;stroke-width:1;"/></g><!--link GraphvizExporter to RailNode--><g class="link" data-entity-1="ent0016" data-entity-2="ent0009" data-link-type="dependency" data-source-line="102" id="lnk30"><path codeLine="102" d="M523.79,486.7769 C547.43,494.9969 570.42,505.3469 591,518.3669 C696.53,585.1569 771.4983,700.6599 819.4283,793.9599" fill="none" id="GraphvizExporter-to-RailNode" style="stroke:#181818;stroke-width:1;"/><polygon fill="#181818" points="822.17,799.2969,821.6154,789.4636,819.8853,794.8494,814.4995,793.1192,822.17,799.2969" style="stroke:#181818;stroke-width:1;"/></g><!--link GraphvizExporter to RailLine--><g class="link" data-entity-1="ent0016" data-entity-2="ent0010" data-link-type="dependency" data-source-line="103" id="lnk31"><path codeLine="103" d="M461.38,486.7169 C478.52,494.9369 494.65,505.3069 508,518.3669 C591.28,599.8769 626.5533,725.8819 642.2433,818.0719" fill="none" id="GraphvizExporter-to-RailLine" style="stroke:#181818;stroke-width:1;"/><polygon fill="#181818" points="643.25,823.9869,645.6833,814.4433,642.4111,819.0578,637.7967,815.7856,643.25,823.9869" style="stroke:#181818;stroke-width:1;"/></g><!--SRC=[nLPHRzem47xFhx3w12fKsXudXBG1cz1eDvMHRO_Nv9fQJMpaE6bPr__UiqEO7PpIj_4Gp7tVdR_xRCTehdDac_MxzspCBhdW1UJi4oJtDr8WkqBz8DKz6ynoA4isvv0fA8PHj2K6PCZEDaksWXsgC_OKCVeabhWlrDOXKeEQpvWfuFa3xBuesDwn3yn-JwufU2LJ734pMd61KoUbJ8YuJa08L8VmELEL60mTsWDmVOswKctuENfsnCwaq4hcEQetY7R8hlWILSqJ93aT_he177M9BBQLnWvla9tgUtZI5B-j_SnlwAbbFlq7bNDP01SXaMs-vpDFpOfhnKNcH0KK68hde2cSokecHpSiHIZy60hkZeFdB4EzJ0V3uoajT4LgUi4LQ8k5QgwawCL-zIA_mqYDIkFZLznrfP3xlibcQJoJRvKirXeqbs8Pz5lBL-6Kbng4FGr7VYP0Iy-riPKBxGAor3qTVdRrz3hxGvxcpFVAUisSxULPWYkmGKbZDxMpdK63cRbAw7M3PRkZgHAgMo1BchCHZnPJxxX1ciPsmGOrbO-7FhH8CnpKtnJF33XYzHojMJH4WcYq67QMdivpQQL-L0fsA-fx4ayTZgnq9iaVKxhSJqgF9Ua4QcrYubQccoIg8dPh-mOHsbGxXch8kTyWFMwap164G-Fbd2jCD3Ohw1AyNNi9sw2FPkir-Qzb7rhpCW_skh7MP_SoGPxTcU32tnknoRUoumvWYeI0dxQIHHQ1hRJHF2z3BqRRUit_B1wtaXnLtaP26zo8reYtlxb7x9Rd-1tqtU7mEBTbSorF_bvS7DoFsW4RZwVMrQZtPpjV9sGcZgBZ_mK6xxrue_uhEP3NNi0zTvx9s7VJJpYeFy6nxRp2iQQ4k-qkQdIqol-K1Y7VuH1grBq0]--></g></svg>