<svg xmlns="http://www.w3.org/2000/svg" xmlns:xlink="http://www.w3.org/1999/xlink" contentStyleType="text/css" data-diagram-type="SEQUENCE" height="1530px" preserveAspectRatio="none" style="width:1527px;height:1530px;background:#FFFFFF;" version="1.1" viewBox="0 0 1527 1530" width="1527px" zoomAndPan="magnify"><title>US12 - Minimal Backbone Network (Technical Sequence Diagram)</title><defs/><g><text fill="#000000" font-family="sans-serif" font-size="14" font-weight="bold" lengthAdjust="spacing" textLength="517.7607" x="511.9304" y="27.9951">US12 - Minimal Backbone Network (Technical Sequence Diagram)</text><g><title>MinimalBackboneController</title><rect fill="#FFFFFF" height="1213.5859" style="stroke:#181818;stroke-width:1;" width="10" x="601.1519" y="121.0234"/></g><g><title>MinimalBackboneService</title><rect fill="#FFFFFF" height="954.5234" style="stroke:#181818;stroke-width:1;" width="10" x="877.1309" y="150.1563"/></g><g><title>Graph</title><rect fill="#FFFFFF" height="30" style="stroke:#181818;stroke-width:1;" width="10" x="1217.1924" y="179.2891"/></g><g><title>GraphvizExporter</title><rect fill="#FFFFFF" height="171.6641" style="stroke:#181818;stroke-width:1;" width="10" x="1361.1167" y="1133.8125"/></g><rect fill="none" height="793.9922" style="stroke:#000000;stroke-width:1.5;" width="583.2861" x="717.3779" y="282.5547"/><rect fill="none" height="704.5938" style="stroke:#000000;stroke-width:1.5;" width="563.2861" x="727.3779" y="364.9531"/><rect fill="none" height="644.3281" style="stroke:#000000;stroke-width:1.5;" width="543.2861" x="737.3779" y="418.2188"/><rect fill="none" height="395.5938" style="stroke:#000000;stroke-width:1.5;" width="523.2861" x="747.3779" y="471.4844"/><rect fill="none" height="306.1953" style="stroke:#000000;stroke-width:1.5;" width="503.2861" x="757.3779" y="553.8828"/><rect fill="none" height="174.6641" style="stroke:#000000;stroke-width:1.5;" width="346.707" x="767.3779" y="678.4141"/><rect fill="none" height="59.2656" style="stroke:#000000;stroke-width:1.5;" width="326.707" x="777.3779" y="786.8125"/><rect fill="none" height="174.4688" style="stroke:#000000;stroke-width:1.5;" width="483.2861" x="777.3779" y="881.0781"/><g class="participant-lifeline" data-entity-uid="part1" data-qualified-name="UI" id="part1-lifeline"><g><title>MinimalBackboneUI</title><rect fill="#000000" fill-opacity="0.00000" height="1389.1172" width="8" x="77.0703" y="89.8906"/><line style="stroke:#181818;stroke-width:0.5;stroke-dasharray:5,5;" x1="81" x2="81" y1="89.8906" y2="1479.0078"/></g></g><g class="participant-lifeline" data-entity-uid="part2" data-qualified-name="Controller" id="part2-lifeline"><g><title>MinimalBackboneController</title><rect fill="#000000" fill-opacity="0.00000" height="1389.1172" width="8" x="602.1519" y="89.8906"/><line style="stroke:#181818;stroke-width:0.5;stroke-dasharray:5,5;" x1="605.6831" x2="605.6831" y1="89.8906" y2="1479.0078"/></g></g><g class="participant-lifeline" data-entity-uid="part3" data-qualified-name="Service" id="part3-lifeline"><g><title>MinimalBackboneService</title><rect fill="#000000" fill-opacity="0.00000" height="1389.1172" width="8" x="878.1309" y="89.8906"/><line style="stroke:#181818;stroke-width:0.5;stroke-dasharray:5,5;" x1="881.3779" x2="881.3779" y1="89.8906" y2="1479.0078"/></g></g><g class="participant-lifeline" data-entity-uid="part4" data-qualified-name="InputGraph" id="part4-lifeline"><g><title>Graph</title><rect fill="#000000" fill-opacity="0.00000" height="1389.1172" width="8" x="1151.249" y="89.8906"/><line style="stroke:#181818;stroke-width:0.5;stroke-dasharray:5,5;" x1="1154.7773" x2="1154.7773" y1="89.8906" y2="1479.0078"/></g></g><g class="participant-lifeline" data-entity-uid="part5" data-qualified-name="MSFGraph" id="part5-lifeline"><g><title>Graph</title><rect fill="#000000" fill-opacity="0.00000" height="1389.1172" width="8" x="1218.1924" y="89.8906"/><line style="stroke:#181818;stroke-width:0.5;stroke-dasharray:5,5;" x1="1221.7207" x2="1221.7207" y1="89.8906" y2="1479.0078"/></g></g><g class="participant-lifeline" data-entity-uid="part6" data-qualified-name="Exporter" id="part6-lifeline"><g><title>GraphvizExporter</title><rect fill="#000000" fill-opacity="0.00000" height="1389.1172" width="8" x="1362.1167" y="89.8906"/><line style="stroke:#181818;stroke-width:0.5;stroke-dasharray:5,5;" x1="1365.7847" x2="1365.7847" y1="89.8906" y2="1479.0078"/></g></g><g class="participant participant-head" data-entity-uid="part1" data-qualified-name="UI" id="part1-head"><rect fill="#E2E2F0" height="30.2969" rx="2.5" ry="2.5" style="stroke:#181818;stroke-width:0.5;" width="152.1406" x="5" y="58.5938"/><text fill="#000000" font-family="sans-serif" font-size="14" lengthAdjust="spacing" textLength="138.1406" x="12" y="78.5889">MinimalBackboneUI</text></g><g class="participant participant-tail" data-entity-uid="part1" data-qualified-name="UI" id="part1-tail"><rect fill="#E2E2F0" height="30.2969" rx="2.5" ry="2.5" style="stroke:#181818;stroke-width:0.5;" width="152.1406" x="5" y="1478.0078"/><text fill="#000000" font-family="sans-serif" font-size="14" lengthAdjust="spacing" textLength="138.1406" x="12" y="1498.0029">MinimalBackboneUI</text></g><g class="participant participant-head" data-entity-uid="part2" data-qualified-name="Controller" id="part2-head"><rect fill="#E2E2F0" height="30.2969" rx="2.5" ry="2.5" style="stroke:#181818;stroke-width:0.5;" width="206.9375" x="502.6831" y="58.5938"/><text fill="#000000" font-family="sans-serif" font-size="14" lengthAdjust="spacing" textLength="192.9375" x="509.6831" y="78.5889">MinimalBackboneController</text></g><g class="participant participant-tail" data-entity-uid="part2" data-qualified-name="Controller" id="part2-tail"><rect fill="#E2E2F0" height="30.2969" rx="2.5" ry="2.5" style="stroke:#181818;stroke-width:0.5;" width="206.9375" x="502.6831" y="1478.0078"/><text fill="#000000" font-family="sans-serif" font-size="14" lengthAdjust="spacing" textLength="192.9375" x="509.6831" y="1498.0029">MinimalBackboneController</text></g><g class="participant participant-head" data-entity-uid="part3" data-qualified-name="Service" id="part3-head"><rect fill="#E2E2F0" height="30.2969" rx="2.5" ry="2.5" style="stroke:#181818;stroke-width:0.5;" width="189.5059" x="787.3779" y="58.5938"/><text fill="#000000" font-family="sans-serif" font-size="14" lengthAdjust="spacing" textLength="175.5059" x="794.3779" y="78.5889">MinimalBackboneService</text></g><g class="participant participant-tail" data-entity-uid="part3" data-qualified-name="Service" id="part3-tail"><rect fill="#E2E2F0" height="30.2969" rx="2.5" ry="2.5" style="stroke:#181818;stroke-width:0.5;" width="189.5059" x="787.3779" y="1478.0078"/><text fill="#000000" font-family="sans-serif" font-size="14" lengthAdjust="spacing" textLength="175.5059" x="794.3779" y="1498.0029">MinimalBackboneService</text></g><g class="participant participant-head" data-entity-uid="part4" data-qualified-name="InputGraph" id="part4-head"><rect fill="#E2E2F0" height="30.2969" rx="2.5" ry="2.5" style="stroke:#181818;stroke-width:0.5;" width="56.9434" x="1126.7773" y="58.5938"/><text fill="#000000" font-family="sans-serif" font-size="14" lengthAdjust="spacing" textLength="42.9434" x="1133.7773" y="78.5889">Graph</text></g><g class="participant participant-tail" data-entity-uid="part4" data-qualified-name="InputGraph" id="part4-tail"><rect fill="#E2E2F0" height="30.2969" rx="2.5" ry="2.5" style="stroke:#181818;stroke-width:0.5;" width="56.9434" x="1126.7773" y="1478.0078"/><text fill="#000000" font-family="sans-serif" font-size="14" lengthAdjust="spacing" textLength="42.9434" x="1133.7773" y="1498.0029">Graph</text></g><g class="participant participant-head" data-entity-uid="part5" data-qualified-name="MSFGraph" id="part5-head"><rect fill="#E2E2F0" height="46.5938" rx="2.5" ry="2.5" style="stroke:#181818;stroke-width:0.5;" width="56.9434" x="1193.7207" y="42.2969"/><text fill="#000000" font-family="sans-serif" font-size="14" lengthAdjust="spacing" textLength="42.9434" x="1200.7207" y="62.292">Graph</text><text fill="#000000" font-family="sans-serif" font-size="14" lengthAdjust="spacing" textLength="39.9424" x="1202.2212" y="78.5889">(MSF)</text></g><g class="participant participant-tail" data-entity-uid="part5" data-qualified-name="MSFGraph" id="part5-tail"><rect fill="#E2E2F0" height="46.5938" rx="2.5" ry="2.5" style="stroke:#181818;stroke-width:0.5;" width="56.9434" x="1193.7207" y="1478.0078"/><text fill="#000000" font-family="sans-serif" font-size="14" lengthAdjust="spacing" textLength="42.9434" x="1200.7207" y="1498.0029">Graph</text><text fill="#000000" font-family="sans-serif" font-size="14" lengthAdjust="spacing" textLength="39.9424" x="1202.2212" y="1514.2998">(MSF)</text></g><g class="participant participant-head" data-entity-uid="part6" data-qualified-name="Exporter" id="part6-head"><rect fill="#E2E2F0" height="30.2969" rx="2.5" ry="2.5" style="stroke:#181818;stroke-width:0.5;" width="136.6641" x="1297.7847" y="58.5938"/><text fill="#000000" font-family="sans-serif" font-size="14" lengthAdjust="spacing" textLength="122.6641" x="1304.7847" y="78.5889">GraphvizExporter</text></g><g class="participant participant-tail" data-entity-uid="part6" data-qualified-name="Exporter" id="part6-tail"><rect fill="#E2E2F0" height="30.2969" rx="2.5" ry="2.5" style="stroke:#181818;stroke-width:0.5;" width="136.6641" x="1297.7847" y="1478.0078"/><text fill="#000000" font-family="sans-serif" font-size="14" lengthAdjust="spacing" textLength="122.6641" x="1304.7847" y="1498.0029">GraphvizExporter</text></g><g><title>MinimalBackboneController</title><rect fill="#FFFFFF" height="1213.5859" style="stroke:#181818;stroke-width:1;" width="10" x="601.1519" y="121.0234"/></g><g><title>MinimalBackboneService</title><rect fill="#FFFFFF" height="954.5234" style="stroke:#181818;stroke-width:1;" width="10" x="877.1309" y="150.1563"/></g><g><title>Graph</title><rect fill="#FFFFFF" height="30" style="stroke:#181818;stroke-width:1;" width="10" x="1217.1924" y="179.2891"/></g><g><title>GraphvizExporter</title><rect fill="#FFFFFF" height="171.6641" style="stroke:#181818;stroke-width:1;" width="10" x="1361.1167" y="1133.8125"/></g><g class="message" data-entity-1="part1" data-entity-2="part2" id="msg1"><polygon fill="#181818" points="589.1519,117.0234,599.1519,121.0234,589.1519,125.0234,593.1519,121.0234" style="stroke:#181818;stroke-width:1;"/><line style="stroke:#181818;stroke-width:1;" x1="81.0703" x2="595.1519" y1="121.0234" y2="121.0234"/><text fill="#000000" font-family="sans-serif" font-size="13" lengthAdjust="spacing" textLength="269.1216" x="88.0703" y="115.9575">computeMinimalBackbone(railwayGraph)</text></g><g class="message" data-entity-1="part2" data-entity-2="part3" id="msg2"><polygon fill="#181818" points="865.1309,146.1563,875.1309,150.1563,865.1309,154.1563,869.1309,150.1563" style="stroke:#181818;stroke-width:1;"/><line style="stroke:#181818;stroke-width:1;" x1="611.1519" x2="871.1309" y1="150.1563" y2="150.1563"/><text fill="#000000" font-family="sans-serif" font-size="13" lengthAdjust="spacing" textLength="220.4731" x="618.1519" y="145.0903">computeMinimalBackbone(graph)</text></g><g class="message" data-entity-1="part3" data-entity-2="part5" id="msg3"><polygon fill="#181818" points="1205.1924,175.2891,1215.1924,179.2891,1205.1924,183.2891,1209.1924,179.2891" style="stroke:#181818;stroke-width:1;"/><line style="stroke:#181818;stroke-width:1;" x1="887.1309" x2="1211.1924" y1="179.2891" y2="179.2891"/><text fill="#000000" font-family="sans-serif" font-size="13" lengthAdjust="spacing" textLength="139.3818" x="894.1309" y="174.2231">new MapGraph(false)</text></g><g class="message" data-entity-1="part3" data-entity-2="part4" id="msg4"><polygon fill="#181818" points="1143.249,234.4219,1153.249,238.4219,1143.249,242.4219,1147.249,238.4219" style="stroke:#181818;stroke-width:1;"/><line style="stroke:#181818;stroke-width:1;" x1="887.1309" x2="1149.249" y1="238.4219" y2="238.4219"/><text fill="#000000" font-family="sans-serif" font-size="13" lengthAdjust="spacing" textLength="61.8071" x="894.1309" y="233.356">vertices()</text></g><g class="message" data-entity-1="part4" data-entity-2="part3" id="msg5"><polygon fill="#181818" points="898.1309,263.5547,888.1309,267.5547,898.1309,271.5547,894.1309,267.5547" style="stroke:#181818;stroke-width:1;"/><line style="stroke:#181818;stroke-width:1;stroke-dasharray:2,2;" x1="892.1309" x2="1154.249" y1="267.5547" y2="267.5547"/><text fill="#000000" font-family="sans-serif" font-size="13" lengthAdjust="spacing" textLength="137.9028" x="904.1309" y="262.4888">ArrayList&lt;RailNode&gt;</text></g><path d="M717.3779,282.5547 L794.002,282.5547 L794.002,289.6875 L784.002,299.6875 L717.3779,299.6875 L717.3779,282.5547" fill="#EEEEEE" style="stroke:#000000;stroke-width:1.5;"/><rect fill="none" height="793.9922" style="stroke:#000000;stroke-width:1.5;" width="583.2861" x="717.3779" y="282.5547"/><text fill="#000000" font-family="sans-serif" font-size="13" font-weight="bold" lengthAdjust="spacing" textLength="31.624" x="732.3779" y="295.6216">loop</text><text fill="#000000" font-family="sans-serif" font-size="11" font-weight="bold" lengthAdjust="spacing" textLength="226.8481" x="809.002" y="294.7651">[For each vertex in graph.vertices()]</text><g class="message" data-entity-1="part3" data-entity-2="part5" id="msg6"><polygon fill="#181818" points="1210.1924,316.8203,1220.1924,320.8203,1210.1924,324.8203,1214.1924,320.8203" style="stroke:#181818;stroke-width:1;"/><line style="stroke:#181818;stroke-width:1;" x1="887.1309" x2="1216.1924" y1="320.8203" y2="320.8203"/><text fill="#000000" font-family="sans-serif" font-size="13" lengthAdjust="spacing" textLength="126.1279" x="894.1309" y="315.7544">validVertex(vertex)</text></g><g class="message" data-entity-1="part5" data-entity-2="part3" id="msg7"><polygon fill="#181818" points="898.1309,345.9531,888.1309,349.9531,898.1309,353.9531,894.1309,349.9531" style="stroke:#181818;stroke-width:1;"/><line style="stroke:#181818;stroke-width:1;stroke-dasharray:2,2;" x1="892.1309" x2="1221.1924" y1="349.9531" y2="349.9531"/><text fill="#000000" font-family="sans-serif" font-size="13" lengthAdjust="spacing" textLength="51.9746" x="904.1309" y="344.8872">boolean</text></g><path d="M727.3779,364.9531 L791.8208,364.9531 L791.8208,372.0859 L781.8208,382.0859 L727.3779,382.0859 L727.3779,364.9531" fill="#EEEEEE" style="stroke:#000000;stroke-width:1.5;"/><rect fill="none" height="704.5938" style="stroke:#000000;stroke-width:1.5;" width="563.2861" x="727.3779" y="364.9531"/><text fill="#000000" font-family="sans-serif" font-size="13" font-weight="bold" lengthAdjust="spacing" textLength="19.4429" x="742.3779" y="378.02">alt</text><text fill="#000000" font-family="sans-serif" font-size="11" font-weight="bold" lengthAdjust="spacing" textLength="126.8008" x="806.8208" y="377.1636">[Vertex NOT in MSF]</text><g class="message" data-entity-1="part3" data-entity-2="part5" id="msg8"><polygon fill="#181818" points="1210.1924,399.2188,1220.1924,403.2188,1210.1924,407.2188,1214.1924,403.2188" style="stroke:#181818;stroke-width:1;"/><line style="stroke:#181818;stroke-width:1;" x1="887.1309" x2="1216.1924" y1="403.2188" y2="403.2188"/><text fill="#000000" font-family="sans-serif" font-size="13" lengthAdjust="spacing" textLength="119.4629" x="894.1309" y="398.1528">addVertex(vertex)</text></g><path d="M737.3779,418.2188 L814.002,418.2188 L814.002,425.3516 L804.002,435.3516 L737.3779,435.3516 L737.3779,418.2188" fill="#EEEEEE" style="stroke:#000000;stroke-width:1.5;"/><rect fill="none" height="644.3281" style="stroke:#000000;stroke-width:1.5;" width="543.2861" x="737.3779" y="418.2188"/><text fill="#000000" font-family="sans-serif" font-size="13" font-weight="bold" lengthAdjust="spacing" textLength="31.624" x="752.3779" y="431.2856">loop</text><text fill="#000000" font-family="sans-serif" font-size="11" font-weight="bold" lengthAdjust="spacing" textLength="159.8384" x="829.002" y="430.4292">[while expanded == true]</text><g class="message" data-entity-1="part3" data-entity-2="part4" id="msg9"><polygon fill="#181818" points="1143.249,452.4844,1153.249,456.4844,1143.249,460.4844,1147.249,456.4844" style="stroke:#181818;stroke-width:1;"/><line style="stroke:#181818;stroke-width:1;" x1="887.1309" x2="1149.249" y1="456.4844" y2="456.4844"/><text fill="#000000" font-family="sans-serif" font-size="13" lengthAdjust="spacing" textLength="127.5562" x="894.1309" y="451.4185">vertices() from MSF</text></g><path d="M747.3779,471.4844 L824.002,471.4844 L824.002,478.6172 L814.002,488.6172 L747.3779,488.6172 L747.3779,471.4844" fill="#EEEEEE" style="stroke:#000000;stroke-width:1.5;"/><rect fill="none" height="395.5938" style="stroke:#000000;stroke-width:1.5;" width="523.2861" x="747.3779" y="471.4844"/><text fill="#000000" font-family="sans-serif" font-size="13" font-weight="bold" lengthAdjust="spacing" textLength="31.624" x="762.3779" y="484.5513">loop</text><text fill="#000000" font-family="sans-serif" font-size="11" font-weight="bold" lengthAdjust="spacing" textLength="152.958" x="839.002" y="483.6948">[For each vertex in MSF]</text><g class="message" data-entity-1="part3" data-entity-2="part4" id="msg10"><polygon fill="#181818" points="1143.249,505.75,1153.249,509.75,1143.249,513.75,1147.249,509.75" style="stroke:#181818;stroke-width:1;"/><line style="stroke:#181818;stroke-width:1;" x1="887.1309" x2="1149.249" y1="509.75" y2="509.75"/><text fill="#000000" font-family="sans-serif" font-size="13" lengthAdjust="spacing" textLength="149.0557" x="894.1309" y="504.6841">outgoingEdges(vertex)</text></g><g class="message" data-entity-1="part4" data-entity-2="part3" id="msg11"><polygon fill="#181818" points="898.1309,534.8828,888.1309,538.8828,898.1309,542.8828,894.1309,538.8828" style="stroke:#181818;stroke-width:1;"/><line style="stroke:#181818;stroke-width:1;stroke-dasharray:2,2;" x1="892.1309" x2="1154.249" y1="538.8828" y2="538.8828"/><text fill="#000000" font-family="sans-serif" font-size="13" lengthAdjust="spacing" textLength="244.1182" x="904.1309" y="533.8169">Iterable&lt;Edge&lt;RailNode, RailLine&gt;&gt;</text></g><path d="M757.3779,553.8828 L834.002,553.8828 L834.002,561.0156 L824.002,571.0156 L757.3779,571.0156 L757.3779,553.8828" fill="#EEEEEE" style="stroke:#000000;stroke-width:1.5;"/><rect fill="none" height="306.1953" style="stroke:#000000;stroke-width:1.5;" width="503.2861" x="757.3779" y="553.8828"/><text fill="#000000" font-family="sans-serif" font-size="13" font-weight="bold" lengthAdjust="spacing" textLength="31.624" x="772.3779" y="566.9497">loop</text><text fill="#000000" font-family="sans-serif" font-size="11" font-weight="bold" lengthAdjust="spacing" textLength="98.1138" x="849.002" y="566.0933">[For each edge]</text><g class="message" data-entity-1="part3" data-entity-2="part3" id="msg12"><line style="stroke:#181818;stroke-width:1;" x1="887.1309" x2="929.1309" y1="592.1484" y2="592.1484"/><line style="stroke:#181818;stroke-width:1;" x1="929.1309" x2="929.1309" y1="592.1484" y2="605.1484"/><line style="stroke:#181818;stroke-width:1;" x1="888.1309" x2="929.1309" y1="605.1484" y2="605.1484"/><polygon fill="#181818" points="898.1309,601.1484,888.1309,605.1484,898.1309,609.1484,894.1309,605.1484" style="stroke:#181818;stroke-width:1;"/><text fill="#000000" font-family="sans-serif" font-size="13" lengthAdjust="spacing" textLength="146.0977" x="894.1309" y="587.0825">Get destination vertex</text></g><g class="message" data-entity-1="part3" data-entity-2="part5" id="msg13"><polygon fill="#181818" points="1210.1924,630.2813,1220.1924,634.2813,1210.1924,638.2813,1214.1924,634.2813" style="stroke:#181818;stroke-width:1;"/><line style="stroke:#181818;stroke-width:1;" x1="887.1309" x2="1216.1924" y1="634.2813" y2="634.2813"/><text fill="#000000" font-family="sans-serif" font-size="13" lengthAdjust="spacing" textLength="157.1426" x="894.1309" y="629.2153">validVertex(destination)</text></g><g class="message" data-entity-1="part5" data-entity-2="part3" id="msg14"><polygon fill="#181818" points="898.1309,659.4141,888.1309,663.4141,898.1309,667.4141,894.1309,663.4141" style="stroke:#181818;stroke-width:1;"/><line style="stroke:#181818;stroke-width:1;stroke-dasharray:2,2;" x1="892.1309" x2="1221.1924" y1="663.4141" y2="663.4141"/><text fill="#000000" font-family="sans-serif" font-size="13" lengthAdjust="spacing" textLength="51.9746" x="904.1309" y="658.3481">boolean</text></g><path d="M767.3779,678.4141 L831.8208,678.4141 L831.8208,685.5469 L821.8208,695.5469 L767.3779,695.5469 L767.3779,678.4141" fill="#EEEEEE" style="stroke:#000000;stroke-width:1.5;"/><rect fill="none" height="174.6641" style="stroke:#000000;stroke-width:1.5;" width="346.707" x="767.3779" y="678.4141"/><text fill="#000000" font-family="sans-serif" font-size="13" font-weight="bold" lengthAdjust="spacing" textLength="19.4429" x="782.3779" y="691.481">alt</text><text fill="#000000" font-family="sans-serif" font-size="11" font-weight="bold" lengthAdjust="spacing" textLength="156.1699" x="846.8208" y="690.6245">[destination NOT in MSF]</text><g class="message" data-entity-1="part3" data-entity-2="part3" id="msg15"><line style="stroke:#181818;stroke-width:1;" x1="887.1309" x2="929.1309" y1="716.6797" y2="716.6797"/><line style="stroke:#181818;stroke-width:1;" x1="929.1309" x2="929.1309" y1="716.6797" y2="729.6797"/><line style="stroke:#181818;stroke-width:1;" x1="888.1309" x2="929.1309" y1="729.6797" y2="729.6797"/><polygon fill="#181818" points="898.1309,725.6797,888.1309,729.6797,898.1309,733.6797,894.1309,729.6797" style="stroke:#181818;stroke-width:1;"/><text fill="#000000" font-family="sans-serif" font-size="13" lengthAdjust="spacing" textLength="177.125" x="894.1309" y="711.6138">Get edge.weight.distance()</text></g><g class="message" data-entity-1="part3" data-entity-2="part3" id="msg16"><line style="stroke:#181818;stroke-width:1;" x1="887.1309" x2="929.1309" y1="758.8125" y2="758.8125"/><line style="stroke:#181818;stroke-width:1;" x1="929.1309" x2="929.1309" y1="758.8125" y2="771.8125"/><line style="stroke:#181818;stroke-width:1;" x1="888.1309" x2="929.1309" y1="771.8125" y2="771.8125"/><polygon fill="#181818" points="898.1309,767.8125,888.1309,771.8125,898.1309,775.8125,894.1309,771.8125" style="stroke:#181818;stroke-width:1;"/><text fill="#000000" font-family="sans-serif" font-size="13" lengthAdjust="spacing" textLength="152.3311" x="894.1309" y="753.7466">Compare with minEdge</text></g><path d="M777.3779,786.8125 L841.8208,786.8125 L841.8208,793.9453 L831.8208,803.9453 L777.3779,803.9453 L777.3779,786.8125" fill="#EEEEEE" style="stroke:#000000;stroke-width:1.5;"/><rect fill="none" height="59.2656" style="stroke:#000000;stroke-width:1.5;" width="326.707" x="777.3779" y="786.8125"/><text fill="#000000" font-family="sans-serif" font-size="13" font-weight="bold" lengthAdjust="spacing" textLength="19.4429" x="792.3779" y="799.8794">alt</text><text fill="#000000" font-family="sans-serif" font-size="11" font-weight="bold" lengthAdjust="spacing" textLength="190.2656" x="856.8208" y="799.0229">[distance &lt; minEdge.distance]</text><g class="message" data-entity-1="part3" data-entity-2="part3" id="msg17"><line style="stroke:#181818;stroke-width:1;" x1="887.1309" x2="929.1309" y1="825.0781" y2="825.0781"/><line style="stroke:#181818;stroke-width:1;" x1="929.1309" x2="929.1309" y1="825.0781" y2="838.0781"/><line style="stroke:#181818;stroke-width:1;" x1="888.1309" x2="929.1309" y1="838.0781" y2="838.0781"/><polygon fill="#181818" points="898.1309,834.0781,888.1309,838.0781,898.1309,842.0781,894.1309,838.0781" style="stroke:#181818;stroke-width:1;"/><text fill="#000000" font-family="sans-serif" font-size="13" lengthAdjust="spacing" textLength="187.9541" x="894.1309" y="820.0122">Update minEdge = this edge</text></g><path d="M777.3779,881.0781 L841.8208,881.0781 L841.8208,888.2109 L831.8208,898.2109 L777.3779,898.2109 L777.3779,881.0781" fill="#EEEEEE" style="stroke:#000000;stroke-width:1.5;"/><rect fill="none" height="174.4688" style="stroke:#000000;stroke-width:1.5;" width="483.2861" x="777.3779" y="881.0781"/><text fill="#000000" font-family="sans-serif" font-size="13" font-weight="bold" lengthAdjust="spacing" textLength="19.4429" x="792.3779" y="894.145">alt</text><text fill="#000000" font-family="sans-serif" font-size="11" font-weight="bold" lengthAdjust="spacing" textLength="108.9365" x="856.8208" y="893.2886">[minEdge != null]</text><g class="message" data-entity-1="part3" data-entity-2="part5" id="msg18"><polygon fill="#181818" points="1210.1924,915.3438,1220.1924,919.3438,1210.1924,923.3438,1214.1924,919.3438" style="stroke:#181818;stroke-width:1;"/><line style="stroke:#181818;stroke-width:1;" x1="887.1309" x2="1216.1924" y1="919.3438" y2="919.3438"/><text fill="#000000" font-family="sans-serif" font-size="13" lengthAdjust="spacing" textLength="209.2632" x="894.1309" y="914.2778">addVertex(minEdge.getVDest())</text></g><g class="message" data-entity-1="part3" data-entity-2="part5" id="msg19"><polygon fill="#181818" points="1210.1924,944.4766,1220.1924,948.4766,1210.1924,952.4766,1214.1924,948.4766" style="stroke:#181818;stroke-width:1;"/><line style="stroke:#181818;stroke-width:1;" x1="887.1309" x2="1216.1924" y1="948.4766" y2="948.4766"/><text fill="#000000" font-family="sans-serif" font-size="13" lengthAdjust="spacing" textLength="196.6187" x="894.1309" y="943.4106">addEdge(origin, dest, railLine)</text></g><g class="message" data-entity-1="part3" data-entity-2="part3" id="msg20"><line style="stroke:#181818;stroke-width:1;" x1="887.1309" x2="929.1309" y1="977.6094" y2="977.6094"/><line style="stroke:#181818;stroke-width:1;" x1="929.1309" x2="929.1309" y1="977.6094" y2="990.6094"/><line style="stroke:#181818;stroke-width:1;" x1="888.1309" x2="929.1309" y1="990.6094" y2="990.6094"/><polygon fill="#181818" points="898.1309,986.6094,888.1309,990.6094,898.1309,994.6094,894.1309,990.6094" style="stroke:#181818;stroke-width:1;"/><text fill="#000000" font-family="sans-serif" font-size="13" lengthAdjust="spacing" textLength="135.9668" x="894.1309" y="972.5435">Set expanded = true</text></g><line style="stroke:#000000;stroke-width:1;stroke-dasharray:2,2;" x1="777.3779" x2="1260.6641" y1="999.6094" y2="999.6094"/><text fill="#000000" font-family="sans-serif" font-size="11" font-weight="bold" lengthAdjust="spacing" textLength="113.1367" x="782.3779" y="1009.8198">[minEdge == null]</text><g class="message" data-entity-1="part3" data-entity-2="part3" id="msg21"><line style="stroke:#181818;stroke-width:1;" x1="887.1309" x2="929.1309" y1="1034.5469" y2="1034.5469"/><line style="stroke:#181818;stroke-width:1;" x1="929.1309" x2="929.1309" y1="1034.5469" y2="1047.5469"/><line style="stroke:#181818;stroke-width:1;" x1="888.1309" x2="929.1309" y1="1047.5469" y2="1047.5469"/><polygon fill="#181818" points="898.1309,1043.5469,888.1309,1047.5469,898.1309,1051.5469,894.1309,1047.5469" style="stroke:#181818;stroke-width:1;"/><text fill="#000000" font-family="sans-serif" font-size="13" lengthAdjust="spacing" textLength="140.2134" x="894.1309" y="1029.481">Set expanded = false</text></g><g class="message" data-entity-1="part3" data-entity-2="part2" id="msg22"><polygon fill="#181818" points="622.1519,1100.6797,612.1519,1104.6797,622.1519,1108.6797,618.1519,1104.6797" style="stroke:#181818;stroke-width:1;"/><line style="stroke:#181818;stroke-width:1;stroke-dasharray:2,2;" x1="616.1519" x2="881.1309" y1="1104.6797" y2="1104.6797"/><text fill="#000000" font-family="sans-serif" font-size="13" lengthAdjust="spacing" textLength="241.979" x="628.1519" y="1099.6138">MSFGraph (Minimal Spanning Forest)</text></g><g class="message" data-entity-1="part2" data-entity-2="part6" id="msg23"><polygon fill="#181818" points="1349.1167,1129.8125,1359.1167,1133.8125,1349.1167,1137.8125,1353.1167,1133.8125" style="stroke:#181818;stroke-width:1;"/><line style="stroke:#181818;stroke-width:1;" x1="611.1519" x2="1355.1167" y1="1133.8125" y2="1133.8125"/><text fill="#000000" font-family="sans-serif" font-size="13" lengthAdjust="spacing" textLength="422.627" x="618.1519" y="1128.7466">exportUndirectedBackbone(MSFGraph, "minimal_backbone.dot")</text></g><g class="message" data-entity-1="part6" data-entity-2="part5" id="msg24"><polygon fill="#181818" points="1233.1924,1158.9453,1223.1924,1162.9453,1233.1924,1166.9453,1229.1924,1162.9453" style="stroke:#181818;stroke-width:1;"/><line style="stroke:#181818;stroke-width:1;" x1="1227.1924" x2="1360.1167" y1="1162.9453" y2="1162.9453"/><text fill="#000000" font-family="sans-serif" font-size="13" lengthAdjust="spacing" textLength="61.8071" x="1239.1924" y="1157.8794">vertices()</text></g><g class="message" data-entity-1="part6" data-entity-2="part5" id="msg25"><polygon fill="#181818" points="1233.1924,1188.0781,1223.1924,1192.0781,1233.1924,1196.0781,1229.1924,1192.0781" style="stroke:#181818;stroke-width:1;"/><line style="stroke:#181818;stroke-width:1;" x1="1227.1924" x2="1360.1167" y1="1192.0781" y2="1192.0781"/><text fill="#000000" font-family="sans-serif" font-size="13" lengthAdjust="spacing" textLength="114.9243" x="1239.1924" y="1187.0122">outgoingEdges(v)</text></g><g class="message" data-entity-1="part6" data-entity-2="part6" id="msg26"><line style="stroke:#181818;stroke-width:1;" x1="1371.1167" x2="1413.1167" y1="1221.2109" y2="1221.2109"/><line style="stroke:#181818;stroke-width:1;" x1="1413.1167" x2="1413.1167" y1="1221.2109" y2="1234.2109"/><line style="stroke:#181818;stroke-width:1;" x1="1372.1167" x2="1413.1167" y1="1234.2109" y2="1234.2109"/><polygon fill="#181818" points="1382.1167,1230.2109,1372.1167,1234.2109,1382.1167,1238.2109,1378.1167,1234.2109" style="stroke:#181818;stroke-width:1;"/><text fill="#000000" font-family="sans-serif" font-size="13" lengthAdjust="spacing" textLength="142.5049" x="1378.1167" y="1216.145">Build Graphviz format</text></g><g class="message" data-entity-1="part6" data-entity-2="part6" id="msg27"><line style="stroke:#181818;stroke-width:1;" x1="1371.1167" x2="1413.1167" y1="1263.3438" y2="1263.3438"/><line style="stroke:#181818;stroke-width:1;" x1="1413.1167" x2="1413.1167" y1="1263.3438" y2="1276.3438"/><line style="stroke:#181818;stroke-width:1;" x1="1372.1167" x2="1413.1167" y1="1276.3438" y2="1276.3438"/><polygon fill="#181818" points="1382.1167,1272.3438,1372.1167,1276.3438,1382.1167,1280.3438,1378.1167,1276.3438" style="stroke:#181818;stroke-width:1;"/><text fill="#000000" font-family="sans-serif" font-size="13" lengthAdjust="spacing" textLength="58.8364" x="1378.1167" y="1258.2778">Write file</text></g><g class="message" data-entity-1="part6" data-entity-2="part2" id="msg28"><polygon fill="#181818" points="622.1519,1301.4766,612.1519,1305.4766,622.1519,1309.4766,618.1519,1305.4766" style="stroke:#181818;stroke-width:1;"/><line style="stroke:#181818;stroke-width:1;stroke-dasharray:2,2;" x1="616.1519" x2="1365.1167" y1="1305.4766" y2="1305.4766"/><text fill="#000000" font-family="sans-serif" font-size="13" lengthAdjust="spacing" textLength="27.5107" x="628.1519" y="1300.4106">void</text></g><g class="message" data-entity-1="part2" data-entity-2="part1" id="msg29"><polygon fill="#181818" points="92.0703,1330.6094,82.0703,1334.6094,92.0703,1338.6094,88.0703,1334.6094" style="stroke:#181818;stroke-width:1;"/><line style="stroke:#181818;stroke-width:1;stroke-dasharray:2,2;" x1="86.0703" x2="605.1519" y1="1334.6094" y2="1334.6094"/><text fill="#000000" font-family="sans-serif" font-size="13" lengthAdjust="spacing" textLength="166.3213" x="98.0703" y="1329.5435">void (exception handling)</text></g><g class="message" data-entity-1="part1" data-entity-2="part1" id="msg30"><line style="stroke:#181818;stroke-width:1;stroke-dasharray:2,2;" x1="81.0703" x2="123.0703" y1="1363.7422" y2="1363.7422"/><line style="stroke:#181818;stroke-width:1;stroke-dasharray:2,2;" x1="123.0703" x2="123.0703" y1="1363.7422" y2="1376.7422"/><line style="stroke:#181818;stroke-width:1;stroke-dasharray:2,2;" x1="82.0703" x2="123.0703" y1="1376.7422" y2="1376.7422"/><polygon fill="#181818" points="92.0703,1372.7422,82.0703,1376.7422,92.0703,1380.7422,88.0703,1376.7422" style="stroke:#181818;stroke-width:1;"/><text fill="#000000" font-family="sans-serif" font-size="13" lengthAdjust="spacing" textLength="165.458" x="88.0703" y="1358.6763">Display success message</text></g><g class="message" data-entity-1="part1" data-entity-2="part1" id="msg31"><line style="stroke:#181818;stroke-width:1;stroke-dasharray:2,2;" x1="81.0703" x2="123.0703" y1="1405.875" y2="1405.875"/><line style="stroke:#181818;stroke-width:1;stroke-dasharray:2,2;" x1="123.0703" x2="123.0703" y1="1405.875" y2="1418.875"/><line style="stroke:#181818;stroke-width:1;stroke-dasharray:2,2;" x1="82.0703" x2="123.0703" y1="1418.875" y2="1418.875"/><polygon fill="#181818" points="92.0703,1414.875,82.0703,1418.875,92.0703,1422.875,88.0703,1418.875" style="stroke:#181818;stroke-width:1;"/><text fill="#000000" font-family="sans-serif" font-size="13" lengthAdjust="spacing" textLength="511.0815" x="88.0703" y="1400.8091">Show command: neato minimal_backbone.dot -Tsvg -o minimal_backbone.svg</text></g><g class="message" data-entity-1="part1" data-entity-2="part1" id="msg32"><line style="stroke:#181818;stroke-width:1;stroke-dasharray:2,2;" x1="81.0703" x2="123.0703" y1="1448.0078" y2="1448.0078"/><line style="stroke:#181818;stroke-width:1;stroke-dasharray:2,2;" x1="123.0703" x2="123.0703" y1="1448.0078" y2="1461.0078"/><line style="stroke:#181818;stroke-width:1;stroke-dasharray:2,2;" x1="82.0703" x2="123.0703" y1="1461.0078" y2="1461.0078"/><polygon fill="#181818" points="92.0703,1457.0078,82.0703,1461.0078,92.0703,1465.0078,88.0703,1461.0078" style="stroke:#181818;stroke-width:1;"/><text fill="#000000" font-family="sans-serif" font-size="13" lengthAdjust="spacing" textLength="81.4023" x="88.0703" y="1442.9419">waitReturn()</text></g><!--SRC=[bLRVRvim47xdhxZb2QGaqlPOjP7MduhKTbBJT2-J9WTVm2hOp9YGxg_VcGGm9AGPKeYnxxwx-to-in4cGLWkldw32Jm9ALAMm3KBtrTA8ZoZAPL-1_yLmrYAaDOM-AT06IBS2XPfbWQUbp5jH2Wo9aqDKICivy1oMCvFoTmeQRHA4jHMjlqwfRD0lH7a12diXntf1ysos2xEPLQOwgkpFggcVad_QN4VZAmW3Gx5gfcD-7ktpPGsE__giUTHR9EPuozSGAXIieSzPttDH5AoZmeky5Xen8OPT4Fr71W2hSCRH8nwK3K9Ngr987L8X2AnX2UMLP_-cYKvEhfDw1mFvrp0bao2tA3b2NC_y9pvISVvxrgpZqUHcyiNOk1PSPnvNg9K1lTA0rcBAnZSWf1GXJHrO86Uu-5iM2BuMwNfxm1sqer8rusLKWaoMObKBvOOsAd3yuzNQvmqgvLXcumVizX0sgUAh8m57IZSKW9nv71r1KONsCZq30nG2ckjqevJ7KEDiICqzfLE6LI5YPIGqHsFo6e_hlePtDuv7GEsIl3IwZTRF0OxUXGIPxC3h8E9RXX8G0SYlGXQ-mzeW6DkX6H6ABaduJFzWJnoW8AZ46SarwVHriddUdqa0y-Etl8rBL54iPboEcUC2hCV_1_E3LKOfX5AOM98XRmRseF6-RqXkAp56zk3UeFMbnctzMOF17HQOf4Fvu5zK7BltFd-NF_RwmTNE_Bb2cIH9DvvYTGMXvgH2CtRBUso7mJdOrXDNsaH2JckScGCUd-MJgAqT2viKZIrvx3q89N-bkpFOnn4hfh88BNrsFxRNzj5-Xsp8S2lBnyBiY6fADcgG1G4RbjgsbotNJRz-SAwICEbv49ZQ90t7RCsD8PHkhFqUxLVct9bHav3R5jy0zoh6ssJ6f3eLTQW2-NuUrs8X3SN3LWhdJ8p9FnJ2t9lJGt6nUjJkb62kwIruRYiaHPTO7RIuECsnAmgHp7jS4AUTtXtRohssbChtueyIzW7v4L8TEIGqelHqNLb5h4gxJKc9M1x4s56mR4TWCbhlebWScILvZkG9HFc1KsXfH_y0m00]--></g></svg>