<svg xmlns="http://www.w3.org/2000/svg" xmlns:xlink="http://www.w3.org/1999/xlink" contentStyleType="text/css" data-diagram-type="SEQUENCE" height="1079px" preserveAspectRatio="none" style="width:781px;height:1079px;background:#FFFFFF;" version="1.1" viewBox="0 0 781 1079" width="781px" zoomAndPan="magnify"><title>"US07 - System Sequence Diagram</title><defs/><g><text fill="#000000" font-family="sans-serif" font-size="14" font-weight="bold" lengthAdjust="spacing" textLength="275.502" x="248.7996" y="27.9951">"US07 - System Sequence Diagram</text><g><title>Data Engineer</title><rect fill="#000000" fill-opacity="0.00000" height="880.1875" width="8" x="54.1143" y="118.5938"/><line style="stroke:#181818;stroke-width:0.5;stroke-dasharray:5,5;" x1="58" x2="58" y1="118.5938" y2="998.7813"/></g><g><title>System</title><rect fill="#000000" fill-opacity="0.00000" height="880.1875" width="8" x="438.3691" y="118.5938"/><line style="stroke:#181818;stroke-width:0.5;stroke-dasharray:5,5;" x1="442.2661" x2="442.2661" y1="118.5938" y2="998.7813"/></g><g class="participant participant-head" data-participant="DE"><text fill="#000000" font-family="sans-serif" font-size="14" lengthAdjust="spacing" textLength="100.2285" x="5" y="115.292">Data Engineer</text><ellipse cx="58.1143" cy="50.7969" fill="#E2E2F0" rx="8" ry="8" style="stroke:#181818;stroke-width:0.5;"/><path d="M58.1143,58.7969 L58.1143,85.7969 M45.1143,66.7969 L71.1143,66.7969 M58.1143,85.7969 L45.1143,100.7969 M58.1143,85.7969 L71.1143,100.7969" fill="none" style="stroke:#181818;stroke-width:0.5;"/></g><g class="participant participant-tail" data-participant="DE"><text fill="#000000" font-family="sans-serif" font-size="14" lengthAdjust="spacing" textLength="100.2285" x="5" y="1010.7764">Data Engineer</text><ellipse cx="58.1143" cy="1022.5781" fill="#E2E2F0" rx="8" ry="8" style="stroke:#181818;stroke-width:0.5;"/><path d="M58.1143,1030.5781 L58.1143,1057.5781 M45.1143,1038.5781 L71.1143,1038.5781 M58.1143,1057.5781 L45.1143,1072.5781 M58.1143,1057.5781 L71.1143,1072.5781" fill="none" style="stroke:#181818;stroke-width:0.5;"/></g><g class="participant participant-head" data-participant="SYS"><rect fill="#E2E2F0" height="30.2969" rx="2.5" ry="2.5" style="stroke:#181818;stroke-width:0.5;" width="66.2061" x="409.2661" y="87.2969"/><text fill="#000000" font-family="sans-serif" font-size="14" lengthAdjust="spacing" textLength="52.2061" x="416.2661" y="107.292">System</text></g><g class="participant participant-tail" data-participant="SYS"><rect fill="#E2E2F0" height="30.2969" rx="2.5" ry="2.5" style="stroke:#181818;stroke-width:0.5;" width="66.2061" x="409.2661" y="997.7813"/><text fill="#000000" font-family="sans-serif" font-size="14" lengthAdjust="spacing" textLength="52.2061" x="416.2661" y="1017.7764">System</text></g><g class="message" data-participant-1="DE" data-participant-2="SYS"><polygon fill="#181818" points="430.3691,145.7266,440.3691,149.7266,430.3691,153.7266,434.3691,149.7266" style="stroke:#181818;stroke-width:1;"/><line style="stroke:#181818;stroke-width:1;" x1="58.1143" x2="436.3691" y1="149.7266" y2="149.7266"/><text fill="#000000" font-family="sans-serif" font-size="13" lengthAdjust="spacing" textLength="269.7056" x="65.1143" y="144.6606">Request: Build KD-Tree from AVL indexes</text></g><g class="message" data-participant-1="SYS" data-participant-2="SYS"><line style="stroke:#181818;stroke-width:1;stroke-dasharray:2,2;" x1="442.3691" x2="484.3691" y1="178.8594" y2="178.8594"/><line style="stroke:#181818;stroke-width:1;stroke-dasharray:2,2;" x1="484.3691" x2="484.3691" y1="178.8594" y2="191.8594"/><line style="stroke:#181818;stroke-width:1;stroke-dasharray:2,2;" x1="443.3691" x2="484.3691" y1="191.8594" y2="191.8594"/><polygon fill="#181818" points="453.3691,187.8594,443.3691,191.8594,453.3691,195.8594,449.3691,191.8594" style="stroke:#181818;stroke-width:1;"/><text fill="#000000" font-family="sans-serif" font-size="13" lengthAdjust="spacing" textLength="317.7319" x="449.3691" y="173.7935">Load AVL&lt;StationByLat&gt; + AVL&lt;StationByLon&gt;</text></g><g class="message" data-participant-1="SYS" data-participant-2="SYS"><line style="stroke:#181818;stroke-width:1;stroke-dasharray:2,2;" x1="442.3691" x2="484.3691" y1="220.9922" y2="220.9922"/><line style="stroke:#181818;stroke-width:1;stroke-dasharray:2,2;" x1="484.3691" x2="484.3691" y1="220.9922" y2="233.9922"/><line style="stroke:#181818;stroke-width:1;stroke-dasharray:2,2;" x1="443.3691" x2="484.3691" y1="233.9922" y2="233.9922"/><polygon fill="#181818" points="453.3691,229.9922,443.3691,233.9922,453.3691,237.9922,449.3691,233.9922" style="stroke:#181818;stroke-width:1;"/><text fill="#000000" font-family="sans-serif" font-size="13" lengthAdjust="spacing" textLength="185.1611" x="449.3691" y="215.9263">Bulk-build balanced KD-Tree</text></g><g class="message" data-participant-1="SYS" data-participant-2="DE"><polygon fill="#181818" points="69.1143,259.125,59.1143,263.125,69.1143,267.125,65.1143,263.125" style="stroke:#181818;stroke-width:1;"/><line style="stroke:#181818;stroke-width:1;stroke-dasharray:2,2;" x1="63.1143" x2="441.3691" y1="263.125" y2="263.125"/><text fill="#000000" font-family="sans-serif" font-size="13" lengthAdjust="spacing" textLength="261.0156" x="75.1143" y="258.0591">Confirmation: KD-Tree built successfully</text></g><rect fill="#EEEEEE" height="3" style="stroke:#EEEEEE;stroke-width:1;" width="774.1011" x="0" y="291.6914"/><line style="stroke:#000000;stroke-width:1;" x1="0" x2="774.1011" y1="291.6914" y2="291.6914"/><line style="stroke:#000000;stroke-width:1;" x1="0" x2="774.1011" y1="294.6914" y2="294.6914"/><rect fill="#EEEEEE" height="23.1328" style="stroke:#000000;stroke-width:2;" width="202.7603" x="285.6704" y="281.125"/><text fill="#000000" font-family="sans-serif" font-size="13" font-weight="bold" lengthAdjust="spacing" textLength="184.2344" x="291.6704" y="297.1919">Option 1: Show Tree Size</text><g class="message" data-participant-1="DE" data-participant-2="SYS"><polygon fill="#181818" points="430.3691,331.3906,440.3691,335.3906,430.3691,339.3906,434.3691,335.3906" style="stroke:#181818;stroke-width:1;"/><line style="stroke:#181818;stroke-width:1;" x1="58.1143" x2="436.3691" y1="335.3906" y2="335.3906"/><text fill="#000000" font-family="sans-serif" font-size="13" lengthAdjust="spacing" textLength="172.5293" x="65.1143" y="330.3247">Request: Get KD-Tree Size</text></g><g class="message" data-participant-1="SYS" data-participant-2="SYS"><line style="stroke:#181818;stroke-width:1;stroke-dasharray:2,2;" x1="442.3691" x2="484.3691" y1="364.5234" y2="364.5234"/><line style="stroke:#181818;stroke-width:1;stroke-dasharray:2,2;" x1="484.3691" x2="484.3691" y1="364.5234" y2="377.5234"/><line style="stroke:#181818;stroke-width:1;stroke-dasharray:2,2;" x1="443.3691" x2="484.3691" y1="377.5234" y2="377.5234"/><polygon fill="#181818" points="453.3691,373.5234,443.3691,377.5234,453.3691,381.5234,449.3691,377.5234" style="stroke:#181818;stroke-width:1;"/><text fill="#000000" font-family="sans-serif" font-size="13" lengthAdjust="spacing" textLength="131.6631" x="449.3691" y="359.4575">size = KDTree.size()</text></g><g class="message" data-participant-1="SYS" data-participant-2="DE"><polygon fill="#181818" points="69.1143,402.6563,59.1143,406.6563,69.1143,410.6563,65.1143,406.6563" style="stroke:#181818;stroke-width:1;"/><line style="stroke:#181818;stroke-width:1;stroke-dasharray:2,2;" x1="63.1143" x2="441.3691" y1="406.6563" y2="406.6563"/><text fill="#000000" font-family="sans-serif" font-size="13" lengthAdjust="spacing" textLength="73.29" x="75.1143" y="401.5903">Return size</text></g><rect fill="#EEEEEE" height="3" style="stroke:#EEEEEE;stroke-width:1;" width="774.1011" x="0" y="435.2227"/><line style="stroke:#000000;stroke-width:1;" x1="0" x2="774.1011" y1="435.2227" y2="435.2227"/><line style="stroke:#000000;stroke-width:1;" x1="0" x2="774.1011" y1="438.2227" y2="438.2227"/><rect fill="#EEEEEE" height="23.1328" style="stroke:#000000;stroke-width:2;" width="221.4858" x="276.3076" y="424.6563"/><text fill="#000000" font-family="sans-serif" font-size="13" font-weight="bold" lengthAdjust="spacing" textLength="202.96" x="282.3076" y="440.7231">Option 2: Show Tree Height</text><g class="message" data-participant-1="DE" data-participant-2="SYS"><polygon fill="#181818" points="430.3691,474.9219,440.3691,478.9219,430.3691,482.9219,434.3691,478.9219" style="stroke:#181818;stroke-width:1;"/><line style="stroke:#181818;stroke-width:1;" x1="58.1143" x2="436.3691" y1="478.9219" y2="478.9219"/><text fill="#000000" font-family="sans-serif" font-size="13" lengthAdjust="spacing" textLength="188.8174" x="65.1143" y="473.856">Request: Get KD-Tree Height</text></g><g class="message" data-participant-1="SYS" data-participant-2="SYS"><line style="stroke:#181818;stroke-width:1;stroke-dasharray:2,2;" x1="442.3691" x2="484.3691" y1="508.0547" y2="508.0547"/><line style="stroke:#181818;stroke-width:1;stroke-dasharray:2,2;" x1="484.3691" x2="484.3691" y1="508.0547" y2="521.0547"/><line style="stroke:#181818;stroke-width:1;stroke-dasharray:2,2;" x1="443.3691" x2="484.3691" y1="521.0547" y2="521.0547"/><polygon fill="#181818" points="453.3691,517.0547,443.3691,521.0547,453.3691,525.0547,449.3691,521.0547" style="stroke:#181818;stroke-width:1;"/><text fill="#000000" font-family="sans-serif" font-size="13" lengthAdjust="spacing" textLength="164.125" x="449.3691" y="502.9888">height = KDTree.height()</text></g><g class="message" data-participant-1="SYS" data-participant-2="DE"><polygon fill="#181818" points="69.1143,546.1875,59.1143,550.1875,69.1143,554.1875,65.1143,550.1875" style="stroke:#181818;stroke-width:1;"/><line style="stroke:#181818;stroke-width:1;stroke-dasharray:2,2;" x1="63.1143" x2="441.3691" y1="550.1875" y2="550.1875"/><text fill="#000000" font-family="sans-serif" font-size="13" lengthAdjust="spacing" textLength="89.521" x="75.1143" y="545.1216">Return height</text></g><rect fill="#EEEEEE" height="3" style="stroke:#EEEEEE;stroke-width:1;" width="774.1011" x="0" y="578.7539"/><line style="stroke:#000000;stroke-width:1;" x1="0" x2="774.1011" y1="578.7539" y2="578.7539"/><line style="stroke:#000000;stroke-width:1;" x1="0" x2="774.1011" y1="581.7539" y2="581.7539"/><rect fill="#EEEEEE" height="23.1328" style="stroke:#000000;stroke-width:2;" width="289.4883" x="242.3064" y="568.1875"/><text fill="#000000" font-family="sans-serif" font-size="13" font-weight="bold" lengthAdjust="spacing" textLength="270.9624" x="248.3064" y="584.2544">Option 3: Show Distinct Bucket Sizes</text><g class="message" data-participant-1="DE" data-participant-2="SYS"><polygon fill="#181818" points="430.3691,618.4531,440.3691,622.4531,430.3691,626.4531,434.3691,622.4531" style="stroke:#181818;stroke-width:1;"/><line style="stroke:#181818;stroke-width:1;" x1="58.1143" x2="436.3691" y1="622.4531" y2="622.4531"/><text fill="#000000" font-family="sans-serif" font-size="13" lengthAdjust="spacing" textLength="225.4434" x="65.1143" y="617.3872">Request: Get Distinct Bucket Sizes</text></g><g class="message" data-participant-1="SYS" data-participant-2="SYS"><line style="stroke:#181818;stroke-width:1;stroke-dasharray:2,2;" x1="442.3691" x2="484.3691" y1="651.5859" y2="651.5859"/><line style="stroke:#181818;stroke-width:1;stroke-dasharray:2,2;" x1="484.3691" x2="484.3691" y1="651.5859" y2="664.5859"/><line style="stroke:#181818;stroke-width:1;stroke-dasharray:2,2;" x1="443.3691" x2="484.3691" y1="664.5859" y2="664.5859"/><polygon fill="#181818" points="453.3691,660.5859,443.3691,664.5859,453.3691,668.5859,449.3691,664.5859" style="stroke:#181818;stroke-width:1;"/><text fill="#000000" font-family="sans-serif" font-size="13" lengthAdjust="spacing" textLength="225.1006" x="449.3691" y="646.52">Traverse KD-Tree and collect sizes</text></g><g class="message" data-participant-1="SYS" data-participant-2="DE"><polygon fill="#181818" points="69.1143,689.7188,59.1143,693.7188,69.1143,697.7188,65.1143,693.7188" style="stroke:#181818;stroke-width:1;"/><line style="stroke:#181818;stroke-width:1;stroke-dasharray:2,2;" x1="63.1143" x2="441.3691" y1="693.7188" y2="693.7188"/><text fill="#000000" font-family="sans-serif" font-size="13" lengthAdjust="spacing" textLength="114.2324" x="75.1143" y="688.6528">Return {1,2,3,...}</text></g><rect fill="#EEEEEE" height="3" style="stroke:#EEEEEE;stroke-width:1;" width="774.1011" x="0" y="722.2852"/><line style="stroke:#000000;stroke-width:1;" x1="0" x2="774.1011" y1="722.2852" y2="722.2852"/><line style="stroke:#000000;stroke-width:1;" x1="0" x2="774.1011" y1="725.2852" y2="725.2852"/><rect fill="#EEEEEE" height="23.1328" style="stroke:#000000;stroke-width:2;" width="192.0454" x="291.0278" y="711.7188"/><text fill="#000000" font-family="sans-serif" font-size="13" font-weight="bold" lengthAdjust="spacing" textLength="173.5195" x="297.0278" y="727.7856">Option 4: Range Search</text><g class="message" data-participant-1="DE" data-participant-2="SYS"><polygon fill="#181818" points="430.3691,761.9844,440.3691,765.9844,430.3691,769.9844,434.3691,765.9844" style="stroke:#181818;stroke-width:1;"/><line style="stroke:#181818;stroke-width:1;" x1="58.1143" x2="436.3691" y1="765.9844" y2="765.9844"/><text fill="#000000" font-family="sans-serif" font-size="13" lengthAdjust="spacing" textLength="360.2549" x="65.1143" y="760.9185">Request: Range Search(latMin, latMax, lonMin, lonMax)</text></g><g class="message" data-participant-1="SYS" data-participant-2="SYS"><line style="stroke:#181818;stroke-width:1;stroke-dasharray:2,2;" x1="442.3691" x2="484.3691" y1="795.1172" y2="795.1172"/><line style="stroke:#181818;stroke-width:1;stroke-dasharray:2,2;" x1="484.3691" x2="484.3691" y1="795.1172" y2="808.1172"/><line style="stroke:#181818;stroke-width:1;stroke-dasharray:2,2;" x1="443.3691" x2="484.3691" y1="808.1172" y2="808.1172"/><polygon fill="#181818" points="453.3691,804.1172,443.3691,808.1172,453.3691,812.1172,449.3691,808.1172" style="stroke:#181818;stroke-width:1;"/><text fill="#000000" font-family="sans-serif" font-size="13" lengthAdjust="spacing" textLength="210.6724" x="449.3691" y="790.0513">Perform rangeSearch() traversal</text></g><g class="message" data-participant-1="SYS" data-participant-2="DE"><polygon fill="#181818" points="69.1143,833.25,59.1143,837.25,69.1143,841.25,65.1143,837.25" style="stroke:#181818;stroke-width:1;"/><line style="stroke:#181818;stroke-width:1;stroke-dasharray:2,2;" x1="63.1143" x2="441.3691" y1="837.25" y2="837.25"/><text fill="#000000" font-family="sans-serif" font-size="13" lengthAdjust="spacing" textLength="188.1699" x="75.1143" y="832.1841">Return matching stations list</text></g><rect fill="#EEEEEE" height="3" style="stroke:#EEEEEE;stroke-width:1;" width="774.1011" x="0" y="865.8164"/><line style="stroke:#000000;stroke-width:1;" x1="0" x2="774.1011" y1="865.8164" y2="865.8164"/><line style="stroke:#000000;stroke-width:1;" x1="0" x2="774.1011" y1="868.8164" y2="868.8164"/><rect fill="#EEEEEE" height="23.1328" style="stroke:#000000;stroke-width:2;" width="229.8267" x="272.1372" y="855.25"/><text fill="#000000" font-family="sans-serif" font-size="13" font-weight="bold" lengthAdjust="spacing" textLength="211.3008" x="278.1372" y="871.3169">Option 5: Nearest Neighbour</text><g class="message" data-participant-1="DE" data-participant-2="SYS"><polygon fill="#181818" points="430.3691,905.5156,440.3691,909.5156,430.3691,913.5156,434.3691,909.5156" style="stroke:#181818;stroke-width:1;"/><line style="stroke:#181818;stroke-width:1;" x1="58.1143" x2="436.3691" y1="909.5156" y2="909.5156"/><text fill="#000000" font-family="sans-serif" font-size="13" lengthAdjust="spacing" textLength="167.6924" x="65.1143" y="904.4497">Request: Nearest(lat, lon)</text></g><g class="message" data-participant-1="SYS" data-participant-2="SYS"><line style="stroke:#181818;stroke-width:1;stroke-dasharray:2,2;" x1="442.3691" x2="484.3691" y1="938.6484" y2="938.6484"/><line style="stroke:#181818;stroke-width:1;stroke-dasharray:2,2;" x1="484.3691" x2="484.3691" y1="938.6484" y2="951.6484"/><line style="stroke:#181818;stroke-width:1;stroke-dasharray:2,2;" x1="443.3691" x2="484.3691" y1="951.6484" y2="951.6484"/><polygon fill="#181818" points="453.3691,947.6484,443.3691,951.6484,453.3691,955.6484,449.3691,951.6484" style="stroke:#181818;stroke-width:1;"/><text fill="#000000" font-family="sans-serif" font-size="13" lengthAdjust="spacing" textLength="228.084" x="449.3691" y="933.5825">nearest() recursive KD-Tree search</text></g><g class="message" data-participant-1="SYS" data-participant-2="DE"><polygon fill="#181818" points="69.1143,976.7813,59.1143,980.7813,69.1143,984.7813,65.1143,980.7813" style="stroke:#181818;stroke-width:1;"/><line style="stroke:#181818;stroke-width:1;stroke-dasharray:2,2;" x1="63.1143" x2="441.3691" y1="980.7813" y2="980.7813"/><text fill="#000000" font-family="sans-serif" font-size="13" lengthAdjust="spacing" textLength="146.3706" x="75.1143" y="975.7153">Return nearest station</text></g><!--SRC=[ZPBBRjim44Nt-eg1Lp5g6NcqA23K1kh8I86w3qHfWIx7z5WYGf4EEKhj5FttafAYAe9TT3MYvjxBCoHPiY8OVSlEtq8CsS4nbP3HGqLQ4AGISujb5A5WOs6K8YCiTIuraHq1EaYNqGujIo5tg1b6JKBTodvaKHIbIuZduHiIk0svZXDOL59ju6CQtraYs5fJmlllAv1wGtjoKL37dMjbS1FQxp96baOl3YlaERmQ_3DwFZ0kAdKVh-kjrgZG3zJjsIazNWBNHc-bBUkafCCAJWPN2K7ERIkb3b4qcy6NNP31HG9PONv2BSta4y5iTdpO6-8kCmW7bAxsUaKGJCFgRFmIxvQuiheMzWak-mGVIEO5_nT38nrG5At_cQDPdo1fcdsMgvObbOwb5kpFNjpxFSEyxfzKHnq3k3kBZsGTTIEWte0mIf7tkHU6FkQlYydbv6eodKv_zrbVUm7gt5y6eHN5IRg-w4mXVv9w0g7YtbUZcxMlk1yFWB-ItHfRWWqHRS8Ok1a3rL5Q__n48NKEhddI3fG_cZxucmG- -omFvwk_WRMfx4dwLXd0QyeXecxxOx0aAklauz_ZTJNnKShMzWpv1m00]--></g></svg>