<svg xmlns="http://www.w3.org/2000/svg" xmlns:xlink="http://www.w3.org/1999/xlink" contentStyleType="text/css" data-diagram-type="CLASS" height="1323px" preserveAspectRatio="none" style="width:643px;height:1323px;background:#FFFFFF;" version="1.1" viewBox="0 0 643 1323" width="643px" zoomAndPan="magnify"><title>US07 - Class Diagram</title><defs/><g><g class="title" data-source-line="1"><text fill="#000000" font-family="sans-serif" font-size="14" font-weight="bold" lengthAdjust="spacing" textLength="169.3809" x="229.9847" y="22.9951">US07 - Class Diagram</text></g><!--class KDTreeUI--><g class="entity" data-entity="KDTreeUI" data-source-line="4" data-uid="ent0002" id="entity_KDTreeUI"><rect fill="#F1F1F1" height="178.375" rx="2.5" ry="2.5" style="stroke:#181818;stroke-width:0.5;" width="218.2129" x="117.48" y="44.2969"/><ellipse cx="189.4009" cy="60.2969" fill="#ADD1B2" rx="11" ry="11" style="stroke:#181818;stroke-width:1;"/><path d="M192.3696,65.9375 Q191.7915,66.2344 191.1509,66.375 Q190.5103,66.5313 189.8071,66.5313 Q187.3071,66.5313 185.979,64.8906 Q184.6665,63.2344 184.6665,60.1094 Q184.6665,56.9844 185.979,55.3281 Q187.3071,53.6719 189.8071,53.6719 Q190.5103,53.6719 191.1509,53.8281 Q191.8071,53.9844 192.3696,54.2813 L192.3696,57 Q191.7446,56.4219 191.1509,56.1563 Q190.5571,55.875 189.9321,55.875 Q188.5884,55.875 187.9009,56.9531 Q187.2134,58.0156 187.2134,60.1094 Q187.2134,62.2031 187.9009,63.2813 Q188.5884,64.3438 189.9321,64.3438 Q190.5571,64.3438 191.1509,64.0781 Q191.7446,63.7969 192.3696,63.2188 L192.3696,65.9375 Z " fill="#000000"/><text fill="#000000" font-family="sans-serif" font-size="14" lengthAdjust="spacing" textLength="65.8711" x="209.9009" y="65.1436">KDTreeUI</text><line style="stroke:#181818;stroke-width:0.5;" x1="118.48" x2="334.6929" y1="76.2969" y2="76.2969"/><g data-visibility-modifier="PRIVATE_FIELD"><rect fill="none" height="6" style="stroke:#C82930;stroke-width:1;" width="6" x="125.48" y="86.9453"/></g><text fill="#000000" font-family="sans-serif" font-size="14" lengthAdjust="spacing" textLength="76.7197" x="137.48" y="93.292">Scanner sc</text><g data-visibility-modifier="PRIVATE_FIELD"><rect fill="none" height="6" style="stroke:#C82930;stroke-width:1;" width="6" x="125.48" y="103.2422"/></g><text fill="#000000" font-family="sans-serif" font-size="14" lengthAdjust="spacing" textLength="192.2129" x="137.48" y="109.5889">KDTreeController controller</text><line style="stroke:#181818;stroke-width:0.5;" x1="118.48" x2="334.6929" y1="116.8906" y2="116.8906"/><g data-visibility-modifier="PUBLIC_METHOD"><ellipse cx="128.48" cy="130.5391" fill="#84BE84" rx="3" ry="3" style="stroke:#038048;stroke-width:1;"/></g><text fill="#000000" font-family="sans-serif" font-size="14" lengthAdjust="spacing" textLength="34.4258" x="137.48" y="133.8857">run()</text><g data-visibility-modifier="PUBLIC_METHOD"><ellipse cx="128.48" cy="146.8359" fill="#84BE84" rx="3" ry="3" style="stroke:#038048;stroke-width:1;"/></g><text fill="#000000" font-family="sans-serif" font-size="14" lengthAdjust="spacing" textLength="75.8447" x="137.48" y="150.1826">showSize()</text><g data-visibility-modifier="PUBLIC_METHOD"><ellipse cx="128.48" cy="163.1328" fill="#84BE84" rx="3" ry="3" style="stroke:#038048;stroke-width:1;"/></g><text fill="#000000" font-family="sans-serif" font-size="14" lengthAdjust="spacing" textLength="93.3857" x="137.48" y="166.4795">showHeight()</text><g data-visibility-modifier="PUBLIC_METHOD"><ellipse cx="128.48" cy="179.4297" fill="#84BE84" rx="3" ry="3" style="stroke:#038048;stroke-width:1;"/></g><text fill="#000000" font-family="sans-serif" font-size="14" lengthAdjust="spacing" textLength="131.5234" x="137.48" y="182.7764">showBucketSizes()</text><g data-visibility-modifier="PUBLIC_METHOD"><ellipse cx="128.48" cy="195.7266" fill="#84BE84" rx="3" ry="3" style="stroke:#038048;stroke-width:1;"/></g><text fill="#000000" font-family="sans-serif" font-size="14" lengthAdjust="spacing" textLength="100.0371" x="137.48" y="199.0732">rangeSearch()</text><g data-visibility-modifier="PUBLIC_METHOD"><ellipse cx="128.48" cy="212.0234" fill="#84BE84" rx="3" ry="3" style="stroke:#038048;stroke-width:1;"/></g><text fill="#000000" font-family="sans-serif" font-size="14" lengthAdjust="spacing" textLength="136.958" x="137.48" y="215.3701">nearestNeighbour()</text></g><!--class KDTreeController--><g class="entity" data-entity="KDTreeController" data-source-line="16" data-uid="ent0003" id="entity_KDTreeController"><rect fill="#F1F1F1" height="210.9688" rx="2.5" ry="2.5" style="stroke:#181818;stroke-width:0.5;" width="338.8809" x="57.14" y="282.6769"/><ellipse cx="161.9964" cy="298.6769" fill="#ADD1B2" rx="11" ry="11" style="stroke:#181818;stroke-width:1;"/><path d="M164.9652,304.3175 Q164.3871,304.6144 163.7464,304.755 Q163.1058,304.9113 162.4027,304.9113 Q159.9027,304.9113 158.5746,303.2706 Q157.2621,301.6144 157.2621,298.4894 Q157.2621,295.3644 158.5746,293.7081 Q159.9027,292.0519 162.4027,292.0519 Q163.1058,292.0519 163.7464,292.2081 Q164.4027,292.3644 164.9652,292.6613 L164.9652,295.38 Q164.3402,294.8019 163.7464,294.5363 Q163.1527,294.255 162.5277,294.255 Q161.1839,294.255 160.4964,295.3331 Q159.8089,296.3956 159.8089,298.4894 Q159.8089,300.5831 160.4964,301.6613 Q161.1839,302.7238 162.5277,302.7238 Q163.1527,302.7238 163.7464,302.4581 Q164.3402,302.1769 164.9652,301.5988 L164.9652,304.3175 Z " fill="#000000"/><text fill="#000000" font-family="sans-serif" font-size="14" lengthAdjust="spacing" textLength="120.668" x="182.4964" y="303.5236">KDTreeController</text><line style="stroke:#181818;stroke-width:0.5;" x1="58.14" x2="395.0209" y1="314.6769" y2="314.6769"/><g data-visibility-modifier="PRIVATE_FIELD"><rect fill="none" height="6" style="stroke:#C82930;stroke-width:1;" width="6" x="65.14" y="325.3253"/></g><text fill="#000000" font-family="sans-serif" font-size="14" lengthAdjust="spacing" textLength="176.4219" x="77.14" y="331.672">KDTreeService kdService</text><g data-visibility-modifier="PRIVATE_FIELD"><rect fill="none" height="6" style="stroke:#C82930;stroke-width:1;" width="6" x="65.14" y="341.6222"/></g><text fill="#000000" font-family="sans-serif" font-size="14" lengthAdjust="spacing" textLength="235.04" x="77.14" y="347.9689">StationIndexService indexService</text><line style="stroke:#181818;stroke-width:0.5;" x1="58.14" x2="395.0209" y1="355.2706" y2="355.2706"/><g data-visibility-modifier="PUBLIC_METHOD"><ellipse cx="68.14" cy="368.9191" fill="#84BE84" rx="3" ry="3" style="stroke:#038048;stroke-width:1;"/></g><text fill="#000000" font-family="sans-serif" font-size="14" lengthAdjust="spacing" textLength="221.8809" x="77.14" y="372.2657">KDTreeController(indexService)</text><g data-visibility-modifier="PUBLIC_METHOD"><ellipse cx="68.14" cy="385.2159" fill="#84BE84" rx="3" ry="3" style="stroke:#038048;stroke-width:1;"/></g><text fill="#000000" font-family="sans-serif" font-size="14" lengthAdjust="spacing" textLength="96.8447" x="77.14" y="388.5626">buildKDTree()</text><g data-visibility-modifier="PUBLIC_METHOD"><ellipse cx="68.14" cy="401.5128" fill="#84BE84" rx="3" ry="3" style="stroke:#038048;stroke-width:1;"/></g><text fill="#000000" font-family="sans-serif" font-size="14" lengthAdjust="spacing" textLength="65.4473" x="77.14" y="404.8595">getTree()</text><g data-visibility-modifier="PUBLIC_METHOD"><ellipse cx="68.14" cy="417.8097" fill="#84BE84" rx="3" ry="3" style="stroke:#038048;stroke-width:1;"/></g><text fill="#000000" font-family="sans-serif" font-size="14" lengthAdjust="spacing" textLength="62.6514" x="77.14" y="421.1564">getSize()</text><g data-visibility-modifier="PUBLIC_METHOD"><ellipse cx="68.14" cy="434.1066" fill="#84BE84" rx="3" ry="3" style="stroke:#038048;stroke-width:1;"/></g><text fill="#000000" font-family="sans-serif" font-size="14" lengthAdjust="spacing" textLength="80.1924" x="77.14" y="437.4532">getHeight()</text><g data-visibility-modifier="PUBLIC_METHOD"><ellipse cx="68.14" cy="450.4034" fill="#84BE84" rx="3" ry="3" style="stroke:#038048;stroke-width:1;"/></g><text fill="#000000" font-family="sans-serif" font-size="14" lengthAdjust="spacing" textLength="118.3301" x="77.14" y="453.7501">getBucketSizes()</text><g data-visibility-modifier="PUBLIC_METHOD"><ellipse cx="68.14" cy="466.7003" fill="#84BE84" rx="3" ry="3" style="stroke:#038048;stroke-width:1;"/></g><text fill="#000000" font-family="sans-serif" font-size="14" lengthAdjust="spacing" textLength="312.8809" x="77.14" y="470.047">rangeSearch(latMin, latMax, lonMin, lonMax)</text><g data-visibility-modifier="PUBLIC_METHOD"><ellipse cx="68.14" cy="482.9972" fill="#84BE84" rx="3" ry="3" style="stroke:#038048;stroke-width:1;"/></g><text fill="#000000" font-family="sans-serif" font-size="14" lengthAdjust="spacing" textLength="112.3281" x="77.14" y="486.3439">nearest(lat, lon)</text></g><!--class KDTreeService--><g class="entity" data-entity="KDTreeService" data-source-line="30" data-uid="ent0004" id="entity_KDTreeService"><rect fill="#F1F1F1" height="162.0781" rx="2.5" ry="2.5" style="stroke:#181818;stroke-width:0.5;" width="236.4375" x="194.37" y="553.6469"/><ellipse cx="256.7206" cy="569.6469" fill="#ADD1B2" rx="11" ry="11" style="stroke:#181818;stroke-width:1;"/><path d="M259.6893,575.2875 Q259.1112,575.5844 258.4706,575.725 Q257.83,575.8813 257.1268,575.8813 Q254.6268,575.8813 253.2987,574.2406 Q251.9862,572.5844 251.9862,569.4594 Q251.9862,566.3344 253.2987,564.6781 Q254.6268,563.0219 257.1268,563.0219 Q257.83,563.0219 258.4706,563.1781 Q259.1268,563.3344 259.6893,563.6313 L259.6893,566.35 Q259.0643,565.7719 258.4706,565.5063 Q257.8768,565.225 257.2518,565.225 Q255.9081,565.225 255.2206,566.3031 Q254.5331,567.3656 254.5331,569.4594 Q254.5331,571.5531 255.2206,572.6313 Q255.9081,573.6938 257.2518,573.6938 Q257.8768,573.6938 258.4706,573.4281 Q259.0643,573.1469 259.6893,572.5688 L259.6893,575.2875 Z " fill="#000000"/><text fill="#000000" font-family="sans-serif" font-size="14" lengthAdjust="spacing" textLength="103.2363" x="277.2206" y="574.4936">KDTreeService</text><line style="stroke:#181818;stroke-width:0.5;" x1="195.37" x2="429.8075" y1="585.6469" y2="585.6469"/><g data-visibility-modifier="PRIVATE_FIELD"><rect fill="none" height="6" style="stroke:#C82930;stroke-width:1;" width="6" x="202.37" y="596.2953"/></g><text fill="#000000" font-family="sans-serif" font-size="14" lengthAdjust="spacing" textLength="104.4736" x="214.37" y="602.642">KDTree kdTree</text><line style="stroke:#181818;stroke-width:0.5;" x1="195.37" x2="429.8075" y1="609.9438" y2="609.9438"/><g data-visibility-modifier="PUBLIC_METHOD"><ellipse cx="205.37" cy="623.5922" fill="#84BE84" rx="3" ry="3" style="stroke:#038048;stroke-width:1;"/></g><text fill="#000000" font-family="sans-serif" font-size="14" lengthAdjust="spacing" textLength="210.4375" x="214.37" y="626.9389">buildFromIndex(indexService)</text><g data-visibility-modifier="PUBLIC_METHOD"><ellipse cx="205.37" cy="639.8891" fill="#84BE84" rx="3" ry="3" style="stroke:#038048;stroke-width:1;"/></g><text fill="#000000" font-family="sans-serif" font-size="14" lengthAdjust="spacing" textLength="85.4082" x="214.37" y="643.2357">getKDTree()</text><g data-visibility-modifier="PUBLIC_METHOD"><ellipse cx="205.37" cy="656.1859" fill="#84BE84" rx="3" ry="3" style="stroke:#038048;stroke-width:1;"/></g><text fill="#000000" font-family="sans-serif" font-size="14" lengthAdjust="spacing" textLength="62.6514" x="214.37" y="659.5326">getSize()</text><g data-visibility-modifier="PUBLIC_METHOD"><ellipse cx="205.37" cy="672.4828" fill="#84BE84" rx="3" ry="3" style="stroke:#038048;stroke-width:1;"/></g><text fill="#000000" font-family="sans-serif" font-size="14" lengthAdjust="spacing" textLength="80.1924" x="214.37" y="675.8295">getHeight()</text><g data-visibility-modifier="PUBLIC_METHOD"><ellipse cx="205.37" cy="688.7797" fill="#84BE84" rx="3" ry="3" style="stroke:#038048;stroke-width:1;"/></g><text fill="#000000" font-family="sans-serif" font-size="14" lengthAdjust="spacing" textLength="171.7324" x="214.37" y="692.1264">getDistinctBucketSizes()</text><g data-visibility-modifier="PUBLIC_METHOD"><ellipse cx="205.37" cy="705.0766" fill="#84BE84" rx="3" ry="3" style="stroke:#038048;stroke-width:1;"/></g><text fill="#000000" font-family="sans-serif" font-size="14" lengthAdjust="spacing" textLength="152.8584" x="214.37" y="708.4232">getBucketFor(lat, lon)</text></g><!--class StationIndexService--><g class="entity" data-entity="StationIndexService" data-source-line="40" data-uid="ent0005" id="entity_StationIndexService"><rect fill="#F1F1F1" height="80.5938" rx="2.5" ry="2.5" style="stroke:#181818;stroke-width:0.5;" width="269.168" x="7" y="832.7569"/><ellipse cx="67.1836" cy="848.7569" fill="#ADD1B2" rx="11" ry="11" style="stroke:#181818;stroke-width:1;"/><path d="M70.1523,854.3975 Q69.5742,854.6944 68.9336,854.835 Q68.293,854.9913 67.5898,854.9913 Q65.0898,854.9913 63.7617,853.3506 Q62.4492,851.6944 62.4492,848.5694 Q62.4492,845.4444 63.7617,843.7881 Q65.0898,842.1319 67.5898,842.1319 Q68.293,842.1319 68.9336,842.2881 Q69.5898,842.4444 70.1523,842.7413 L70.1523,845.46 Q69.5273,844.8819 68.9336,844.6163 Q68.3398,844.335 67.7148,844.335 Q66.3711,844.335 65.6836,845.4131 Q64.9961,846.4756 64.9961,848.5694 Q64.9961,850.6631 65.6836,851.7413 Q66.3711,852.8038 67.7148,852.8038 Q68.3398,852.8038 68.9336,852.5381 Q69.5273,852.2569 70.1523,851.6788 L70.1523,854.3975 Z " fill="#000000"/><text fill="#000000" font-family="sans-serif" font-size="14" lengthAdjust="spacing" textLength="140.3008" x="87.6836" y="853.6036">StationIndexService</text><line style="stroke:#181818;stroke-width:0.5;" x1="8" x2="275.168" y1="864.7569" y2="864.7569"/><line style="stroke:#181818;stroke-width:0.5;" x1="8" x2="275.168" y1="872.7569" y2="872.7569"/><g data-visibility-modifier="PUBLIC_METHOD"><ellipse cx="18" cy="886.4053" fill="#84BE84" rx="3" ry="3" style="stroke:#038048;stroke-width:1;"/></g><text fill="#000000" font-family="sans-serif" font-size="14" lengthAdjust="spacing" textLength="236.4277" x="27" y="889.752">getLatTree(): AVL&lt;StationByLat&gt;</text><g data-visibility-modifier="PUBLIC_METHOD"><ellipse cx="18" cy="902.7022" fill="#84BE84" rx="3" ry="3" style="stroke:#038048;stroke-width:1;"/></g><text fill="#000000" font-family="sans-serif" font-size="14" lengthAdjust="spacing" textLength="243.168" x="27" y="906.0489">getLonTree(): AVL&lt;StationByLon&gt;</text></g><!--class KDTree--><g class="entity" data-entity="KDTree" data-source-line="46" data-uid="ent0006" id="entity_KDTree"><rect fill="#F1F1F1" height="194.6719" rx="2.5" ry="2.5" style="stroke:#181818;stroke-width:0.5;" width="325.5303" x="310.82" y="775.7169"/><ellipse cx="443.5876" cy="791.7169" fill="#ADD1B2" rx="11" ry="11" style="stroke:#181818;stroke-width:1;"/><path d="M446.5563,797.3575 Q445.9782,797.6544 445.3376,797.795 Q444.697,797.9513 443.9938,797.9513 Q441.4938,797.9513 440.1657,796.3106 Q438.8532,794.6544 438.8532,791.5294 Q438.8532,788.4044 440.1657,786.7481 Q441.4938,785.0919 443.9938,785.0919 Q444.697,785.0919 445.3376,785.2481 Q445.9938,785.4044 446.5563,785.7013 L446.5563,788.42 Q445.9313,787.8419 445.3376,787.5763 Q444.7438,787.295 444.1188,787.295 Q442.7751,787.295 442.0876,788.3731 Q441.4001,789.4356 441.4001,791.5294 Q441.4001,793.6231 442.0876,794.7013 Q442.7751,795.7638 444.1188,795.7638 Q444.7438,795.7638 445.3376,795.4981 Q445.9313,795.2169 446.5563,794.6388 L446.5563,797.3575 Z " fill="#000000"/><text fill="#000000" font-family="sans-serif" font-size="14" lengthAdjust="spacing" textLength="51.4951" x="464.0876" y="796.5636">KDTree</text><line style="stroke:#181818;stroke-width:0.5;" x1="311.82" x2="635.3503" y1="807.7169" y2="807.7169"/><g data-visibility-modifier="PRIVATE_FIELD"><rect fill="none" height="6" style="stroke:#C82930;stroke-width:1;" width="6" x="318.82" y="818.3653"/></g><text fill="#000000" font-family="sans-serif" font-size="14" lengthAdjust="spacing" textLength="69.3643" x="330.82" y="824.712">Node root</text><g data-visibility-modifier="PRIVATE_FIELD"><rect fill="none" height="6" style="stroke:#C82930;stroke-width:1;" width="6" x="318.82" y="834.6622"/></g><text fill="#000000" font-family="sans-serif" font-size="14" lengthAdjust="spacing" textLength="49.8477" x="330.82" y="841.0089">int size</text><line style="stroke:#181818;stroke-width:0.5;" x1="311.82" x2="635.3503" y1="848.3106" y2="848.3106"/><g data-visibility-modifier="PUBLIC_METHOD"><ellipse cx="321.82" cy="861.9591" fill="#84BE84" rx="3" ry="3" style="stroke:#038048;stroke-width:1;"/></g><text fill="#000000" font-family="sans-serif" font-size="14" lengthAdjust="spacing" textLength="38.0693" x="330.82" y="865.3057">size()</text><g data-visibility-modifier="PUBLIC_METHOD"><ellipse cx="321.82" cy="878.2559" fill="#84BE84" rx="3" ry="3" style="stroke:#038048;stroke-width:1;"/></g><text fill="#000000" font-family="sans-serif" font-size="14" lengthAdjust="spacing" textLength="55.5488" x="330.82" y="881.6026">height()</text><g data-visibility-modifier="PUBLIC_METHOD"><ellipse cx="321.82" cy="894.5528" fill="#84BE84" rx="3" ry="3" style="stroke:#038048;stroke-width:1;"/></g><text fill="#000000" font-family="sans-serif" font-size="14" lengthAdjust="spacing" textLength="171.7324" x="330.82" y="897.8995">getDistinctBucketSizes()</text><g data-visibility-modifier="PUBLIC_METHOD"><ellipse cx="321.82" cy="910.8497" fill="#84BE84" rx="3" ry="3" style="stroke:#038048;stroke-width:1;"/></g><text fill="#000000" font-family="sans-serif" font-size="14" lengthAdjust="spacing" textLength="152.8584" x="330.82" y="914.1964">getBucketFor(lat, lon)</text><g data-visibility-modifier="PUBLIC_METHOD"><ellipse cx="321.82" cy="927.1466" fill="#84BE84" rx="3" ry="3" style="stroke:#038048;stroke-width:1;"/></g><text fill="#000000" font-family="sans-serif" font-size="14" lengthAdjust="spacing" textLength="299.5303" x="330.82" y="930.4932">rangeSearch(latMin,latMax,lonMin,lonMax)</text><g data-visibility-modifier="PUBLIC_METHOD"><ellipse cx="321.82" cy="943.4434" fill="#84BE84" rx="3" ry="3" style="stroke:#038048;stroke-width:1;"/></g><text fill="#000000" font-family="sans-serif" font-size="14" lengthAdjust="spacing" textLength="107.8779" x="330.82" y="946.7901">nearest(lat,lon)</text><g data-visibility-modifier="PUBLIC_METHOD"><ellipse cx="321.82" cy="959.7403" fill="#84BE84" rx="3" ry="3" style="stroke:#038048;stroke-width:1;"/></g><text fill="#000000" font-family="sans-serif" font-size="14" lengthAdjust="spacing" textLength="195.9727" x="330.82" y="963.087">buildBalanced(byLat,byLon)</text></g><!--class KDNode--><g class="entity" data-entity="KDNode" data-source-line="58" data-uid="ent0007" id="entity_KDNode"><rect fill="#F1F1F1" height="129.4844" rx="2.5" ry="2.5" style="stroke:#181818;stroke-width:0.5;" width="175.8232" x="385.67" y="1030.3969"/><ellipse cx="423.7729" cy="1046.3969" fill="#ADD1B2" rx="11" ry="11" style="stroke:#181818;stroke-width:1;"/><path d="M426.7417,1052.0375 Q426.1636,1052.3344 425.5229,1052.475 Q424.8823,1052.6313 424.1792,1052.6313 Q421.6792,1052.6313 420.3511,1050.9906 Q419.0386,1049.3344 419.0386,1046.2094 Q419.0386,1043.0844 420.3511,1041.4281 Q421.6792,1039.7719 424.1792,1039.7719 Q424.8823,1039.7719 425.5229,1039.9281 Q426.1792,1040.0844 426.7417,1040.3813 L426.7417,1043.1 Q426.1167,1042.5219 425.5229,1042.2563 Q424.9292,1041.975 424.3042,1041.975 Q422.9604,1041.975 422.2729,1043.0531 Q421.5854,1044.1156 421.5854,1046.2094 Q421.5854,1048.3031 422.2729,1049.3813 Q422.9604,1050.4438 424.3042,1050.4438 Q424.9292,1050.4438 425.5229,1050.1781 Q426.1167,1049.8969 426.7417,1049.3188 L426.7417,1052.0375 Z " fill="#000000"/><text fill="#000000" font-family="sans-serif" font-size="14" lengthAdjust="spacing" textLength="92.4834" x="442.9069" y="1051.2436">KDTree.Node</text><line style="stroke:#181818;stroke-width:0.5;" x1="386.67" x2="560.4932" y1="1062.3969" y2="1062.3969"/><g data-visibility-modifier="PRIVATE_FIELD"><rect fill="none" height="6" style="stroke:#C82930;stroke-width:1;" width="6" x="393.67" y="1073.0453"/></g><text fill="#000000" font-family="sans-serif" font-size="14" lengthAdjust="spacing" textLength="70.123" x="405.67" y="1079.392">double lat</text><g data-visibility-modifier="PRIVATE_FIELD"><rect fill="none" height="6" style="stroke:#C82930;stroke-width:1;" width="6" x="393.67" y="1089.3422"/></g><text fill="#000000" font-family="sans-serif" font-size="14" lengthAdjust="spacing" textLength="73.4932" x="405.67" y="1095.6889">double lon</text><g data-visibility-modifier="PRIVATE_FIELD"><rect fill="none" height="6" style="stroke:#C82930;stroke-width:1;" width="6" x="393.67" y="1105.6391"/></g><text fill="#000000" font-family="sans-serif" font-size="14" lengthAdjust="spacing" textLength="149.8232" x="405.67" y="1111.9857">List&lt;Station&gt; bucket</text><g data-visibility-modifier="PRIVATE_FIELD"><rect fill="none" height="6" style="stroke:#C82930;stroke-width:1;" width="6" x="393.67" y="1121.9359"/></g><text fill="#000000" font-family="sans-serif" font-size="14" lengthAdjust="spacing" textLength="63.9092" x="405.67" y="1128.2826">Node left</text><g data-visibility-modifier="PRIVATE_FIELD"><rect fill="none" height="6" style="stroke:#C82930;stroke-width:1;" width="6" x="393.67" y="1138.2328"/></g><text fill="#000000" font-family="sans-serif" font-size="14" lengthAdjust="spacing" textLength="73.8828" x="405.67" y="1144.5795">Node right</text><line style="stroke:#181818;stroke-width:0.5;" x1="386.67" x2="560.4932" y1="1151.8813" y2="1151.8813"/></g><!--class Station--><g class="entity" data-entity="Station" data-source-line="67" data-uid="ent0008" id="entity_Station"><rect fill="#F1F1F1" height="96.8906" rx="2.5" ry="2.5" style="stroke:#181818;stroke-width:0.5;" width="150.9883" x="398.09" y="1219.8769"/><ellipse cx="444.4479" cy="1235.8769" fill="#ADD1B2" rx="11" ry="11" style="stroke:#181818;stroke-width:1;"/><path d="M447.4167,1241.5175 Q446.8385,1241.8144 446.1979,1241.955 Q445.5573,1242.1113 444.8542,1242.1113 Q442.3542,1242.1113 441.026,1240.4706 Q439.7135,1238.8144 439.7135,1235.6894 Q439.7135,1232.5644 441.026,1230.9081 Q442.3542,1229.2519 444.8542,1229.2519 Q445.5573,1229.2519 446.1979,1229.4081 Q446.8542,1229.5644 447.4167,1229.8613 L447.4167,1232.58 Q446.7917,1232.0019 446.1979,1231.7363 Q445.6042,1231.455 444.9792,1231.455 Q443.6354,1231.455 442.9479,1232.5331 Q442.2604,1233.5956 442.2604,1235.6894 Q442.2604,1237.7831 442.9479,1238.8613 Q443.6354,1239.9238 444.9792,1239.9238 Q445.6042,1239.9238 446.1979,1239.6581 Q446.7917,1239.3769 447.4167,1238.7988 L447.4167,1241.5175 Z " fill="#000000"/><text fill="#000000" font-family="sans-serif" font-size="14" lengthAdjust="spacing" textLength="49.7725" x="464.9479" y="1240.7236">Station</text><line style="stroke:#181818;stroke-width:0.5;" x1="399.09" x2="548.0783" y1="1251.8769" y2="1251.8769"/><line style="stroke:#181818;stroke-width:0.5;" x1="399.09" x2="548.0783" y1="1259.8769" y2="1259.8769"/><g data-visibility-modifier="PUBLIC_METHOD"><ellipse cx="409.09" cy="1273.5253" fill="#84BE84" rx="3" ry="3" style="stroke:#038048;stroke-width:1;"/></g><text fill="#000000" font-family="sans-serif" font-size="14" lengthAdjust="spacing" textLength="124.9883" x="418.09" y="1276.872">getStationName()</text><g data-visibility-modifier="PUBLIC_METHOD"><ellipse cx="409.09" cy="1289.8222" fill="#84BE84" rx="3" ry="3" style="stroke:#038048;stroke-width:1;"/></g><text fill="#000000" font-family="sans-serif" font-size="14" lengthAdjust="spacing" textLength="91.5332" x="418.09" y="1293.1689">getLatitude()</text><g data-visibility-modifier="PUBLIC_METHOD"><ellipse cx="409.09" cy="1306.1191" fill="#84BE84" rx="3" ry="3" style="stroke:#038048;stroke-width:1;"/></g><text fill="#000000" font-family="sans-serif" font-size="14" lengthAdjust="spacing" textLength="103.79" x="418.09" y="1309.4657">getLongitude()</text></g><!--link KDTreeUI to KDTreeController--><g class="link" data-entity-1="KDTreeUI" data-entity-2="KDTreeController" data-source-line="75" data-uid="lnk9" id="link_KDTreeUI_KDTreeController"><path codeLine="75" d="M226.58,222.8569 C226.58,242.0669 226.58,256.5769 226.58,276.3469" fill="none" id="KDTreeUI-to-KDTreeController" style="stroke:#181818;stroke-width:1;"/><polygon fill="#181818" points="226.58,282.3469,230.58,273.3469,226.58,277.3469,222.58,273.3469,226.58,282.3469" style="stroke:#181818;stroke-width:1;"/></g><!--link KDTreeController to KDTreeService--><g class="link" data-entity-1="KDTreeController" data-entity-2="KDTreeService" data-source-line="76" data-uid="lnk10" id="link_KDTreeController_KDTreeService"><path codeLine="76" d="M263.43,493.9169 C270.41,513.7569 275.6096,528.5566 282.2696,547.4966" fill="none" id="KDTreeController-to-KDTreeService" style="stroke:#181818;stroke-width:1;"/><polygon fill="#181818" points="284.26,553.1569,285.048,543.3396,282.6014,548.44,277.501,545.9934,284.26,553.1569" style="stroke:#181818;stroke-width:1;"/></g><!--link KDTreeController to StationIndexService--><g class="link" data-entity-1="KDTreeController" data-entity-2="StationIndexService" data-source-line="77" data-uid="lnk11" id="link_KDTreeController_StationIndexService"><path codeLine="77" d="M191.64,493.7069 C185.94,513.4469 180.6,534.0569 176.58,553.6469 C156.25,652.7969 147.493,765.9073 143.923,826.4873" fill="none" id="KDTreeController-to-StationIndexService" style="stroke:#181818;stroke-width:1;"/><polygon fill="#181818" points="143.57,832.4769,148.0925,823.7278,143.8641,827.4855,140.1064,823.2571,143.57,832.4769" style="stroke:#181818;stroke-width:1;"/></g><!--link KDTreeService to KDTree--><g class="link" data-entity-1="KDTreeService" data-entity-2="KDTree" data-source-line="78" data-uid="lnk12" id="link_KDTreeService_KDTree"><path codeLine="78" d="M367.32,716.0369 C380.35,735.1769 391.0228,750.8376 404.4928,770.6176" fill="none" id="KDTreeService-to-KDTree" style="stroke:#181818;stroke-width:1;"/><polygon fill="#181818" points="407.87,775.5769,406.1104,765.8865,405.0557,771.4441,399.498,770.3894,407.87,775.5769" style="stroke:#181818;stroke-width:1;"/></g><!--link KDTreeService to StationIndexService--><g class="link" data-entity-1="KDTreeService" data-entity-2="StationIndexService" data-source-line="79" data-uid="lnk13" id="link_KDTreeService_StationIndexService"><path codeLine="79" d="M254.45,716.0369 C226.08,755.2469 196.7362,795.8152 173.8162,827.5052" fill="none" id="KDTreeService-to-StationIndexService" style="stroke:#181818;stroke-width:1;"/><polygon fill="#181818" points="170.3,832.3669,178.8155,827.4185,173.2302,828.3155,172.3332,822.7302,170.3,832.3669" style="stroke:#181818;stroke-width:1;"/></g><!--reverse link KDTree to KDNode--><g class="link" data-entity-1="KDTree" data-entity-2="KDNode" data-source-line="80" data-uid="lnk14" id="link_KDTree_KDNode"><path codeLine="80" d="M473.58,982.5869 C473.58,1002.6769 473.58,1011.3869 473.58,1029.9669" fill="none" id="KDTree-backto-KDNode" style="stroke:#181818;stroke-width:1;"/><polygon fill="none" points="473.58,970.5869,469.58,976.5869,473.58,982.5869,477.58,976.5869,473.58,970.5869" style="stroke:#181818;stroke-width:1;"/></g><!--link KDNode to Station--><g class="link" data-entity-1="KDNode" data-entity-2="Station" data-source-line="81" data-uid="lnk15" id="link_KDNode_Station"><path codeLine="81" d="M473.58,1160.3669 C473.58,1180.0069 473.58,1195.2469 473.58,1213.5869" fill="none" id="KDNode-to-Station" style="stroke:#181818;stroke-width:1;"/><polygon fill="#181818" points="473.58,1219.5869,477.58,1210.5869,473.58,1214.5869,469.58,1210.5869,473.58,1219.5869" style="stroke:#181818;stroke-width:1;"/></g><!--SRC=[hPJ1Zfim48RlF8MrbwRgKlLMgMeZ4S9gKLbIOR9t0ownbjYICMssKT-zOp349aHxAHSpuz_6_pU35LCDHNlywJFoKTYGjaLRHcf9Zfxt3dth7xIFKK9UgJInL_QwxzjSKWfpPm_1uoDS4iv1rPOcCIX2mPKKJGCpvVJQApuWsV7LU_FU7iHlpFvG9_58MNrGJchJbIzKQMKxvINXDSMKoF8mvJY4j5Mftg4GdOI9lvQfS9VcsIv9ekosEUlePySJfl8NAobwgSpRY40HnGIFUKLFeuPPWJdQVFULhHdFNtIigGRbvAccQXuxo22U4OFCMy0QefuOlqTw92SO1HzY6CbfXbEh-ocN9ewovpYCRgCSQRWS0Q0URCSFKXnxVejGmCurahSHR5ch62yNKKo47eHqtGtdNwhf-R8s8QOaNr3md7mrwiqhvDUMIl1bbU1h1-Gso0E4ysmVvliimaie9uQfg2YIGYWJCwvG2zx6dyN6SlWVJ6xsZcaTqpct6yVQfI_sXZI4bxHQ5PhNVQ5vMEZl1iCVjT4xH3I0tlC8e19T0TSNx3nB26uI2PWSQQ_XczgJJQ-XFvrOQafkGNPFGPoYC0amdjV3R6otWqcbvEYq9BXZgglSdE3rcBI_c4L9aCUx53_6FwOFUjDrw_lhgml4kxglBghnwbcKB3Itv_wmbuqM9culHyBtJRayKpLhmJy0]--></g></svg>